<?xml version="1.0" standalone="no"?>
<!-- Licensee: Magera Holton (#27985) - http://vllg.com -->
<!DOCTYPE svg PUBLIC "-//W3C//DTD SVG 1.1//EN" "http://www.w3.org/Graphics/SVG/1.1/DTD/svg11.dtd" ><svg version="1.1" xmlns="http://www.w3.org/2000/svg"><defs><font horiz-adv-x="0" id="font"><font-face ascent="750" bbox="-256 -270 1154 1002" cap-height="700" descent="-250" font-family="Regular Bold" font-stretch="normal" font-style="normal" font-weight="600" units-per-em="1000" x-height="458" /><missing-glyph d="M164 408H118L136 604H146ZM0 670Q0 682 8 690.5Q16 699 28 699H473Q484 699 492 690.5Q500 682 500 670V29Q500 17 492 8.5Q484 0 473 0H28Q16 0 8 8.5Q0 17 0 29ZM415 392Q415 407 429 407H435Q449 407 449 392V388H438V389Q438 392 437.5 394.5Q437 397 432 397Q426 397 426 389V377Q426 369 432 369Q437 369 437.5 371.5Q438 374 438 377V378H449V374Q449 359 435 359H429Q415 359 415 374ZM178 270H244L201 657H83L40 270H105L112 347H170ZM434 470Q445 484 452.5 503Q460 522 460 551V567Q460 609 434 634Q408 659 373 659H356Q321 659 294.5 634Q268 609 268 567V517H330V559Q330 572 336 585.5Q342 599 363 599H366Q386 599 391.5 585.5Q397 572 397 559V552Q396 522 376 495L298 391Q283 371 276 354Q269 337 269 313V270H461V331H339V335Q339 339 342 345.5Q345 352 355 365ZM264 42H292V113H316Q332 113 342 124.5Q352 136 352 154V187Q352 206 342 217Q332 228 316 228H264ZM380 42H465V69H410V123H442V150H410V202H465V228H380ZM237 228H208L191 151L171 228H141L174 107V42H205V107ZM65 42H93V202H123V228H35V202H65ZM460 393Q460 404 454.5 410.5Q449 417 437 417H428Q416 417 410 410.5Q404 404 404 393V373Q404 362 410 355.5Q416 349 428 349H437Q449 349 454.5 355.5Q460 362 460 373ZM292 202H309Q318 202 320.5 195.5Q323 189 323 184V158Q323 153 320.5 147Q318 141 309 141H292Z" horiz-adv-x="500" /><glyph d="M319 550H317L246 310H389ZM634 0H484L424 191H213L157 0H11L237 700H403Z" glyph-name="A" horiz-adv-x="642" unicode="A" /><glyph d="M218 239H321L271 415H268ZM189 127 153 0H16L192 560H350L530 0H390L352 127Z" glyph-name="A.smcp" horiz-adv-x="544" unicode="&#62257;" /><glyph d="M433 589H432L313 345H433ZM255 226 144 0H-18L347 700H954V580H572V416H795V297H572V119H954V0H433V226Z" glyph-name="AE" horiz-adv-x="989" unicode="&#198;" /><glyph d="M272 263H355V446ZM787 447H485V341H651V230H485V112H787V0H355V152H222L155 0H-2L276 560H787Z" glyph-name="AE.smcp" horiz-adv-x="827" unicode="&#62296;" /><glyph d="M316 942H482L390 769H266ZM319 550H317L246 310H389ZM634 0H484L424 191H213L157 0H11L237 700H403Z" glyph-name="Aacute" horiz-adv-x="642" unicode="&#193;" /><glyph d="M254 730H405L325 605H218ZM218 239H321L271 415H268ZM189 127 153 0H16L192 560H350L530 0H390L352 127Z" glyph-name="Aacute.smcp" horiz-adv-x="544" unicode="&#62503;" /><glyph d="M361 923H466V872Q466 838 454.5 812.5Q443 787 423.5 770.5Q404 754 378 745.5Q352 737 322 737Q292 737 266 745.5Q240 754 220.5 770.5Q201 787 189.5 812.5Q178 838 178 872V923H282V871Q282 854 292 843Q302 832 322 832Q342 832 351.5 843Q361 854 361 871ZM319 550H317L246 310H389ZM634 0H484L424 191H213L157 0H11L237 700H403Z" glyph-name="Abreve" horiz-adv-x="642" unicode="&#258;" /><glyph d="M271 698Q286 698 294 703Q302 708 302 725V733H395V717Q395 660 361.5 633.5Q328 607 271 607Q214 607 180.5 633.5Q147 660 147 717V733H240V725Q240 708 248 703Q256 698 271 698ZM218 239H321L271 415H268ZM189 127 153 0H16L192 560H350L530 0H390L352 127Z" glyph-name="Abreve.smcp" horiz-adv-x="544" unicode="&#62504;" /><glyph d="M248 942H395L497 769H361L321 846L283 769H147ZM319 550H317L246 310H389ZM634 0H484L424 191H213L157 0H11L237 700H403Z" glyph-name="Acircumflex" horiz-adv-x="642" unicode="&#194;" /><glyph d="M269 660 233 605H124L200 730H338L414 605H304ZM218 239H321L271 415H268ZM189 127 153 0H16L192 560H350L530 0H390L352 127Z" glyph-name="Acircumflex.smcp" horiz-adv-x="544" unicode="&#62505;" /><glyph d="M339 826Q339 858 362 881Q385 904 417 904Q449 904 472.5 881Q496 858 496 826Q496 794 472.5 771Q449 748 417 748Q385 748 362 771Q339 794 339 826ZM148 826Q148 842 154 856Q160 870 170.5 880.5Q181 891 195.5 897.5Q210 904 226 904Q258 904 281.5 881Q305 858 305 826Q305 794 281.5 771Q258 748 226 748Q210 748 195.5 754.5Q181 761 170.5 771.5Q160 782 154 796Q148 810 148 826ZM319 550H317L246 310H389ZM634 0H484L424 191H213L157 0H11L237 700H403Z" glyph-name="Adieresis" horiz-adv-x="642" unicode="&#196;" /><glyph d="M280 679Q280 706 301 726.5Q322 747 350 747Q363 747 375.5 741.5Q388 736 397.5 726.5Q407 717 412.5 704.5Q418 692 418 679Q418 652 397 632Q376 612 350 612Q322 612 301 632Q280 652 280 679ZM121 679Q121 692 127 704.5Q133 717 142.5 726.5Q152 736 164.5 741.5Q177 747 190 747Q217 747 238 726.5Q259 706 259 679Q259 652 238 632Q217 612 190 612Q177 612 164.5 617.5Q152 623 142.5 632Q133 641 127 653Q121 665 121 679ZM218 239H321L271 415H268ZM189 127 153 0H16L192 560H350L530 0H390L352 127Z" glyph-name="Adieresis.smcp" horiz-adv-x="544" unicode="&#62512;" /><glyph d="M371 769H247L155 942H321ZM319 550H317L246 310H389ZM634 0H484L424 191H213L157 0H11L237 700H403Z" glyph-name="Agrave" horiz-adv-x="642" unicode="&#192;" /><glyph d="M323 605H216L136 730H287ZM218 239H321L271 415H268ZM189 127 153 0H16L192 560H350L530 0H390L352 127Z" glyph-name="Agrave.smcp" horiz-adv-x="544" unicode="&#62513;" /><glyph d="M164 902H478V791H164ZM319 550H317L246 310H389ZM634 0H484L424 191H213L157 0H11L237 700H403Z" glyph-name="Amacron" horiz-adv-x="642" unicode="&#256;" /><glyph d="M137 716H402V621H137ZM218 239H321L271 415H268ZM189 127 153 0H16L192 560H350L530 0H390L352 127Z" glyph-name="Amacron.smcp" horiz-adv-x="544" unicode="&#62309;" /><glyph d="M319 550H317L246 310H389ZM634 0H601Q581 -18 565.5 -41Q550 -64 550 -81Q550 -95 562.5 -104Q575 -113 592 -113Q611 -113 631 -108Q651 -103 665 -98L652 -175Q628 -185 603 -192Q578 -199 541 -199Q490 -199 458.5 -176.5Q427 -154 427 -110Q427 -73 456.5 -45Q486 -17 526 0H484L424 191H213L157 0H11L237 700H403Z" glyph-name="Aogonek" horiz-adv-x="642" unicode="&#260;" /><glyph d="M218 239H321L271 415H268ZM189 127 153 0H16L192 560H350L530 0H504Q457 -25 457 -56Q457 -72 469.5 -79Q482 -86 495 -86Q510 -86 522.5 -83.5Q535 -81 542 -79L540 -147Q537 -148 513.5 -154.5Q490 -161 455 -161Q407 -161 376 -140Q345 -119 345 -84Q345 -56 364.5 -33.5Q384 -11 426 0H390L352 127Z" glyph-name="Aogonek.smcp" horiz-adv-x="544" unicode="&#62310;" /><glyph d="M323 807Q343 807 357 821.5Q371 836 371 857Q371 879 357 893.5Q343 908 323 908Q303 908 289 893.5Q275 879 275 857Q275 836 289 821.5Q303 807 323 807ZM323 737Q297 737 274 746Q251 755 234 771.5Q217 788 207 809.5Q197 831 197 857Q197 884 207 906Q217 928 234 944Q251 960 274 969Q297 978 323 978Q349 978 372 969Q395 960 412 944Q429 928 439 906Q449 884 449 857Q449 831 439 809.5Q429 788 412 771.5Q395 755 372 746Q349 737 323 737ZM319 550H317L246 310H389ZM634 0H484L424 191H213L157 0H11L237 700H403Z" glyph-name="Aring" horiz-adv-x="642" unicode="&#197;" /><glyph d="M271 655Q287 655 297.5 666.5Q308 678 308 695Q308 712 297.5 724Q287 736 271 736Q254 736 243.5 724Q233 712 233 695Q233 678 243.5 666.5Q254 655 271 655ZM271 596Q249 596 230 603.5Q211 611 196.5 624.5Q182 638 174 656Q166 674 166 695Q166 739 196 767Q226 795 271 795Q316 795 345.5 767Q375 739 375 695Q375 674 367 656Q359 638 345 624.5Q331 611 312 603.5Q293 596 271 596ZM218 239H321L271 415H268ZM189 127 153 0H16L192 560H350L530 0H390L352 127Z" glyph-name="Aring.smcp" horiz-adv-x="544" unicode="&#62311;" /><glyph d="M151 765Q151 779 153 803Q155 827 165 850Q175 873 196.5 890Q218 907 257 907Q275 907 292.5 901Q310 895 325 888Q340 881 352 875Q364 869 371 869Q393 869 393 898V904H494V897Q494 883 492 859.5Q490 836 480 813Q470 790 448.5 773Q427 756 388 756Q370 756 352.5 762Q335 768 320 775Q305 782 293 788Q281 794 274 794Q252 794 252 765V758H151ZM319 550H317L246 310H389ZM634 0H484L424 191H213L157 0H11L237 700H403Z" glyph-name="Atilde" horiz-adv-x="642" unicode="&#195;" /><glyph d="M217 732Q229 732 242.5 728Q256 724 268 719Q280 714 290.5 710Q301 706 307 706Q320 706 320 723V728H408V709Q408 698 407 681.5Q406 665 398 648.5Q390 632 373 620.5Q356 609 324 609Q312 609 299 613Q286 617 273.5 622Q261 627 250.5 631Q240 635 234 635Q221 635 221 618V613H133V627Q133 638 134 655.5Q135 673 143 690Q151 707 168 719.5Q185 732 217 732ZM218 239H321L271 415H268ZM189 127 153 0H16L192 560H350L530 0H390L352 127Z" glyph-name="Atilde.smcp" horiz-adv-x="544" unicode="&#62312;" /><glyph d="M212 582V426H283Q321 426 347.5 445Q374 464 374 505Q374 546 346.5 564Q319 582 283 582ZM212 117H284Q347 117 377.5 143.5Q408 170 408 213Q408 258 375 280Q342 302 291 302H212ZM515 521Q515 475 492.5 436.5Q470 398 423 376V374Q484 349 518.5 305.5Q553 262 553 201Q553 159 537.5 122.5Q522 86 493 58.5Q464 31 420.5 15.5Q377 0 322 0H73V700H299Q353 700 393.5 684.5Q434 669 461 644Q488 619 501.5 587Q515 555 515 521Z" glyph-name="B" horiz-adv-x="583" unicode="B" /><glyph d="M196 449V349H247Q272 349 289.5 361.5Q307 374 307 400Q307 424 289.5 436.5Q272 449 248 449ZM196 111H247Q292 111 312 130Q332 149 332 175Q332 202 312 220Q292 238 251 238H196ZM439 416Q439 381 422.5 350Q406 319 369 302V299Q418 279 443.5 243.5Q469 208 469 161Q469 127 456.5 97.5Q444 68 420.5 46.5Q397 25 362.5 12.5Q328 0 283 0H66V560H263Q307 560 340 547.5Q373 535 395 515Q417 495 428 469Q439 443 439 416Z" glyph-name="B.smcp" horiz-adv-x="500" unicode="&#62258;" /><glyph d="M177 350Q177 300 193 257Q209 214 237.5 182.5Q266 151 306.5 133.5Q347 116 397 116Q467 116 517 151Q567 186 587 249H740Q725 187 691.5 138.5Q658 90 612.5 56.5Q567 23 511.5 5.5Q456 -12 397 -12Q320 -12 253 15Q186 42 137 90Q88 138 60 204.5Q32 271 32 350Q32 429 60 495.5Q88 562 137 610Q186 658 253 685Q320 712 397 712Q456 712 511.5 694.5Q567 677 612.5 643.5Q658 610 691.5 561.5Q725 513 740 451H587Q567 514 517 549Q467 584 397 584Q347 584 306.5 566.5Q266 549 237.5 517.5Q209 486 193 443Q177 400 177 350Z" glyph-name="C" horiz-adv-x="764" unicode="C" /><glyph d="M325 112Q375 112 411.5 137.5Q448 163 462 208H609Q597 155 569 114.5Q541 74 502.5 46.5Q464 19 418.5 4.5Q373 -10 325 -10Q263 -10 210 11.5Q157 33 117 71.5Q77 110 54.5 163.5Q32 217 32 280Q32 343 54.5 396.5Q77 450 116.5 488.5Q156 527 209.5 548.5Q263 570 325 570Q373 570 418.5 555.5Q464 541 502.5 513.5Q541 486 568.5 445Q596 404 608 352H462Q448 397 411.5 422.5Q375 448 325 448Q290 448 261 435Q232 422 211.5 399.5Q191 377 180 346.5Q169 316 169 280Q169 244 180 213Q191 182 211.5 159.5Q232 137 261 124.5Q290 112 325 112Z" glyph-name="C.smcp" horiz-adv-x="635" unicode="&#62259;" /><glyph d="M374 942H540L448 769H324ZM177 350Q177 300 193 257Q209 214 237.5 182.5Q266 151 306.5 133.5Q347 116 397 116Q467 116 517 151Q567 186 587 249H740Q725 187 691.5 138.5Q658 90 612.5 56.5Q567 23 511.5 5.5Q456 -12 397 -12Q320 -12 253 15Q186 42 137 90Q88 138 60 204.5Q32 271 32 350Q32 429 60 495.5Q88 562 137 610Q186 658 253 685Q320 712 397 712Q456 712 511.5 694.5Q567 677 612.5 643.5Q658 610 691.5 561.5Q725 513 740 451H587Q567 514 517 549Q467 584 397 584Q347 584 306.5 566.5Q266 549 237.5 517.5Q209 486 193 443Q177 400 177 350Z" glyph-name="Cacute" horiz-adv-x="764" unicode="&#262;" /><glyph d="M309 730H460L380 605H273ZM325 112Q375 112 411.5 137.5Q448 163 462 208H609Q597 155 569 114.5Q541 74 502.5 46.5Q464 19 418.5 4.5Q373 -10 325 -10Q263 -10 210 11.5Q157 33 117 71.5Q77 110 54.5 163.5Q32 217 32 280Q32 343 54.5 396.5Q77 450 116.5 488.5Q156 527 209.5 548.5Q263 570 325 570Q373 570 418.5 555.5Q464 541 502.5 513.5Q541 486 568.5 445Q596 404 608 352H462Q448 397 411.5 422.5Q375 448 325 448Q290 448 261 435Q232 422 211.5 399.5Q191 377 180 346.5Q169 316 169 280Q169 244 180 213Q191 182 211.5 159.5Q232 137 261 124.5Q290 112 325 112Z" glyph-name="Cacute.smcp" horiz-adv-x="635" unicode="&#62313;" /><glyph d="M207 942H343L381 865L421 942H557L455 769H308ZM177 350Q177 300 193 257Q209 214 237.5 182.5Q266 151 306.5 133.5Q347 116 397 116Q467 116 517 151Q567 186 587 249H740Q725 187 691.5 138.5Q658 90 612.5 56.5Q567 23 511.5 5.5Q456 -12 397 -12Q320 -12 253 15Q186 42 137 90Q88 138 60 204.5Q32 271 32 350Q32 429 60 495.5Q88 562 137 610Q186 658 253 685Q320 712 397 712Q456 712 511.5 694.5Q567 677 612.5 643.5Q658 610 691.5 561.5Q725 513 740 451H587Q567 514 517 549Q467 584 397 584Q347 584 306.5 566.5Q266 549 237.5 517.5Q209 486 193 443Q177 400 177 350Z" glyph-name="Ccaron" horiz-adv-x="764" unicode="&#268;" /><glyph d="M357 730H467L391 605H253L177 730H286L322 675ZM325 112Q375 112 411.5 137.5Q448 163 462 208H609Q597 155 569 114.5Q541 74 502.5 46.5Q464 19 418.5 4.5Q373 -10 325 -10Q263 -10 210 11.5Q157 33 117 71.5Q77 110 54.5 163.5Q32 217 32 280Q32 343 54.5 396.5Q77 450 116.5 488.5Q156 527 209.5 548.5Q263 570 325 570Q373 570 418.5 555.5Q464 541 502.5 513.5Q541 486 568.5 445Q596 404 608 352H462Q448 397 411.5 422.5Q375 448 325 448Q290 448 261 435Q232 422 211.5 399.5Q191 377 180 346.5Q169 316 169 280Q169 244 180 213Q191 182 211.5 159.5Q232 137 261 124.5Q290 112 325 112Z" glyph-name="Ccaron.smcp" horiz-adv-x="635" unicode="&#62320;" /><glyph d="M309 -2Q248 11 197 42.5Q146 74 109.5 119.5Q73 165 52.5 223.5Q32 282 32 350Q32 429 60 495.5Q88 562 137 610Q186 658 253 685Q320 712 397 712Q456 712 511.5 694.5Q567 677 612.5 643.5Q658 610 691.5 561.5Q725 513 740 451H587Q567 514 517 549Q467 584 397 584Q347 584 306.5 566.5Q266 549 237.5 517.5Q209 486 193 443Q177 400 177 350Q177 300 193 257Q209 214 237.5 182.5Q266 151 306.5 133.5Q347 116 397 116Q467 116 517 151Q567 186 587 249H740Q726 195 699 151Q672 107 634.5 74.5Q597 42 551 21Q505 0 455 -7L372 -174H239Z" glyph-name="Ccedilla" horiz-adv-x="765" unicode="&#199;" /><glyph d="M254 -2Q206 9 165 34Q124 59 94.5 96Q65 133 48.5 179.5Q32 226 32 280Q32 343 54.5 396.5Q77 450 116.5 488.5Q156 527 209.5 548.5Q263 570 325 570Q373 570 418.5 555.5Q464 541 502.5 513.5Q541 486 568.5 445Q596 404 608 352H462Q448 397 411.5 422.5Q375 448 325 448Q290 448 261 435Q232 422 211.5 399.5Q191 377 180 346.5Q169 316 169 280Q169 244 180 213Q191 182 211.5 159.5Q232 137 261 124.5Q290 112 325 112Q375 112 411.5 137.5Q448 163 462 208H609Q599 164 577.5 128.5Q556 93 526.5 66Q497 39 461.5 21.5Q426 4 387 -4L329 -132H222Z" glyph-name="Ccedilla.smcp" horiz-adv-x="635" unicode="&#62321;" /><glyph d="M308 942H455L557 769H421L381 846L343 769H207ZM177 350Q177 300 193 257Q209 214 237.5 182.5Q266 151 306.5 133.5Q347 116 397 116Q467 116 517 151Q567 186 587 249H740Q725 187 691.5 138.5Q658 90 612.5 56.5Q567 23 511.5 5.5Q456 -12 397 -12Q320 -12 253 15Q186 42 137 90Q88 138 60 204.5Q32 271 32 350Q32 429 60 495.5Q88 562 137 610Q186 658 253 685Q320 712 397 712Q456 712 511.5 694.5Q567 677 612.5 643.5Q658 610 691.5 561.5Q725 513 740 451H587Q567 514 517 549Q467 584 397 584Q347 584 306.5 566.5Q266 549 237.5 517.5Q209 486 193 443Q177 400 177 350Z" glyph-name="Ccircumflex" horiz-adv-x="764" unicode="&#264;" /><glyph d="M324 660 288 605H179L255 730H393L469 605H359ZM325 112Q375 112 411.5 137.5Q448 163 462 208H609Q597 155 569 114.5Q541 74 502.5 46.5Q464 19 418.5 4.5Q373 -10 325 -10Q263 -10 210 11.5Q157 33 117 71.5Q77 110 54.5 163.5Q32 217 32 280Q32 343 54.5 396.5Q77 450 116.5 488.5Q156 527 209.5 548.5Q263 570 325 570Q373 570 418.5 555.5Q464 541 502.5 513.5Q541 486 568.5 445Q596 404 608 352H462Q448 397 411.5 422.5Q375 448 325 448Q290 448 261 435Q232 422 211.5 399.5Q191 377 180 346.5Q169 316 169 280Q169 244 180 213Q191 182 211.5 159.5Q232 137 261 124.5Q290 112 325 112Z" glyph-name="Ccircumflex.smcp" horiz-adv-x="635" unicode="&#62322;" /><glyph d="M295 856Q295 893 320.5 918.5Q346 944 382 944Q419 944 444.5 918.5Q470 893 470 856Q470 820 444.5 794.5Q419 769 382 769Q346 769 320.5 794.5Q295 820 295 856ZM177 350Q177 300 193 257Q209 214 237.5 182.5Q266 151 306.5 133.5Q347 116 397 116Q467 116 517 151Q567 186 587 249H740Q725 187 691.5 138.5Q658 90 612.5 56.5Q567 23 511.5 5.5Q456 -12 397 -12Q320 -12 253 15Q186 42 137 90Q88 138 60 204.5Q32 271 32 350Q32 429 60 495.5Q88 562 137 610Q186 658 253 685Q320 712 397 712Q456 712 511.5 694.5Q567 677 612.5 643.5Q658 610 691.5 561.5Q725 513 740 451H587Q567 514 517 549Q467 584 397 584Q347 584 306.5 566.5Q266 549 237.5 517.5Q209 486 193 443Q177 400 177 350Z" glyph-name="Cdotaccent" horiz-adv-x="764" unicode="&#266;" /><glyph d="M258 679Q258 706 279 726.5Q300 747 327 747Q354 747 374.5 726.5Q395 706 395 679Q395 652 374.5 632Q354 612 327 612Q300 612 279 632Q258 652 258 679ZM325 112Q375 112 411.5 137.5Q448 163 462 208H609Q597 155 569 114.5Q541 74 502.5 46.5Q464 19 418.5 4.5Q373 -10 325 -10Q263 -10 210 11.5Q157 33 117 71.5Q77 110 54.5 163.5Q32 217 32 280Q32 343 54.5 396.5Q77 450 116.5 488.5Q156 527 209.5 548.5Q263 570 325 570Q373 570 418.5 555.5Q464 541 502.5 513.5Q541 486 568.5 445Q596 404 608 352H462Q448 397 411.5 422.5Q375 448 325 448Q290 448 261 435Q232 422 211.5 399.5Q191 377 180 346.5Q169 316 169 280Q169 244 180 213Q191 182 211.5 159.5Q232 137 261 124.5Q290 112 325 112Z" glyph-name="Cdotaccent.smcp" horiz-adv-x="635" unicode="&#62323;" /><glyph d="M534 350Q534 408 516.5 451.5Q499 495 469 523.5Q439 552 397.5 566.5Q356 581 308 581H212V118H308Q356 118 397.5 132Q439 146 469 175Q499 204 516.5 247.5Q534 291 534 350ZM676 350Q676 272 651.5 207.5Q627 143 580.5 97Q534 51 466.5 25.5Q399 0 313 0H73V700H313Q399 700 466.5 674.5Q534 649 580.5 603Q627 557 651.5 492.5Q676 428 676 350Z" glyph-name="D" horiz-adv-x="710" unicode="D" /><glyph d="M431 280Q431 322 418 353.5Q405 385 383 406Q361 427 333 437.5Q305 448 274 448H196V112H274Q305 112 333 122Q361 132 383 153Q405 174 418 205.5Q431 237 431 280ZM564 280Q564 218 544 166.5Q524 115 486.5 78Q449 41 395 20.5Q341 0 272 0H66V560H272Q341 560 395 539.5Q449 519 486.5 482Q524 445 544 393.5Q564 342 564 280Z" glyph-name="D.smcp" horiz-adv-x="598" unicode="&#62260;" /><glyph d="M180 942H316L354 865L394 942H530L428 769H281ZM534 350Q534 408 516.5 451.5Q499 495 469 523.5Q439 552 397.5 566.5Q356 581 308 581H212V118H308Q356 118 397.5 132Q439 146 469 175Q499 204 516.5 247.5Q534 291 534 350ZM676 350Q676 272 651.5 207.5Q627 143 580.5 97Q534 51 466.5 25.5Q399 0 313 0H73V700H313Q399 700 466.5 674.5Q534 649 580.5 603Q627 557 651.5 492.5Q676 428 676 350Z" glyph-name="Dcaron" horiz-adv-x="710" unicode="&#270;" /><glyph d="M331 730H441L365 605H227L151 730H260L296 675ZM431 280Q431 322 418 353.5Q405 385 383 406Q361 427 333 437.5Q305 448 274 448H196V112H274Q305 112 333 122Q361 132 383 153Q405 174 418 205.5Q431 237 431 280ZM564 280Q564 218 544 166.5Q524 115 486.5 78Q449 41 395 20.5Q341 0 272 0H66V560H272Q341 560 395 539.5Q449 519 486.5 482Q524 445 544 393.5Q564 342 564 280Z" glyph-name="Dcaron.smcp" horiz-adv-x="598" unicode="&#62324;" /><glyph d="M544 350Q544 408 526.5 451.5Q509 495 479 523.5Q449 552 407.5 566.5Q366 581 318 581H222V416H400V297H222V118H318Q366 118 407.5 132Q449 146 479 175Q509 204 526.5 247.5Q544 291 544 350ZM6 416H83V700H323Q409 700 476.5 674.5Q544 649 590.5 603Q637 557 661.5 492.5Q686 428 686 350Q686 272 661.5 207.5Q637 143 590.5 97Q544 51 476.5 25.5Q409 0 323 0H83V297H6Z" glyph-name="Dcroat" horiz-adv-x="720" unicode="&#272;" /><glyph d="M435 280Q435 322 422 353.5Q409 385 387 406Q365 427 337 437.5Q309 448 278 448H200V341H344V230H200V112H278Q309 112 337 122Q365 132 387 153Q409 174 422 205.5Q435 237 435 280ZM22 341H70V560H276Q345 560 399 539.5Q453 519 490.5 482Q528 445 548 393.5Q568 342 568 280Q568 218 548 166.5Q528 115 490.5 78Q453 41 399 20.5Q345 0 276 0H70V230H22Z" glyph-name="Dcroat.smcp" horiz-adv-x="602" unicode="&#62497;" /><glyph d="M344 542 177 120H511ZM658 122V0H31V122L269 700H420Z" glyph-name="Delta" horiz-adv-x="689" unicode="&#8710;" /><glyph d="M594 580H212V416H435V297H212V119H594V0H73V700H594Z" glyph-name="E" horiz-adv-x="629" unicode="E" /><glyph d="M497 447H196V341H362V230H196V112H497V0H66V560H497Z" glyph-name="E.smcp" horiz-adv-x="537" unicode="&#62261;" /><glyph d="M310 942H476L384 769H260ZM594 580H212V416H435V297H212V119H594V0H73V700H594Z" glyph-name="Eacute" horiz-adv-x="629" unicode="&#201;" /><glyph d="M265 730H416L336 605H229ZM497 447H196V341H362V230H196V112H497V0H66V560H497Z" glyph-name="Eacute.smcp" horiz-adv-x="537" unicode="&#62514;" /><glyph d="M353 923H458V872Q458 838 446.5 812.5Q435 787 415.5 770.5Q396 754 370 745.5Q344 737 314 737Q284 737 258 745.5Q232 754 212.5 770.5Q193 787 181.5 812.5Q170 838 170 872V923H274V871Q274 854 284 843Q294 832 314 832Q334 832 343.5 843Q353 854 353 871ZM594 580H212V416H435V297H212V119H594V0H73V700H594Z" glyph-name="Ebreve" horiz-adv-x="629" unicode="&#276;" /><glyph d="M287 698Q302 698 310 703Q318 708 318 725V733H411V717Q411 660 377.5 633.5Q344 607 287 607Q230 607 196.5 633.5Q163 660 163 717V733H256V725Q256 708 264 703Q272 698 287 698ZM497 447H196V341H362V230H196V112H497V0H66V560H497Z" glyph-name="Ebreve.smcp" horiz-adv-x="537" unicode="&#62515;" /><glyph d="M139 942H275L313 865L353 942H489L387 769H240ZM594 580H212V416H435V297H212V119H594V0H73V700H594Z" glyph-name="Ecaron" horiz-adv-x="629" unicode="&#282;" /><glyph d="M326 730H436L360 605H222L146 730H255L291 675ZM497 447H196V341H362V230H196V112H497V0H66V560H497Z" glyph-name="Ecaron.smcp" horiz-adv-x="537" unicode="&#62516;" /><glyph d="M260 942H407L509 769H373L333 846L295 769H159ZM594 580H212V416H435V297H212V119H594V0H73V700H594Z" glyph-name="Ecircumflex" horiz-adv-x="629" unicode="&#202;" /><glyph d="M284 660 248 605H139L215 730H353L429 605H319ZM497 447H196V341H362V230H196V112H497V0H66V560H497Z" glyph-name="Ecircumflex.smcp" horiz-adv-x="537" unicode="&#62517;" /><glyph d="M331 826Q331 858 354 881Q377 904 409 904Q441 904 464.5 881Q488 858 488 826Q488 794 464.5 771Q441 748 409 748Q377 748 354 771Q331 794 331 826ZM140 826Q140 842 146 856Q152 870 162.5 880.5Q173 891 187.5 897.5Q202 904 218 904Q250 904 273.5 881Q297 858 297 826Q297 794 273.5 771Q250 748 218 748Q202 748 187.5 754.5Q173 761 162.5 771.5Q152 782 146 796Q140 810 140 826ZM594 580H212V416H435V297H212V119H594V0H73V700H594Z" glyph-name="Edieresis" horiz-adv-x="629" unicode="&#203;" /><glyph d="M292 679Q292 706 313 726.5Q334 747 362 747Q375 747 387.5 741.5Q400 736 409.5 726.5Q419 717 424.5 704.5Q430 692 430 679Q430 652 409 632Q388 612 362 612Q334 612 313 632Q292 652 292 679ZM133 679Q133 692 139 704.5Q145 717 154.5 726.5Q164 736 176.5 741.5Q189 747 202 747Q229 747 250 726.5Q271 706 271 679Q271 652 250 632Q229 612 202 612Q189 612 176.5 617.5Q164 623 154.5 632Q145 641 139 653Q133 665 133 679ZM497 447H196V341H362V230H196V112H497V0H66V560H497Z" glyph-name="Edieresis.smcp" horiz-adv-x="537" unicode="&#62518;" /><glyph d="M244 856Q244 893 269.5 918.5Q295 944 331 944Q368 944 393.5 918.5Q419 893 419 856Q419 820 393.5 794.5Q368 769 331 769Q295 769 269.5 794.5Q244 820 244 856ZM594 580H212V416H435V297H212V119H594V0H73V700H594Z" glyph-name="Edotaccent" horiz-adv-x="629" unicode="&#278;" /><glyph d="M218 679Q218 706 239 726.5Q260 747 287 747Q314 747 334.5 726.5Q355 706 355 679Q355 652 334.5 632Q314 612 287 612Q260 612 239 632Q218 652 218 679ZM497 447H196V341H362V230H196V112H497V0H66V560H497Z" glyph-name="Edotaccent.smcp" horiz-adv-x="537" unicode="&#62519;" /><glyph d="M392 769H268L176 942H342ZM594 580H212V416H435V297H212V119H594V0H73V700H594Z" glyph-name="Egrave" horiz-adv-x="629" unicode="&#200;" /><glyph d="M339 605H232L152 730H303ZM497 447H196V341H362V230H196V112H497V0H66V560H497Z" glyph-name="Egrave.smcp" horiz-adv-x="537" unicode="&#62520;" /><glyph d="M181 885H495V774H181ZM594 580H212V416H435V297H212V119H594V0H73V700H594Z" glyph-name="Emacron" horiz-adv-x="629" unicode="&#274;" /><glyph d="M145 716H410V621H145ZM497 447H196V341H362V230H196V112H497V0H66V560H497Z" glyph-name="Emacron.smcp" horiz-adv-x="537" unicode="&#62521;" /><glyph d="M210 0H73V700H256L492 234V700H629V-34Q629 -103 596.5 -139Q564 -175 482 -175H396V-55H442Q471 -55 480 -43.5Q489 -32 490 0H460L210 486Z" glyph-name="Eng" horiz-adv-x="702" unicode="&#330;" /><glyph d="M194 0H66V560H231L401 208V560H529V-25Q529 -81 503 -111Q477 -141 410 -141H329V-27H366Q383 -27 389.5 -21Q396 -15 398 0H370L194 352Z" glyph-name="Eng.smcp" horiz-adv-x="595" unicode="&#62487;" /><glyph d="M594 580H212V416H435V297H212V119H594V0H530Q510 -18 494.5 -41Q479 -64 479 -81Q479 -95 491.5 -104Q504 -113 521 -113Q540 -113 560 -108Q580 -103 594 -98L581 -175Q557 -185 532 -192Q507 -199 470 -199Q419 -199 387.5 -176.5Q356 -154 356 -110Q356 -73 385.5 -45Q415 -17 455 0H73V700H594Z" glyph-name="Eogonek" horiz-adv-x="629" unicode="&#280;" /><glyph d="M497 447H196V341H362V230H196V112H497V0H420Q373 -25 373 -56Q373 -72 385.5 -79Q398 -86 411 -86Q426 -86 438.5 -83.5Q451 -81 458 -79L456 -147Q453 -148 429.5 -154.5Q406 -161 371 -161Q323 -161 292 -140Q261 -119 261 -84Q261 -56 280.5 -33.5Q300 -11 342 0H66V560H497Z" glyph-name="Eogonek.smcp" horiz-adv-x="537" unicode="&#62528;" /><glyph d="M543 350Q543 408 525.5 451.5Q508 495 478 523.5Q448 552 406.5 566.5Q365 581 317 581H221V406H399V307H221V118H317Q365 118 406.5 132Q448 146 478 175Q508 204 525.5 247.5Q543 291 543 350ZM5 406H82V700H322Q408 700 475.5 674.5Q543 649 589.5 603Q636 557 660.5 492.5Q685 428 685 350Q685 272 660.5 207.5Q636 143 589.5 97Q543 51 475.5 25.5Q408 0 322 0H82V307H5Z" glyph-name="Eth" horiz-adv-x="719" unicode="&#208;" /><glyph d="M435 280Q435 322 422 353.5Q409 385 387 406Q365 427 337 437.5Q309 448 278 448H200V341H344V230H200V112H278Q309 112 337 122Q365 132 387 153Q409 174 422 205.5Q435 237 435 280ZM22 341H70V560H276Q345 560 399 539.5Q453 519 490.5 482Q528 445 548 393.5Q568 342 568 280Q568 218 548 166.5Q528 115 490.5 78Q453 41 399 20.5Q345 0 276 0H70V230H22Z" glyph-name="Eth.smcp" horiz-adv-x="602" unicode="&#62498;" /><glyph d="M37 478H101Q117 531 145.5 574Q174 617 214.5 648Q255 679 305.5 695.5Q356 712 415 712Q474 712 524.5 694Q575 676 615 642.5Q655 609 683 561Q711 513 725 453H572Q555 512 518.5 548Q482 584 412 584Q350 584 310 555.5Q270 527 250 478H472V385H228Q227 376 227 367.5Q227 359 227 350Q227 340 227 331Q227 322 228 314H472V222H249Q269 172 309.5 143Q350 114 413 114Q482 114 518.5 150.5Q555 187 572 246H726Q712 186 683.5 138Q655 90 615 57Q575 24 524.5 6Q474 -12 415 -12Q356 -12 305.5 4.5Q255 21 214.5 51.5Q174 82 145.5 125.5Q117 169 101 222H37V314H85Q84 323 84 331.5Q84 340 84 350Q84 359 84 367.5Q84 376 85 385H37Z" glyph-name="Euro" horiz-adv-x="763" unicode="&#8364;" /><glyph d="M38 385H95Q108 427 132.5 461Q157 495 189 519.5Q221 544 260 557Q299 570 343 570Q386 570 427 555.5Q468 541 502.5 513.5Q537 486 561.5 445Q586 404 597 352H453Q442 397 412 422.5Q382 448 342 448Q309 448 283 431Q257 414 240 385H384V302H216Q215 297 215 291Q215 285 215 280Q215 274 215 268Q215 262 216 257H384V175H240Q257 146 283 129Q309 112 342 112Q382 112 412 137.5Q442 163 453 208H598Q587 155 562 114.5Q537 74 502.5 46.5Q468 19 427 4.5Q386 -10 343 -10Q300 -10 261 3Q222 16 189.5 40.5Q157 65 133 99Q109 133 95 175H38V257H80Q79 262 79 268Q79 274 79 280Q79 285 79 290.5Q79 296 80 302H38Z" glyph-name="Euro.smcp" horiz-adv-x="632" unicode="&#63111;" /><glyph d="M212 278V0H73V700H580V580H212V398H482V278Z" glyph-name="F" horiz-adv-x="590" unicode="F" /><glyph d="M196 214V0H66V560H489V447H196V327H412V214Z" glyph-name="F.smcp" horiz-adv-x="505" unicode="&#62262;" /><glyph d="M387 -12Q312 -12 247 15Q182 42 134 90Q86 138 59 204.5Q32 271 32 350Q32 429 60.5 495.5Q89 562 138.5 610Q188 658 255.5 685Q323 712 400 712Q459 712 514.5 694.5Q570 677 615.5 643.5Q661 610 694.5 561.5Q728 513 743 451H590Q570 514 520 549Q470 584 400 584Q350 584 309 566.5Q268 549 239 517.5Q210 486 193.5 443Q177 400 177 350Q177 295 194 251.5Q211 208 241 178Q271 148 311.5 132Q352 116 399 116Q436 116 466.5 126Q497 136 520 152.5Q543 169 559 190Q575 211 582 233H429V347H726V0H613V97Q603 82 583 63Q563 44 534.5 27.5Q506 11 469 -0.5Q432 -12 387 -12Z" glyph-name="G" horiz-adv-x="779" unicode="G" /><glyph d="M328 112Q375 112 409.5 133.5Q444 155 461 187H347V290H597V0H497V74Q491 66 478 52Q465 38 443 24Q421 10 389.5 0Q358 -10 316 -10Q255 -10 203 11.5Q151 33 113 71.5Q75 110 53.5 163.5Q32 217 32 280Q32 343 54.5 396.5Q77 450 116.5 488.5Q156 527 209.5 548.5Q263 570 325 570Q373 570 418.5 555.5Q464 541 502.5 513.5Q541 486 568.5 445Q596 404 608 352H463Q449 397 412 422.5Q375 448 325 448Q290 448 261 435Q232 422 211.5 399.5Q191 377 180 346.5Q169 316 169 280Q169 238 182 206.5Q195 175 217 154Q239 133 267.5 122.5Q296 112 328 112Z" glyph-name="G.smcp" horiz-adv-x="643" unicode="&#62263;" /><glyph d="M427 923H532V872Q532 838 520.5 812.5Q509 787 489.5 770.5Q470 754 444 745.5Q418 737 388 737Q358 737 332 745.5Q306 754 286.5 770.5Q267 787 255.5 812.5Q244 838 244 872V923H348V871Q348 854 358 843Q368 832 388 832Q408 832 417.5 843Q427 854 427 871ZM387 -12Q312 -12 247 15Q182 42 134 90Q86 138 59 204.5Q32 271 32 350Q32 429 60.5 495.5Q89 562 138.5 610Q188 658 255.5 685Q323 712 400 712Q459 712 514.5 694.5Q570 677 615.5 643.5Q661 610 694.5 561.5Q728 513 743 451H590Q570 514 520 549Q470 584 400 584Q350 584 309 566.5Q268 549 239 517.5Q210 486 193.5 443Q177 400 177 350Q177 295 194 251.5Q211 208 241 178Q271 148 311.5 132Q352 116 399 116Q436 116 466.5 126Q497 136 520 152.5Q543 169 559 190Q575 211 582 233H429V347H726V0H613V97Q603 82 583 63Q563 44 534.5 27.5Q506 11 469 -0.5Q432 -12 387 -12Z" glyph-name="Gbreve" horiz-adv-x="779" unicode="&#286;" /><glyph d="M327 698Q342 698 350 703Q358 708 358 725V733H451V717Q451 660 417.5 633.5Q384 607 327 607Q270 607 236.5 633.5Q203 660 203 717V733H296V725Q296 708 304 703Q312 698 327 698ZM328 112Q375 112 409.5 133.5Q444 155 461 187H347V290H597V0H497V74Q491 66 478 52Q465 38 443 24Q421 10 389.5 0Q358 -10 316 -10Q255 -10 203 11.5Q151 33 113 71.5Q75 110 53.5 163.5Q32 217 32 280Q32 343 54.5 396.5Q77 450 116.5 488.5Q156 527 209.5 548.5Q263 570 325 570Q373 570 418.5 555.5Q464 541 502.5 513.5Q541 486 568.5 445Q596 404 608 352H463Q449 397 412 422.5Q375 448 325 448Q290 448 261 435Q232 422 211.5 399.5Q191 377 180 346.5Q169 316 169 280Q169 238 182 206.5Q195 175 217 154Q239 133 267.5 122.5Q296 112 328 112Z" glyph-name="Gbreve.smcp" horiz-adv-x="643" unicode="&#62325;" /><glyph d="M314 942H461L563 769H427L387 846L349 769H213ZM387 -12Q312 -12 247 15Q182 42 134 90Q86 138 59 204.5Q32 271 32 350Q32 429 60.5 495.5Q89 562 138.5 610Q188 658 255.5 685Q323 712 400 712Q459 712 514.5 694.5Q570 677 615.5 643.5Q661 610 694.5 561.5Q728 513 743 451H590Q570 514 520 549Q470 584 400 584Q350 584 309 566.5Q268 549 239 517.5Q210 486 193.5 443Q177 400 177 350Q177 295 194 251.5Q211 208 241 178Q271 148 311.5 132Q352 116 399 116Q436 116 466.5 126Q497 136 520 152.5Q543 169 559 190Q575 211 582 233H429V347H726V0H613V97Q603 82 583 63Q563 44 534.5 27.5Q506 11 469 -0.5Q432 -12 387 -12Z" glyph-name="Gcircumflex" horiz-adv-x="779" unicode="&#284;" /><glyph d="M327 660 291 605H182L258 730H396L472 605H362ZM328 112Q375 112 409.5 133.5Q444 155 461 187H347V290H597V0H497V74Q491 66 478 52Q465 38 443 24Q421 10 389.5 0Q358 -10 316 -10Q255 -10 203 11.5Q151 33 113 71.5Q75 110 53.5 163.5Q32 217 32 280Q32 343 54.5 396.5Q77 450 116.5 488.5Q156 527 209.5 548.5Q263 570 325 570Q373 570 418.5 555.5Q464 541 502.5 513.5Q541 486 568.5 445Q596 404 608 352H463Q449 397 412 422.5Q375 448 325 448Q290 448 261 435Q232 422 211.5 399.5Q191 377 180 346.5Q169 316 169 280Q169 238 182 206.5Q195 175 217 154Q239 133 267.5 122.5Q296 112 328 112Z" glyph-name="Gcircumflex.smcp" horiz-adv-x="643" unicode="&#62326;" /><glyph d="M322 -117Q322 -85 344.5 -63Q367 -41 399 -41Q432 -41 455 -63Q478 -85 478 -117Q478 -126 474 -141Q470 -156 465 -164L407 -270H315L355 -179Q340 -169 331 -153Q322 -137 322 -117ZM387 -12Q312 -12 247 15Q182 42 134 90Q86 138 59 204.5Q32 271 32 350Q32 429 60.5 495.5Q89 562 138.5 610Q188 658 255.5 685Q323 712 400 712Q459 712 514.5 694.5Q570 677 615.5 643.5Q661 610 694.5 561.5Q728 513 743 451H590Q570 514 520 549Q470 584 400 584Q350 584 309 566.5Q268 549 239 517.5Q210 486 193.5 443Q177 400 177 350Q177 295 194 251.5Q211 208 241 178Q271 148 311.5 132Q352 116 399 116Q436 116 466.5 126Q497 136 520 152.5Q543 169 559 190Q575 211 582 233H429V347H726V0H613V97Q603 82 583 63Q563 44 534.5 27.5Q506 11 469 -0.5Q432 -12 387 -12Z" glyph-name="Gcommaaccent" horiz-adv-x="779" unicode="&#290;" /><glyph d="M246 -113Q246 -83 267.5 -61.5Q289 -40 318 -40Q353 -40 373 -62Q393 -84 393 -113Q393 -127 387 -140.5Q381 -154 374 -165L322 -245H240L273 -168Q246 -146 246 -113ZM328 112Q375 112 409.5 133.5Q444 155 461 187H347V290H597V0H497V74Q491 66 478 52Q465 38 443 24Q421 10 389.5 0Q358 -10 316 -10Q255 -10 203 11.5Q151 33 113 71.5Q75 110 53.5 163.5Q32 217 32 280Q32 343 54.5 396.5Q77 450 116.5 488.5Q156 527 209.5 548.5Q263 570 325 570Q373 570 418.5 555.5Q464 541 502.5 513.5Q541 486 568.5 445Q596 404 608 352H463Q449 397 412 422.5Q375 448 325 448Q290 448 261 435Q232 422 211.5 399.5Q191 377 180 346.5Q169 316 169 280Q169 238 182 206.5Q195 175 217 154Q239 133 267.5 122.5Q296 112 328 112Z" glyph-name="Gcommaaccent.smcp" horiz-adv-x="643" unicode="&#62484;" /><glyph d="M300 856Q300 893 325.5 918.5Q351 944 387 944Q424 944 449.5 918.5Q475 893 475 856Q475 820 449.5 794.5Q424 769 387 769Q351 769 325.5 794.5Q300 820 300 856ZM387 -12Q312 -12 247 15Q182 42 134 90Q86 138 59 204.5Q32 271 32 350Q32 429 60.5 495.5Q89 562 138.5 610Q188 658 255.5 685Q323 712 400 712Q459 712 514.5 694.5Q570 677 615.5 643.5Q661 610 694.5 561.5Q728 513 743 451H590Q570 514 520 549Q470 584 400 584Q350 584 309 566.5Q268 549 239 517.5Q210 486 193.5 443Q177 400 177 350Q177 295 194 251.5Q211 208 241 178Q271 148 311.5 132Q352 116 399 116Q436 116 466.5 126Q497 136 520 152.5Q543 169 559 190Q575 211 582 233H429V347H726V0H613V97Q603 82 583 63Q563 44 534.5 27.5Q506 11 469 -0.5Q432 -12 387 -12Z" glyph-name="Gdotaccent" horiz-adv-x="779" unicode="&#288;" /><glyph d="M258 679Q258 706 279 726.5Q300 747 327 747Q354 747 374.5 726.5Q395 706 395 679Q395 652 374.5 632Q354 612 327 612Q300 612 279 632Q258 652 258 679ZM328 112Q375 112 409.5 133.5Q444 155 461 187H347V290H597V0H497V74Q491 66 478 52Q465 38 443 24Q421 10 389.5 0Q358 -10 316 -10Q255 -10 203 11.5Q151 33 113 71.5Q75 110 53.5 163.5Q32 217 32 280Q32 343 54.5 396.5Q77 450 116.5 488.5Q156 527 209.5 548.5Q263 570 325 570Q373 570 418.5 555.5Q464 541 502.5 513.5Q541 486 568.5 445Q596 404 608 352H463Q449 397 412 422.5Q375 448 325 448Q290 448 261 435Q232 422 211.5 399.5Q191 377 180 346.5Q169 316 169 280Q169 238 182 206.5Q195 175 217 154Q239 133 267.5 122.5Q296 112 328 112Z" glyph-name="Gdotaccent.smcp" horiz-adv-x="643" unicode="&#62327;" /><glyph d="M490 0V297H212V0H73V700H212V416H490V700H629V0Z" glyph-name="H" horiz-adv-x="702" unicode="H" /><glyph d="M399 0V230H196V0H66V560H196V341H399V560H529V0Z" glyph-name="H.smcp" horiz-adv-x="595" unicode="&#62264;" /><glyph d="M499 416V497H221V416ZM9 616H82V700H221V616H499V700H638V616H711V497H638V0H499V297H221V0H82V497H9Z" glyph-name="Hbar" horiz-adv-x="720" unicode="&#294;" /><glyph d="M404 341V397H201V341ZM17 498H71V560H201V498H404V560H534V498H588V397H534V0H404V230H201V0H71V397H17Z" glyph-name="Hbar.smcp" horiz-adv-x="605" unicode="&#62499;" /><glyph d="M277 942H424L526 769H390L350 846L312 769H176ZM490 0V297H212V0H73V700H212V416H490V700H629V0Z" glyph-name="Hcircumflex" horiz-adv-x="702" unicode="&#292;" /><glyph d="M297 660 261 605H152L228 730H366L442 605H332ZM399 0V230H196V0H66V560H196V341H399V560H529V0Z" glyph-name="Hcircumflex.smcp" horiz-adv-x="595" unicode="&#62328;" /><glyph d="M73 700H212V0H73Z" glyph-name="I" horiz-adv-x="285" unicode="I" /><glyph d="M66 560H196V0H66Z" glyph-name="I.smcp" horiz-adv-x="262" unicode="&#62265;" /><glyph d="M446 299V245Q446 188 477 152Q508 116 570 116Q632 116 663 152Q694 188 694 245V700H833V232Q833 181 816 136.5Q799 92 765.5 59Q732 26 682.5 7Q633 -12 568 -12Q503 -12 454 7Q405 26 372.5 59Q340 92 323.5 136.5Q307 181 307 232V299ZM73 700H212V0H73Z" glyph-name="IJ" horiz-adv-x="900" unicode="&#306;" /><glyph d="M310 -15Q340 -15 349 -3Q358 9 358 42V700H497V6Q497 -63 464.5 -99Q432 -135 350 -135H264V-15ZM73 700H212V0H73Z" glyph-name="IJ.alt" horiz-adv-x="570" unicode="&#59530;" /><glyph d="M415 259V205Q415 161 436.5 133Q458 105 503 105Q549 105 570 133Q591 161 591 205V560H721V187Q721 146 706.5 110Q692 74 664.5 47.5Q637 21 596 5.5Q555 -10 502 -10Q448 -10 407.5 5.5Q367 21 340 47.5Q313 74 299 110Q285 146 285 187V259ZM66 560H196V0H66Z" glyph-name="IJ.smcp" horiz-adv-x="782" unicode="&#62341;" /><glyph d="M134 942H300L208 769H84ZM73 700H212V0H73Z" glyph-name="Iacute" horiz-adv-x="285" unicode="&#205;" /><glyph d="M113 730H264L184 605H77ZM66 560H196V0H66Z" glyph-name="Iacute.smcp" horiz-adv-x="262" unicode="&#62329;" /><glyph d="M182 923H287V872Q287 838 275.5 812.5Q264 787 244.5 770.5Q225 754 199 745.5Q173 737 143 737Q113 737 87 745.5Q61 754 41.5 770.5Q22 787 10.5 812.5Q-1 838 -1 872V923H103V871Q103 854 113 843Q123 832 143 832Q163 832 172.5 843Q182 854 182 871ZM73 700H212V0H73Z" glyph-name="Ibreve" horiz-adv-x="285" unicode="&#300;" /><glyph d="M133 698Q148 698 156 703Q164 708 164 725V733H257V717Q257 660 223.5 633.5Q190 607 133 607Q76 607 42.5 633.5Q9 660 9 717V733H102V725Q102 708 110 703Q118 698 133 698ZM66 560H196V0H66Z" glyph-name="Ibreve.smcp" horiz-adv-x="262" unicode="&#62336;" /><glyph d="M69 942H216L318 769H182L142 846L104 769H-32ZM73 700H212V0H73Z" glyph-name="Icircumflex" horiz-adv-x="285" unicode="&#206;" /><glyph d="M132 660 96 605H-13L63 730H201L277 605H167ZM66 560H196V0H66Z" glyph-name="Icircumflex.smcp" horiz-adv-x="262" unicode="&#62337;" /><glyph d="M160 826Q160 858 183 881Q206 904 238 904Q270 904 293.5 881Q317 858 317 826Q317 794 293.5 771Q270 748 238 748Q206 748 183 771Q160 794 160 826ZM-31 826Q-31 842 -25 856Q-19 870 -8.5 880.5Q2 891 16.5 897.5Q31 904 47 904Q79 904 102.5 881Q126 858 126 826Q126 794 102.5 771Q79 748 47 748Q31 748 16.5 754.5Q2 761 -8.5 771.5Q-19 782 -25 796Q-31 810 -31 826ZM73 700H212V0H73Z" glyph-name="Idieresis" horiz-adv-x="285" unicode="&#207;" /><glyph d="M144 679Q144 706 165 726.5Q186 747 214 747Q227 747 239.5 741.5Q252 736 261.5 726.5Q271 717 276.5 704.5Q282 692 282 679Q282 652 261 632Q240 612 214 612Q186 612 165 632Q144 652 144 679ZM-15 679Q-15 692 -9 704.5Q-3 717 6.5 726.5Q16 736 28.5 741.5Q41 747 54 747Q81 747 102 726.5Q123 706 123 679Q123 652 102 632Q81 612 54 612Q41 612 28.5 617.5Q16 623 6.5 632Q-3 641 -9 653Q-15 665 -15 679ZM66 560H196V0H66Z" glyph-name="Idieresis.smcp" horiz-adv-x="262" unicode="&#62338;" /><glyph d="M55 856Q55 893 80.5 918.5Q106 944 142 944Q179 944 204.5 918.5Q230 893 230 856Q230 820 204.5 794.5Q179 769 142 769Q106 769 80.5 794.5Q55 820 55 856ZM73 700H212V0H73Z" glyph-name="Idotaccent" horiz-adv-x="285" unicode="&#304;" /><glyph d="M62 679Q62 706 83 726.5Q104 747 131 747Q158 747 178.5 726.5Q199 706 199 679Q199 652 178.5 632Q158 612 131 612Q104 612 83 632Q62 652 62 679ZM66 560H196V0H66Z" glyph-name="Idotaccent.smcp" horiz-adv-x="262" unicode="&#62339;" /><glyph d="M197 769H73L-19 942H147ZM73 700H212V0H73Z" glyph-name="Igrave" horiz-adv-x="285" unicode="&#204;" /><glyph d="M184 605H77L-3 730H148ZM66 560H196V0H66Z" glyph-name="Igrave.smcp" horiz-adv-x="262" unicode="&#62340;" /><glyph d="M-14 885H300V774H-14ZM73 700H212V0H73Z" glyph-name="Imacron" horiz-adv-x="285" unicode="&#298;" /><glyph d="M-1 716H264V621H-1ZM66 560H196V0H66Z" glyph-name="Imacron.smcp" horiz-adv-x="262" unicode="&#62489;" /><glyph d="M73 700H212V0H197Q177 -18 161.5 -41Q146 -64 146 -81Q146 -95 158.5 -104Q171 -113 188 -113Q207 -113 227 -108Q247 -103 261 -98L248 -175Q224 -185 199 -192Q174 -199 137 -199Q86 -199 54.5 -176.5Q23 -154 23 -110Q23 -73 52.5 -45Q82 -17 122 0H73Z" glyph-name="Iogonek" horiz-adv-x="285" unicode="&#302;" /><glyph d="M66 560H196V0H175Q128 -25 128 -56Q128 -72 140.5 -79Q153 -86 166 -86Q181 -86 193.5 -83.5Q206 -81 213 -79L211 -147Q208 -148 184.5 -154.5Q161 -161 126 -161Q78 -161 47 -140Q16 -119 16 -84Q16 -56 35.5 -33.5Q55 -11 97 0H66Z" glyph-name="Iogonek.smcp" horiz-adv-x="262" unicode="&#62342;" /><glyph d="M-29 765Q-29 779 -27 803Q-25 827 -15 850Q-5 873 16.5 890Q38 907 77 907Q95 907 112.5 901Q130 895 145 888Q160 881 172 875Q184 869 191 869Q213 869 213 898V904H314V897Q314 883 312 859.5Q310 836 300 813Q290 790 268.5 773Q247 756 208 756Q190 756 172.5 762Q155 768 140 775Q125 782 113 788Q101 794 94 794Q72 794 72 765V758H-29ZM73 700H212V0H73Z" glyph-name="Itilde" horiz-adv-x="285" unicode="&#296;" /><glyph d="M79 732Q91 732 104.5 728Q118 724 130 719Q142 714 152.5 710Q163 706 169 706Q182 706 182 723V728H270V709Q270 698 269 681.5Q268 665 260 648.5Q252 632 235 620.5Q218 609 186 609Q174 609 161 613Q148 617 135.5 622Q123 627 112.5 631Q102 635 96 635Q83 635 83 618V613H-5V627Q-5 638 -4 655.5Q-3 673 5 690Q13 707 30 719.5Q47 732 79 732ZM66 560H196V0H66Z" glyph-name="Itilde.smcp" horiz-adv-x="262" unicode="&#62343;" /><glyph d="M161 299V245Q161 188 192 152Q223 116 285 116Q347 116 378 152Q409 188 409 245V700H548V232Q548 181 531 136.5Q514 92 480.5 59Q447 26 397.5 7Q348 -12 283 -12Q218 -12 169 7Q120 26 87.5 59Q55 92 38.5 136.5Q22 181 22 232V299Z" glyph-name="J" horiz-adv-x="615" unicode="J" /><glyph d="M25 -15Q55 -15 64 -3Q73 9 73 42V700H212V6Q212 -63 179.5 -99Q147 -135 65 -135H-21V-15Z" glyph-name="J.alt" horiz-adv-x="285" unicode="&#58505;" /><glyph d="M153 259V205Q153 161 174.5 133Q196 105 241 105Q287 105 308 133Q329 161 329 205V560H459V187Q459 146 444.5 110Q430 74 402.5 47.5Q375 21 334 5.5Q293 -10 240 -10Q186 -10 145.5 5.5Q105 21 78 47.5Q51 74 37 110Q23 146 23 187V259Z" glyph-name="J.smcp" horiz-adv-x="520" unicode="&#62272;" /><glyph d="M215 942H362L464 769H328L288 846L250 769H114ZM161 299V245Q161 188 192 152Q223 116 285 116Q347 116 378 152Q409 188 409 245V700H548V232Q548 181 531 136.5Q514 92 480.5 59Q447 26 397.5 7Q348 -12 283 -12Q218 -12 169 7Q120 26 87.5 59Q55 92 38.5 136.5Q22 181 22 232V299Z" glyph-name="Jcircumflex" horiz-adv-x="615" unicode="&#308;" /><glyph d="M232 660 196 605H87L163 730H301L377 605H267ZM153 259V205Q153 161 174.5 133Q196 105 241 105Q287 105 308 133Q329 161 329 205V560H459V187Q459 146 444.5 110Q430 74 402.5 47.5Q375 21 334 5.5Q293 -10 240 -10Q186 -10 145.5 5.5Q105 21 78 47.5Q51 74 37 110Q23 146 23 187V259Z" glyph-name="Jcircumflex.smcp" horiz-adv-x="520" unicode="&#62344;" /><glyph d="M212 424H248L473 700H645L366 368L634 0H462L244 306H212V0H73V700H212Z" glyph-name="K" horiz-adv-x="635" unicode="K" /><glyph d="M196 345H227L386 560H542L335 294L533 0H376L226 234H196V0H66V560H196Z" glyph-name="K.smcp" horiz-adv-x="545" unicode="&#62273;" /><glyph d="M252 -117Q252 -85 274.5 -63Q297 -41 329 -41Q362 -41 385 -63Q408 -85 408 -117Q408 -126 404 -141Q400 -156 395 -164L337 -270H245L285 -179Q270 -169 261 -153Q252 -137 252 -117ZM212 424H248L473 700H645L366 368L634 0H462L244 306H212V0H73V700H212Z" glyph-name="Kcommaaccent" horiz-adv-x="635" unicode="&#310;" /><glyph d="M178 -113Q178 -83 199.5 -61.5Q221 -40 250 -40Q285 -40 305 -62Q325 -84 325 -113Q325 -127 319 -140.5Q313 -154 306 -165L254 -245H172L205 -168Q178 -146 178 -113ZM196 345H227L386 560H542L335 294L533 0H376L226 234H196V0H66V560H196Z" glyph-name="Kcommaaccent.smcp" horiz-adv-x="545" unicode="&#62345;" /><glyph d="M73 0V700H212V119H509V0Z" glyph-name="L" horiz-adv-x="521" unicode="L" /><glyph d="M66 0V560H196V112H431V0Z" glyph-name="L.smcp" horiz-adv-x="446" unicode="&#62274;" /><glyph d="M226 942H392L300 769H176ZM73 0V700H212V119H509V0Z" glyph-name="Lacute" horiz-adv-x="521" unicode="&#313;" /><glyph d="M164 730H315L235 605H128ZM66 0V560H196V112H431V0Z" glyph-name="Lacute.smcp" horiz-adv-x="446" unicode="&#62352;" /><glyph d="M323 636Q323 668 345.5 690Q368 712 400 712Q433 712 456 690Q479 668 479 636Q479 627 475 612Q471 597 466 589L408 483H316L356 574Q341 584 332 600Q323 616 323 636ZM73 0V700H212V119H509V0Z" glyph-name="Lcaron" horiz-adv-x="523" unicode="&#317;" /><glyph d="M264 496Q264 526 285.5 547.5Q307 569 336 569Q371 569 391 547Q411 525 411 496Q411 482 405 468.5Q399 455 392 444L340 364H258L291 441Q264 463 264 496ZM66 0V560H196V112H431V0Z" glyph-name="Lcaron.smcp" horiz-adv-x="448" unicode="&#62496;" /><glyph d="M194 -117Q194 -85 216.5 -63Q239 -41 271 -41Q304 -41 327 -63Q350 -85 350 -117Q350 -126 346 -141Q342 -156 337 -164L279 -270H187L227 -179Q212 -169 203 -153Q194 -137 194 -117ZM73 0V700H212V119H509V0Z" glyph-name="Lcommaaccent" horiz-adv-x="521" unicode="&#315;" /><glyph d="M168 -113Q168 -83 189.5 -61.5Q211 -40 240 -40Q275 -40 295 -62Q315 -84 315 -113Q315 -127 309 -140.5Q303 -154 296 -165L244 -245H162L195 -168Q168 -146 168 -113ZM66 0V560H196V112H431V0Z" glyph-name="Lcommaaccent.smcp" horiz-adv-x="446" unicode="&#62488;" /><glyph d="M309 355Q309 392 334.5 417.5Q360 443 396 443Q433 443 458.5 417.5Q484 392 484 355Q484 319 458.5 293.5Q433 268 396 268Q360 268 334.5 293.5Q309 319 309 355ZM73 0V700H212V119H509V0Z" glyph-name="Ldot" horiz-adv-x="522" unicode="&#319;" /><glyph d="M66 0V560H196V112H431V0ZM355 410Q389 410 413.5 386Q438 362 438 329Q438 295 413.5 271Q389 247 355 247Q321 247 296.5 271Q272 295 272 329Q272 362 296.5 386Q321 410 355 410Z" glyph-name="Ldot.smcp" horiz-adv-x="452" unicode="&#62501;" /><glyph d="M28 327 77 344V700H216V394L396 459V363L216 298V119H513V0H77V248L28 231Z" glyph-name="Lslash" horiz-adv-x="525" unicode="&#321;" /><glyph d="M17 274 72 292V560H202V335L336 380V270L202 225V112H437V0H72V182L17 164Z" glyph-name="Lslash.smcp" horiz-adv-x="452" unicode="&#62502;" /><glyph d="M346 150 208 495V0H73V700H269L422 303L578 700H765V0H627V495L493 150Z" glyph-name="M" horiz-adv-x="838" unicode="M" /><glyph d="M465 560H633V0H503V356L412 120H288L193 356V0H66V560H246L353 282Z" glyph-name="M.smcp" horiz-adv-x="699" unicode="&#62275;" /><glyph d="M210 0H73V700H256L492 234V700H629V0H460L210 486Z" glyph-name="N" horiz-adv-x="702" unicode="N" /><glyph d="M194 0H66V560H231L401 208V560H529V0H370L194 352Z" glyph-name="N.smcp" horiz-adv-x="595" unicode="&#62276;" /><glyph d="M342 941H508L416 768H292ZM210 0H73V700H256L492 234V700H629V0H460L210 486Z" glyph-name="Nacute" horiz-adv-x="702" unicode="&#323;" /><glyph d="M272 730H423L343 605H236ZM194 0H66V560H231L401 208V560H529V0H370L194 352Z" glyph-name="Nacute.smcp" horiz-adv-x="595" unicode="&#62353;" /><glyph d="M177 941H313L351 864L391 941H527L425 768H278ZM210 0H73V700H256L492 234V700H629V0H460L210 486Z" glyph-name="Ncaron" horiz-adv-x="702" unicode="&#327;" /><glyph d="M333 730H443L367 605H229L153 730H262L298 675ZM194 0H66V560H231L401 208V560H529V0H370L194 352Z" glyph-name="Ncaron.smcp" horiz-adv-x="595" unicode="&#62354;" /><glyph d="M280 -117Q280 -85 302.5 -63Q325 -41 357 -41Q390 -41 413 -63Q436 -85 436 -117Q436 -126 432 -141Q428 -156 423 -164L365 -270H273L313 -179Q298 -169 289 -153Q280 -137 280 -117ZM210 0H73V700H256L492 234V700H629V0H460L210 486Z" glyph-name="Ncommaaccent" horiz-adv-x="702" unicode="&#325;" /><glyph d="M213 -113Q213 -83 234.5 -61.5Q256 -40 285 -40Q320 -40 340 -62Q360 -84 360 -113Q360 -127 354 -140.5Q348 -154 341 -165L289 -245H207L240 -168Q213 -146 213 -113ZM194 0H66V560H231L401 208V560H529V0H370L194 352Z" glyph-name="Ncommaaccent.smcp" horiz-adv-x="595" unicode="&#62355;" /><glyph d="M179 765Q179 779 181 803Q183 827 193 850Q203 873 224.5 890Q246 907 285 907Q303 907 320.5 901Q338 895 353 888Q368 881 380 875Q392 869 399 869Q421 869 421 898V904H522V897Q522 883 520 859.5Q518 836 508 813Q498 790 476.5 773Q455 756 416 756Q398 756 380.5 762Q363 768 348 775Q333 782 321 788Q309 794 302 794Q280 794 280 765V758H179ZM210 0H73V700H256L492 234V700H629V0H460L210 486Z" glyph-name="Ntilde" horiz-adv-x="702" unicode="&#209;" /><glyph d="M245 732Q257 732 270.5 728Q284 724 296 719Q308 714 318.5 710Q329 706 335 706Q348 706 348 723V728H436V709Q436 698 435 681.5Q434 665 426 648.5Q418 632 401 620.5Q384 609 352 609Q340 609 327 613Q314 617 301.5 622Q289 627 278.5 631Q268 635 262 635Q249 635 249 618V613H161V627Q161 638 162 655.5Q163 673 171 690Q179 707 196 719.5Q213 732 245 732ZM194 0H66V560H231L401 208V560H529V0H370L194 352Z" glyph-name="Ntilde.smcp" horiz-adv-x="595" unicode="&#62356;" /><glyph d="M398 116Q447 116 488 133.5Q529 151 558 182.5Q587 214 603 257Q619 300 619 350Q619 400 603 443Q587 486 558 517.5Q529 549 488 566.5Q447 584 398 584Q348 584 307.5 566.5Q267 549 238 517.5Q209 486 193 443Q177 400 177 350Q177 300 193 257Q209 214 238 182.5Q267 151 307.5 133.5Q348 116 398 116ZM398 712Q474 712 541 685Q608 658 657.5 610Q707 562 735.5 495.5Q764 429 764 350Q764 271 735.5 204.5Q707 138 657.5 90Q608 42 541 15Q474 -12 398 -12Q322 -12 255 15Q188 42 138.5 90Q89 138 60.5 204.5Q32 271 32 350Q32 429 60.5 495.5Q89 562 138.5 610Q188 658 255 685Q322 712 398 712Z" glyph-name="O" horiz-adv-x="796" unicode="O" /><glyph d="M326 448Q291 448 262 435Q233 422 212.5 399.5Q192 377 180.5 346.5Q169 316 169 280Q169 244 180.5 213Q192 182 212.5 159.5Q233 137 262 124.5Q291 112 326 112Q361 112 390 124.5Q419 137 439.5 159.5Q460 182 471 213Q482 244 482 280Q482 316 471 346.5Q460 377 439.5 399.5Q419 422 390 435Q361 448 326 448ZM326 -10Q265 -10 211.5 11.5Q158 33 118 71.5Q78 110 55 163.5Q32 217 32 280Q32 343 55 396.5Q78 450 118 488.5Q158 527 211.5 548.5Q265 570 326 570Q387 570 440 548.5Q493 527 533 488.5Q573 450 596 396.5Q619 343 619 280Q619 217 596 163.5Q573 110 533 71.5Q493 33 440 11.5Q387 -10 326 -10Z" glyph-name="O.smcp" horiz-adv-x="651" unicode="&#62277;" /><glyph d="M176 350Q176 291 193 247.5Q210 204 240.5 175.5Q271 147 312 133Q353 119 401 119H494V580H401Q353 580 312 566Q271 552 240.5 523.5Q210 495 193 451.5Q176 408 176 350ZM1015 580H633V416H856V297H633V119H1015V0H397Q311 0 243.5 25.5Q176 51 129.5 97Q83 143 58.5 207.5Q34 272 34 350Q34 428 58.5 492.5Q83 557 129.5 603Q176 649 243.5 674.5Q311 700 397 700H1015Z" glyph-name="OE" horiz-adv-x="1050" unicode="&#338;" /><glyph d="M167 280Q167 237 180 205.5Q193 174 214.5 153Q236 132 264.5 122Q293 112 324 112H398V447H324Q293 447 264.5 437Q236 427 214.5 406Q193 385 180 353.5Q167 322 167 280ZM829 447H528V341H694V230H528V112H829V0H326Q257 0 202.5 20.5Q148 41 110.5 78Q73 115 53.5 166.5Q34 218 34 280Q34 342 53.5 393.5Q73 445 110.5 482Q148 519 202.5 539.5Q257 560 326 560H829Z" glyph-name="OE.smcp" horiz-adv-x="869" unicode="&#62295;" /><glyph d="M405 942H571L479 769H355ZM398 116Q447 116 488 133.5Q529 151 558 182.5Q587 214 603 257Q619 300 619 350Q619 400 603 443Q587 486 558 517.5Q529 549 488 566.5Q447 584 398 584Q348 584 307.5 566.5Q267 549 238 517.5Q209 486 193 443Q177 400 177 350Q177 300 193 257Q209 214 238 182.5Q267 151 307.5 133.5Q348 116 398 116ZM398 712Q474 712 541 685Q608 658 657.5 610Q707 562 735.5 495.5Q764 429 764 350Q764 271 735.5 204.5Q707 138 657.5 90Q608 42 541 15Q474 -12 398 -12Q322 -12 255 15Q188 42 138.5 90Q89 138 60.5 204.5Q32 271 32 350Q32 429 60.5 495.5Q89 562 138.5 610Q188 658 255 685Q322 712 398 712Z" glyph-name="Oacute" horiz-adv-x="796" unicode="&#211;" /><glyph d="M312 730H463L383 605H276ZM326 448Q291 448 262 435Q233 422 212.5 399.5Q192 377 180.5 346.5Q169 316 169 280Q169 244 180.5 213Q192 182 212.5 159.5Q233 137 262 124.5Q291 112 326 112Q361 112 390 124.5Q419 137 439.5 159.5Q460 182 471 213Q482 244 482 280Q482 316 471 346.5Q460 377 439.5 399.5Q419 422 390 435Q361 448 326 448ZM326 -10Q265 -10 211.5 11.5Q158 33 118 71.5Q78 110 55 163.5Q32 217 32 280Q32 343 55 396.5Q78 450 118 488.5Q158 527 211.5 548.5Q265 570 326 570Q387 570 440 548.5Q493 527 533 488.5Q573 450 596 396.5Q619 343 619 280Q619 217 596 163.5Q573 110 533 71.5Q493 33 440 11.5Q387 -10 326 -10Z" glyph-name="Oacute.smcp" horiz-adv-x="651" unicode="&#62357;" /><glyph d="M434 947H539V896Q539 862 527.5 836.5Q516 811 496.5 794.5Q477 778 451 769.5Q425 761 395 761Q365 761 339 769.5Q313 778 293.5 794.5Q274 811 262.5 836.5Q251 862 251 896V947H355V895Q355 878 365 867Q375 856 395 856Q415 856 424.5 867Q434 878 434 895ZM398 116Q447 116 488 133.5Q529 151 558 182.5Q587 214 603 257Q619 300 619 350Q619 400 603 443Q587 486 558 517.5Q529 549 488 566.5Q447 584 398 584Q348 584 307.5 566.5Q267 549 238 517.5Q209 486 193 443Q177 400 177 350Q177 300 193 257Q209 214 238 182.5Q267 151 307.5 133.5Q348 116 398 116ZM398 712Q474 712 541 685Q608 658 657.5 610Q707 562 735.5 495.5Q764 429 764 350Q764 271 735.5 204.5Q707 138 657.5 90Q608 42 541 15Q474 -12 398 -12Q322 -12 255 15Q188 42 138.5 90Q89 138 60.5 204.5Q32 271 32 350Q32 429 60.5 495.5Q89 562 138.5 610Q188 658 255 685Q322 712 398 712Z" glyph-name="Obreve" horiz-adv-x="796" unicode="&#334;" /><glyph d="M328 698Q343 698 351 703Q359 708 359 725V733H452V717Q452 660 418.5 633.5Q385 607 328 607Q271 607 237.5 633.5Q204 660 204 717V733H297V725Q297 708 305 703Q313 698 328 698ZM326 448Q291 448 262 435Q233 422 212.5 399.5Q192 377 180.5 346.5Q169 316 169 280Q169 244 180.5 213Q192 182 212.5 159.5Q233 137 262 124.5Q291 112 326 112Q361 112 390 124.5Q419 137 439.5 159.5Q460 182 471 213Q482 244 482 280Q482 316 471 346.5Q460 377 439.5 399.5Q419 422 390 435Q361 448 326 448ZM326 -10Q265 -10 211.5 11.5Q158 33 118 71.5Q78 110 55 163.5Q32 217 32 280Q32 343 55 396.5Q78 450 118 488.5Q158 527 211.5 548.5Q265 570 326 570Q387 570 440 548.5Q493 527 533 488.5Q573 450 596 396.5Q619 343 619 280Q619 217 596 163.5Q573 110 533 71.5Q493 33 440 11.5Q387 -10 326 -10Z" glyph-name="Obreve.smcp" horiz-adv-x="651" unicode="&#62534;" /><glyph d="M324 942H471L573 769H437L397 846L359 769H223ZM398 116Q447 116 488 133.5Q529 151 558 182.5Q587 214 603 257Q619 300 619 350Q619 400 603 443Q587 486 558 517.5Q529 549 488 566.5Q447 584 398 584Q348 584 307.5 566.5Q267 549 238 517.5Q209 486 193 443Q177 400 177 350Q177 300 193 257Q209 214 238 182.5Q267 151 307.5 133.5Q348 116 398 116ZM398 712Q474 712 541 685Q608 658 657.5 610Q707 562 735.5 495.5Q764 429 764 350Q764 271 735.5 204.5Q707 138 657.5 90Q608 42 541 15Q474 -12 398 -12Q322 -12 255 15Q188 42 138.5 90Q89 138 60.5 204.5Q32 271 32 350Q32 429 60.5 495.5Q89 562 138.5 610Q188 658 255 685Q322 712 398 712Z" glyph-name="Ocircumflex" horiz-adv-x="796" unicode="&#212;" /><glyph d="M327 660 291 605H182L258 730H396L472 605H362ZM326 448Q291 448 262 435Q233 422 212.5 399.5Q192 377 180.5 346.5Q169 316 169 280Q169 244 180.5 213Q192 182 212.5 159.5Q233 137 262 124.5Q291 112 326 112Q361 112 390 124.5Q419 137 439.5 159.5Q460 182 471 213Q482 244 482 280Q482 316 471 346.5Q460 377 439.5 399.5Q419 422 390 435Q361 448 326 448ZM326 -10Q265 -10 211.5 11.5Q158 33 118 71.5Q78 110 55 163.5Q32 217 32 280Q32 343 55 396.5Q78 450 118 488.5Q158 527 211.5 548.5Q265 570 326 570Q387 570 440 548.5Q493 527 533 488.5Q573 450 596 396.5Q619 343 619 280Q619 217 596 163.5Q573 110 533 71.5Q493 33 440 11.5Q387 -10 326 -10Z" glyph-name="Ocircumflex.smcp" horiz-adv-x="651" unicode="&#62535;" /><glyph d="M415 826Q415 858 438 881Q461 904 493 904Q525 904 548.5 881Q572 858 572 826Q572 794 548.5 771Q525 748 493 748Q461 748 438 771Q415 794 415 826ZM224 826Q224 842 230 856Q236 870 246.5 880.5Q257 891 271.5 897.5Q286 904 302 904Q334 904 357.5 881Q381 858 381 826Q381 794 357.5 771Q334 748 302 748Q286 748 271.5 754.5Q257 761 246.5 771.5Q236 782 230 796Q224 810 224 826ZM398 116Q447 116 488 133.5Q529 151 558 182.5Q587 214 603 257Q619 300 619 350Q619 400 603 443Q587 486 558 517.5Q529 549 488 566.5Q447 584 398 584Q348 584 307.5 566.5Q267 549 238 517.5Q209 486 193 443Q177 400 177 350Q177 300 193 257Q209 214 238 182.5Q267 151 307.5 133.5Q348 116 398 116ZM398 712Q474 712 541 685Q608 658 657.5 610Q707 562 735.5 495.5Q764 429 764 350Q764 271 735.5 204.5Q707 138 657.5 90Q608 42 541 15Q474 -12 398 -12Q322 -12 255 15Q188 42 138.5 90Q89 138 60.5 204.5Q32 271 32 350Q32 429 60.5 495.5Q89 562 138.5 610Q188 658 255 685Q322 712 398 712Z" glyph-name="Odieresis" horiz-adv-x="796" unicode="&#214;" /><glyph d="M335 679Q335 706 356 726.5Q377 747 405 747Q418 747 430.5 741.5Q443 736 452.5 726.5Q462 717 467.5 704.5Q473 692 473 679Q473 652 452 632Q431 612 405 612Q377 612 356 632Q335 652 335 679ZM176 679Q176 692 182 704.5Q188 717 197.5 726.5Q207 736 219.5 741.5Q232 747 245 747Q272 747 293 726.5Q314 706 314 679Q314 652 293 632Q272 612 245 612Q232 612 219.5 617.5Q207 623 197.5 632Q188 641 182 653Q176 665 176 679ZM326 448Q291 448 262 435Q233 422 212.5 399.5Q192 377 180.5 346.5Q169 316 169 280Q169 244 180.5 213Q192 182 212.5 159.5Q233 137 262 124.5Q291 112 326 112Q361 112 390 124.5Q419 137 439.5 159.5Q460 182 471 213Q482 244 482 280Q482 316 471 346.5Q460 377 439.5 399.5Q419 422 390 435Q361 448 326 448ZM326 -10Q265 -10 211.5 11.5Q158 33 118 71.5Q78 110 55 163.5Q32 217 32 280Q32 343 55 396.5Q78 450 118 488.5Q158 527 211.5 548.5Q265 570 326 570Q387 570 440 548.5Q493 527 533 488.5Q573 450 596 396.5Q619 343 619 280Q619 217 596 163.5Q573 110 533 71.5Q493 33 440 11.5Q387 -10 326 -10Z" glyph-name="Odieresis.smcp" horiz-adv-x="651" unicode="&#62536;" /><glyph d="M450 769H326L234 942H400ZM398 116Q447 116 488 133.5Q529 151 558 182.5Q587 214 603 257Q619 300 619 350Q619 400 603 443Q587 486 558 517.5Q529 549 488 566.5Q447 584 398 584Q348 584 307.5 566.5Q267 549 238 517.5Q209 486 193 443Q177 400 177 350Q177 300 193 257Q209 214 238 182.5Q267 151 307.5 133.5Q348 116 398 116ZM398 712Q474 712 541 685Q608 658 657.5 610Q707 562 735.5 495.5Q764 429 764 350Q764 271 735.5 204.5Q707 138 657.5 90Q608 42 541 15Q474 -12 398 -12Q322 -12 255 15Q188 42 138.5 90Q89 138 60.5 204.5Q32 271 32 350Q32 429 60.5 495.5Q89 562 138.5 610Q188 658 255 685Q322 712 398 712Z" glyph-name="Ograve" horiz-adv-x="796" unicode="&#210;" /><glyph d="M373 605H266L186 730H337ZM326 448Q291 448 262 435Q233 422 212.5 399.5Q192 377 180.5 346.5Q169 316 169 280Q169 244 180.5 213Q192 182 212.5 159.5Q233 137 262 124.5Q291 112 326 112Q361 112 390 124.5Q419 137 439.5 159.5Q460 182 471 213Q482 244 482 280Q482 316 471 346.5Q460 377 439.5 399.5Q419 422 390 435Q361 448 326 448ZM326 -10Q265 -10 211.5 11.5Q158 33 118 71.5Q78 110 55 163.5Q32 217 32 280Q32 343 55 396.5Q78 450 118 488.5Q158 527 211.5 548.5Q265 570 326 570Q387 570 440 548.5Q493 527 533 488.5Q573 450 596 396.5Q619 343 619 280Q619 217 596 163.5Q573 110 533 71.5Q493 33 440 11.5Q387 -10 326 -10Z" glyph-name="Ograve.smcp" horiz-adv-x="651" unicode="&#62358;" /><glyph d="M463 941H629L538 768H413ZM262 941H429L336 768H212ZM398 116Q447 116 488 133.5Q529 151 558 182.5Q587 214 603 257Q619 300 619 350Q619 400 603 443Q587 486 558 517.5Q529 549 488 566.5Q447 584 398 584Q348 584 307.5 566.5Q267 549 238 517.5Q209 486 193 443Q177 400 177 350Q177 300 193 257Q209 214 238 182.5Q267 151 307.5 133.5Q348 116 398 116ZM398 712Q474 712 541 685Q608 658 657.5 610Q707 562 735.5 495.5Q764 429 764 350Q764 271 735.5 204.5Q707 138 657.5 90Q608 42 541 15Q474 -12 398 -12Q322 -12 255 15Q188 42 138.5 90Q89 138 60.5 204.5Q32 271 32 350Q32 429 60.5 495.5Q89 562 138.5 610Q188 658 255 685Q322 712 398 712Z" glyph-name="Ohungarumlaut" horiz-adv-x="796" unicode="&#336;" /><glyph d="M384 730H535L455 605H348ZM204 730H355L275 605H168ZM326 448Q291 448 262 435Q233 422 212.5 399.5Q192 377 180.5 346.5Q169 316 169 280Q169 244 180.5 213Q192 182 212.5 159.5Q233 137 262 124.5Q291 112 326 112Q361 112 390 124.5Q419 137 439.5 159.5Q460 182 471 213Q482 244 482 280Q482 316 471 346.5Q460 377 439.5 399.5Q419 422 390 435Q361 448 326 448ZM326 -10Q265 -10 211.5 11.5Q158 33 118 71.5Q78 110 55 163.5Q32 217 32 280Q32 343 55 396.5Q78 450 118 488.5Q158 527 211.5 548.5Q265 570 326 570Q387 570 440 548.5Q493 527 533 488.5Q573 450 596 396.5Q619 343 619 280Q619 217 596 163.5Q573 110 533 71.5Q493 33 440 11.5Q387 -10 326 -10Z" glyph-name="Ohungarumlaut.smcp" horiz-adv-x="651" unicode="&#62485;" /><glyph d="M240 909H554V798H240ZM398 116Q447 116 488 133.5Q529 151 558 182.5Q587 214 603 257Q619 300 619 350Q619 400 603 443Q587 486 558 517.5Q529 549 488 566.5Q447 584 398 584Q348 584 307.5 566.5Q267 549 238 517.5Q209 486 193 443Q177 400 177 350Q177 300 193 257Q209 214 238 182.5Q267 151 307.5 133.5Q348 116 398 116ZM398 712Q474 712 541 685Q608 658 657.5 610Q707 562 735.5 495.5Q764 429 764 350Q764 271 735.5 204.5Q707 138 657.5 90Q608 42 541 15Q474 -12 398 -12Q322 -12 255 15Q188 42 138.5 90Q89 138 60.5 204.5Q32 271 32 350Q32 429 60.5 495.5Q89 562 138.5 610Q188 658 255 685Q322 712 398 712Z" glyph-name="Omacron" horiz-adv-x="796" unicode="&#332;" /><glyph d="M193 716H458V621H193ZM326 448Q291 448 262 435Q233 422 212.5 399.5Q192 377 180.5 346.5Q169 316 169 280Q169 244 180.5 213Q192 182 212.5 159.5Q233 137 262 124.5Q291 112 326 112Q361 112 390 124.5Q419 137 439.5 159.5Q460 182 471 213Q482 244 482 280Q482 316 471 346.5Q460 377 439.5 399.5Q419 422 390 435Q361 448 326 448ZM326 -10Q265 -10 211.5 11.5Q158 33 118 71.5Q78 110 55 163.5Q32 217 32 280Q32 343 55 396.5Q78 450 118 488.5Q158 527 211.5 548.5Q265 570 326 570Q387 570 440 548.5Q493 527 533 488.5Q573 450 596 396.5Q619 343 619 280Q619 217 596 163.5Q573 110 533 71.5Q493 33 440 11.5Q387 -10 326 -10Z" glyph-name="Omacron.smcp" horiz-adv-x="651" unicode="&#62537;" /><glyph d="M360 712Q429 712 487.5 691.5Q546 671 589.5 633.5Q633 596 657.5 543.5Q682 491 682 428Q682 372 666 329.5Q650 287 624.5 257Q599 227 566.5 209Q534 191 502 184V118H637V0H384V259Q413 264 440 276Q467 288 487.5 308.5Q508 329 520.5 358Q533 387 533 426Q533 467 518 497Q503 527 479 546.5Q455 566 424 575.5Q393 585 360 585Q327 585 296 575.5Q265 566 241 546.5Q217 527 202 497Q187 467 187 426Q187 387 199.5 358Q212 329 232.5 308.5Q253 288 280 276Q307 264 336 259V0H83V118H218V184Q186 191 153.5 209Q121 227 95.5 257Q70 287 54 329.5Q38 372 38 428Q38 491 62.5 543.5Q87 596 130.5 633.5Q174 671 232.5 691.5Q291 712 360 712Z" glyph-name="Omega" horiz-adv-x="720" unicode="&#937;" /><glyph d="M398 116Q447 116 488 133.5Q529 151 558 182.5Q587 214 603 257Q619 300 619 350Q619 428 582 485L290 142Q337 116 398 116ZM177 350Q177 272 214 213L507 557Q483 570 456 577Q429 584 398 584Q348 584 307.5 566.5Q267 549 238 517.5Q209 486 193 443Q177 400 177 350ZM398 712Q452 712 501.5 698.5Q551 685 593 659L639 712H775L673 592Q715 545 739.5 483.5Q764 422 764 350Q764 271 735.5 204.5Q707 138 657.5 90Q608 42 541 15Q474 -12 398 -12Q344 -12 295 1.5Q246 15 203 40L158 -13H22L123 106Q80 154 56 215.5Q32 277 32 350Q32 429 60.5 495.5Q89 562 138.5 610Q188 658 255 685Q322 712 398 712Z" glyph-name="Oslash" horiz-adv-x="796" unicode="&#216;" /><glyph d="M482 280Q482 329 462 367L258 126Q289 112 326 112Q361 112 390 124.5Q419 137 439.5 159.5Q460 182 471 213Q482 244 482 280ZM326 448Q291 448 262 435Q233 422 212.5 399.5Q192 377 180.5 346.5Q169 316 169 280Q169 228 190 191L393 433Q363 448 326 448ZM326 -10Q284 -10 246.5 0Q209 10 176 28L144 -10H21L102 87Q69 125 50.5 174Q32 223 32 280Q32 343 55 396.5Q78 450 118 488.5Q158 527 211.5 548.5Q265 570 326 570Q367 570 405 560Q443 550 475 531L508 570H632L549 471Q582 433 600.5 385Q619 337 619 280Q619 217 596 163.5Q573 110 533 71.5Q493 33 440 11.5Q387 -10 326 -10Z" glyph-name="Oslash.smcp" horiz-adv-x="651" unicode="&#62500;" /><glyph d="M226 765Q226 779 228 803Q230 827 240 850Q250 873 271.5 890Q293 907 332 907Q350 907 367.5 901Q385 895 400 888Q415 881 427 875Q439 869 446 869Q468 869 468 898V904H569V897Q569 883 567 859.5Q565 836 555 813Q545 790 523.5 773Q502 756 463 756Q445 756 427.5 762Q410 768 395 775Q380 782 368 788Q356 794 349 794Q327 794 327 765V758H226ZM398 116Q447 116 488 133.5Q529 151 558 182.5Q587 214 603 257Q619 300 619 350Q619 400 603 443Q587 486 558 517.5Q529 549 488 566.5Q447 584 398 584Q348 584 307.5 566.5Q267 549 238 517.5Q209 486 193 443Q177 400 177 350Q177 300 193 257Q209 214 238 182.5Q267 151 307.5 133.5Q348 116 398 116ZM398 712Q474 712 541 685Q608 658 657.5 610Q707 562 735.5 495.5Q764 429 764 350Q764 271 735.5 204.5Q707 138 657.5 90Q608 42 541 15Q474 -12 398 -12Q322 -12 255 15Q188 42 138.5 90Q89 138 60.5 204.5Q32 271 32 350Q32 429 60.5 495.5Q89 562 138.5 610Q188 658 255 685Q322 712 398 712Z" glyph-name="Otilde" horiz-adv-x="796" unicode="&#213;" /><glyph d="M273 732Q285 732 298.5 728Q312 724 324 719Q336 714 346.5 710Q357 706 363 706Q376 706 376 723V728H464V709Q464 698 463 681.5Q462 665 454 648.5Q446 632 429 620.5Q412 609 380 609Q368 609 355 613Q342 617 329.5 622Q317 627 306.5 631Q296 635 290 635Q277 635 277 618V613H189V627Q189 638 190 655.5Q191 673 199 690Q207 707 224 719.5Q241 732 273 732ZM326 448Q291 448 262 435Q233 422 212.5 399.5Q192 377 180.5 346.5Q169 316 169 280Q169 244 180.5 213Q192 182 212.5 159.5Q233 137 262 124.5Q291 112 326 112Q361 112 390 124.5Q419 137 439.5 159.5Q460 182 471 213Q482 244 482 280Q482 316 471 346.5Q460 377 439.5 399.5Q419 422 390 435Q361 448 326 448ZM326 -10Q265 -10 211.5 11.5Q158 33 118 71.5Q78 110 55 163.5Q32 217 32 280Q32 343 55 396.5Q78 450 118 488.5Q158 527 211.5 548.5Q265 570 326 570Q387 570 440 548.5Q493 527 533 488.5Q573 450 596 396.5Q619 343 619 280Q619 217 596 163.5Q573 110 533 71.5Q493 33 440 11.5Q387 -10 326 -10Z" glyph-name="Otilde.smcp" horiz-adv-x="651" unicode="&#62359;" /><glyph d="M211 580V356H289Q346 356 383 383.5Q420 411 420 470Q420 529 383 554.5Q346 580 289 580ZM211 0H73V700H310Q372 700 419 682Q466 664 498 632.5Q530 601 546 559.5Q562 518 562 470Q562 423 546 380.5Q530 338 498 306Q466 274 419 255.5Q372 237 310 237H211Z" glyph-name="P" horiz-adv-x="582" unicode="P" /><glyph d="M195 289H240Q284 289 312 307Q340 325 340 370Q340 392 332.5 407Q325 422 311.5 431Q298 440 280 443.5Q262 447 240 447H195ZM473 370Q473 331 460 296Q447 261 420.5 234.5Q394 208 355 192.5Q316 177 265 177H195V0H66V560H265Q316 560 355 545Q394 530 420.5 504.5Q447 479 460 444Q473 409 473 370Z" glyph-name="P.smcp" horiz-adv-x="496" unicode="&#62278;" /><glyph d="M398 116Q404 116 410.5 116Q417 116 423 117L363 217L480 288L549 174Q582 206 600.5 251Q619 296 619 350Q619 400 603 443Q587 486 558 517.5Q529 549 488 566.5Q447 584 398 584Q348 584 307.5 566.5Q267 549 238 517.5Q209 486 193 443Q177 400 177 350Q177 300 193 257Q209 214 238 182.5Q267 151 307.5 133.5Q348 116 398 116ZM398 712Q474 712 541 685Q608 658 657.5 610Q707 562 735.5 495.5Q764 429 764 350Q764 256 725 181.5Q686 107 620 59L636 33Q648 13 665 4.5Q682 -4 717 -4Q728 -4 737.5 -4Q747 -4 754 -3Q762 -2 767 -1V-123Q748 -125 730 -126Q714 -127 697 -127.5Q680 -128 666 -128Q637 -128 615 -121.5Q593 -115 574.5 -102Q556 -89 540 -69Q524 -49 507 -21L494 0Q447 -12 398 -12Q322 -12 255 15Q188 42 138.5 90Q89 138 60.5 204.5Q32 271 32 350Q32 429 60.5 495.5Q89 562 138.5 610Q188 658 255 685Q322 712 398 712Z" glyph-name="Q" horiz-adv-x="796" unicode="Q" /><glyph d="M326 448Q291 448 262 435Q233 422 212.5 399.5Q192 377 180.5 346.5Q169 316 169 280Q169 244 180.5 213Q192 182 212.5 159.5Q233 137 262 124.5Q291 112 326 112Q361 112 390 124.5Q419 137 439.5 159.5Q460 182 471 213Q482 244 482 280Q482 316 471 346.5Q460 377 439.5 399.5Q419 422 390 435Q361 448 326 448ZM326 -10Q265 -10 211.5 11.5Q158 33 118 71.5Q78 110 55 163.5Q32 217 32 280Q32 343 55 396.5Q78 450 118 488.5Q158 527 211.5 548.5Q265 570 326 570Q387 570 440 548.5Q493 527 533 488.5Q573 450 596 396.5Q619 343 619 280Q619 210 592 153Q565 96 517 57L527 43Q541 22 556 17Q571 12 594 12Q602 12 609.5 12Q617 12 622 13Q628 14 634 15V-100Q617 -102 600 -103Q586 -104 569.5 -104.5Q553 -105 539 -105Q463 -105 419 -35L398 -1Q363 -10 326 -10Z" glyph-name="Q.smcp" horiz-adv-x="651" unicode="&#62279;" /><glyph d="M440 486Q440 533 408 556.5Q376 580 318 580H212V390H318Q376 390 408 415.5Q440 441 440 486ZM310 269H212V0H73V700H336Q393 700 438.5 684Q484 668 515 639.5Q546 611 562.5 572Q579 533 579 487Q579 462 573 435Q567 408 552 382Q537 356 511.5 333.5Q486 311 446 295L625 0H465Z" glyph-name="R" horiz-adv-x="630" unicode="R" /><glyph d="M354 383Q354 447 270 447H196V316H270Q313 316 333.5 334.5Q354 353 354 383ZM260 202H196V0H66V560H287Q333 560 370 546.5Q407 533 433.5 509.5Q460 486 474 454Q488 422 488 385Q488 363 483 341Q478 319 466 298Q454 277 434 258.5Q414 240 384 227L518 0H371Z" glyph-name="R.smcp" horiz-adv-x="535" unicode="&#62280;" /><glyph d="M291 941H457L365 768H241ZM440 486Q440 533 408 556.5Q376 580 318 580H212V390H318Q376 390 408 415.5Q440 441 440 486ZM310 269H212V0H73V700H336Q393 700 438.5 684Q484 668 515 639.5Q546 611 562.5 572Q579 533 579 487Q579 462 573 435Q567 408 552 382Q537 356 511.5 333.5Q486 311 446 295L625 0H465Z" glyph-name="Racute" horiz-adv-x="630" unicode="&#340;" /><glyph d="M248 730H399L319 605H212ZM354 383Q354 447 270 447H196V316H270Q313 316 333.5 334.5Q354 353 354 383ZM260 202H196V0H66V560H287Q333 560 370 546.5Q407 533 433.5 509.5Q460 486 474 454Q488 422 488 385Q488 363 483 341Q478 319 466 298Q454 277 434 258.5Q414 240 384 227L518 0H371Z" glyph-name="Racute.smcp" horiz-adv-x="535" unicode="&#62360;" /><glyph d="M131 941H267L305 864L345 941H481L379 768H232ZM440 486Q440 533 408 556.5Q376 580 318 580H212V390H318Q376 390 408 415.5Q440 441 440 486ZM310 269H212V0H73V700H336Q393 700 438.5 684Q484 668 515 639.5Q546 611 562.5 572Q579 533 579 487Q579 462 573 435Q567 408 552 382Q537 356 511.5 333.5Q486 311 446 295L625 0H465Z" glyph-name="Rcaron" horiz-adv-x="630" unicode="&#344;" /><glyph d="M304 730H414L338 605H200L124 730H233L269 675ZM354 383Q354 447 270 447H196V316H270Q313 316 333.5 334.5Q354 353 354 383ZM260 202H196V0H66V560H287Q333 560 370 546.5Q407 533 433.5 509.5Q460 486 474 454Q488 422 488 385Q488 363 483 341Q478 319 466 298Q454 277 434 258.5Q414 240 384 227L518 0H371Z" glyph-name="Rcaron.smcp" horiz-adv-x="535" unicode="&#62361;" /><glyph d="M227 -117Q227 -85 249.5 -63Q272 -41 304 -41Q337 -41 360 -63Q383 -85 383 -117Q383 -126 379 -141Q375 -156 370 -164L312 -270H220L260 -179Q245 -169 236 -153Q227 -137 227 -117ZM440 486Q440 533 408 556.5Q376 580 318 580H212V390H318Q376 390 408 415.5Q440 441 440 486ZM310 269H212V0H73V700H336Q393 700 438.5 684Q484 668 515 639.5Q546 611 562.5 572Q579 533 579 487Q579 462 573 435Q567 408 552 382Q537 356 511.5 333.5Q486 311 446 295L625 0H465Z" glyph-name="Rcommaaccent" horiz-adv-x="630" unicode="&#342;" /><glyph d="M201 -113Q201 -83 222.5 -61.5Q244 -40 273 -40Q308 -40 328 -62Q348 -84 348 -113Q348 -127 342 -140.5Q336 -154 329 -165L277 -245H195L228 -168Q201 -146 201 -113ZM354 383Q354 447 270 447H196V316H270Q313 316 333.5 334.5Q354 353 354 383ZM260 202H196V0H66V560H287Q333 560 370 546.5Q407 533 433.5 509.5Q460 486 474 454Q488 422 488 385Q488 363 483 341Q478 319 466 298Q454 277 434 258.5Q414 240 384 227L518 0H371Z" glyph-name="Rcommaaccent.smcp" horiz-adv-x="535" unicode="&#62464;" /><glyph d="M433 514Q401 546 361.5 566Q322 586 285 586Q250 586 223.5 569Q197 552 197 520Q197 496 214 476.5Q231 457 273 437L331 410Q373 390 406 369Q439 348 462 322.5Q485 297 497 265.5Q509 234 509 195Q509 156 492.5 118.5Q476 81 445 52Q414 23 369 5.5Q324 -12 266 -12Q186 -12 125.5 16.5Q65 45 15 93L92 197Q131 157 177 135.5Q223 114 263 114Q308 114 334 136Q360 158 360 190Q360 226 330.5 249.5Q301 273 250 296L201 319Q130 352 89 400.5Q48 449 48 515Q48 561 67 597.5Q86 634 118.5 659.5Q151 685 193 698.5Q235 712 282 712Q343 712 402.5 685Q462 658 513 614Z" glyph-name="S" horiz-adv-x="544" unicode="S" /><glyph d="M371 398Q342 429 307 442Q272 455 244 455Q212 455 198.5 441.5Q185 428 185 413Q185 398 194 385Q203 372 232 359L297 330Q376 295 407.5 255Q439 215 439 160Q439 128 426 97.5Q413 67 387 43Q361 19 322.5 4.5Q284 -10 234 -10Q194 -10 160.5 -2Q127 6 100 18Q73 30 52.5 44Q32 58 20 70L93 170Q105 158 121 146Q137 134 156 125Q175 116 195.5 110.5Q216 105 236 105Q266 105 282.5 119.5Q299 134 299 154Q299 172 282.5 185.5Q266 199 232 214L167 242Q102 270 73.5 311.5Q45 353 45 404Q45 440 61 470Q77 500 104 522.5Q131 545 167.5 557.5Q204 570 245 570Q298 570 350.5 549.5Q403 529 443 487Z" glyph-name="S.smcp" horiz-adv-x="475" unicode="&#62281;" /><glyph d="M283 941H449L357 768H233ZM433 514Q401 546 361.5 566Q322 586 285 586Q250 586 223.5 569Q197 552 197 520Q197 496 214 476.5Q231 457 273 437L331 410Q373 390 406 369Q439 348 462 322.5Q485 297 497 265.5Q509 234 509 195Q509 156 492.5 118.5Q476 81 445 52Q414 23 369 5.5Q324 -12 266 -12Q186 -12 125.5 16.5Q65 45 15 93L92 197Q131 157 177 135.5Q223 114 263 114Q308 114 334 136Q360 158 360 190Q360 226 330.5 249.5Q301 273 250 296L201 319Q130 352 89 400.5Q48 449 48 515Q48 561 67 597.5Q86 634 118.5 659.5Q151 685 193 698.5Q235 712 282 712Q343 712 402.5 685Q462 658 513 614Z" glyph-name="Sacute" horiz-adv-x="544" unicode="&#346;" /><glyph d="M222 730H373L293 605H186ZM371 398Q342 429 307 442Q272 455 244 455Q212 455 198.5 441.5Q185 428 185 413Q185 398 194 385Q203 372 232 359L297 330Q376 295 407.5 255Q439 215 439 160Q439 128 426 97.5Q413 67 387 43Q361 19 322.5 4.5Q284 -10 234 -10Q194 -10 160.5 -2Q127 6 100 18Q73 30 52.5 44Q32 58 20 70L93 170Q105 158 121 146Q137 134 156 125Q175 116 195.5 110.5Q216 105 236 105Q266 105 282.5 119.5Q299 134 299 154Q299 172 282.5 185.5Q266 199 232 214L167 242Q102 270 73.5 311.5Q45 353 45 404Q45 440 61 470Q77 500 104 522.5Q131 545 167.5 557.5Q204 570 245 570Q298 570 350.5 549.5Q403 529 443 487Z" glyph-name="Sacute.smcp" horiz-adv-x="475" unicode="&#62465;" /><glyph d="M93 942H229L267 865L307 942H443L341 769H194ZM433 514Q401 546 361.5 566Q322 586 285 586Q250 586 223.5 569Q197 552 197 520Q197 496 214 476.5Q231 457 273 437L331 410Q373 390 406 369Q439 348 462 322.5Q485 297 497 265.5Q509 234 509 195Q509 156 492.5 118.5Q476 81 445 52Q414 23 369 5.5Q324 -12 266 -12Q186 -12 125.5 16.5Q65 45 15 93L92 197Q131 157 177 135.5Q223 114 263 114Q308 114 334 136Q360 158 360 190Q360 226 330.5 249.5Q301 273 250 296L201 319Q130 352 89 400.5Q48 449 48 515Q48 561 67 597.5Q86 634 118.5 659.5Q151 685 193 698.5Q235 712 282 712Q343 712 402.5 685Q462 658 513 614Z" glyph-name="Scaron" horiz-adv-x="544" unicode="&#352;" /><glyph d="M270 730H380L304 605H166L90 730H199L235 675ZM371 398Q342 429 307 442Q272 455 244 455Q212 455 198.5 441.5Q185 428 185 413Q185 398 194 385Q203 372 232 359L297 330Q376 295 407.5 255Q439 215 439 160Q439 128 426 97.5Q413 67 387 43Q361 19 322.5 4.5Q284 -10 234 -10Q194 -10 160.5 -2Q127 6 100 18Q73 30 52.5 44Q32 58 20 70L93 170Q105 158 121 146Q137 134 156 125Q175 116 195.5 110.5Q216 105 236 105Q266 105 282.5 119.5Q299 134 299 154Q299 172 282.5 185.5Q266 199 232 214L167 242Q102 270 73.5 311.5Q45 353 45 404Q45 440 61 470Q77 500 104 522.5Q131 545 167.5 557.5Q204 570 245 570Q298 570 350.5 549.5Q403 529 443 487Z" glyph-name="Scaron.smcp" horiz-adv-x="475" unicode="&#62466;" /><glyph d="M187 -3Q136 8 94 33Q52 58 16 93L93 197Q132 157 178 135.5Q224 114 264 114Q309 114 335 136Q361 158 361 190Q361 226 331.5 249.5Q302 273 251 296L202 319Q131 352 90 400.5Q49 449 49 515Q49 561 68 597.5Q87 634 119.5 659.5Q152 685 194 698.5Q236 712 283 712Q344 712 403.5 685Q463 658 514 614L434 514Q402 546 362.5 566Q323 586 286 586Q251 586 224.5 569Q198 552 198 520Q198 496 215 476.5Q232 457 274 437L332 410Q374 390 407 369Q440 348 463 322.5Q486 297 498 265.5Q510 234 510 195Q510 162 498 130Q486 98 463.5 71Q441 44 408.5 24Q376 4 334 -5L250 -174H117Z" glyph-name="Scedilla" horiz-adv-x="546" unicode="&#350;" /><glyph d="M169 -4Q115 7 77.5 29.5Q40 52 20 70L93 170Q105 158 121 146Q137 134 156 125Q175 116 195.5 110.5Q216 105 236 105Q266 105 282.5 119.5Q299 134 299 154Q299 172 282.5 185.5Q266 199 232 214L167 242Q102 270 73.5 311.5Q45 353 45 404Q45 440 61 470Q77 500 104 522.5Q131 545 167.5 557.5Q204 570 245 570Q298 570 350.5 549.5Q403 529 443 487L371 398Q342 429 307 442Q272 455 244 455Q212 455 198.5 441.5Q185 428 185 413Q185 398 194 385Q203 372 232 359L297 330Q376 295 407.5 255Q439 215 439 160Q439 134 430.5 108.5Q422 83 404.5 61.5Q387 40 361.5 24Q336 8 303 -1L244 -132H137Z" glyph-name="Scedilla.smcp" horiz-adv-x="475" unicode="&#62467;" /><glyph d="M196 941H343L445 768H309L269 845L231 768H95ZM433 514Q401 546 361.5 566Q322 586 285 586Q250 586 223.5 569Q197 552 197 520Q197 496 214 476.5Q231 457 273 437L331 410Q373 390 406 369Q439 348 462 322.5Q485 297 497 265.5Q509 234 509 195Q509 156 492.5 118.5Q476 81 445 52Q414 23 369 5.5Q324 -12 266 -12Q186 -12 125.5 16.5Q65 45 15 93L92 197Q131 157 177 135.5Q223 114 263 114Q308 114 334 136Q360 158 360 190Q360 226 330.5 249.5Q301 273 250 296L201 319Q130 352 89 400.5Q48 449 48 515Q48 561 67 597.5Q86 634 118.5 659.5Q151 685 193 698.5Q235 712 282 712Q343 712 402.5 685Q462 658 513 614Z" glyph-name="Scircumflex" horiz-adv-x="544" unicode="&#348;" /><glyph d="M243 660 207 605H98L174 730H312L388 605H278ZM371 398Q342 429 307 442Q272 455 244 455Q212 455 198.5 441.5Q185 428 185 413Q185 398 194 385Q203 372 232 359L297 330Q376 295 407.5 255Q439 215 439 160Q439 128 426 97.5Q413 67 387 43Q361 19 322.5 4.5Q284 -10 234 -10Q194 -10 160.5 -2Q127 6 100 18Q73 30 52.5 44Q32 58 20 70L93 170Q105 158 121 146Q137 134 156 125Q175 116 195.5 110.5Q216 105 236 105Q266 105 282.5 119.5Q299 134 299 154Q299 172 282.5 185.5Q266 199 232 214L167 242Q102 270 73.5 311.5Q45 353 45 404Q45 440 61 470Q77 500 104 522.5Q131 545 167.5 557.5Q204 570 245 570Q298 570 350.5 549.5Q403 529 443 487Z" glyph-name="Scircumflex.smcp" horiz-adv-x="475" unicode="&#62468;" /><glyph d="M196 -117Q196 -85 218.5 -63Q241 -41 273 -41Q306 -41 329 -63Q352 -85 352 -117Q352 -126 348 -141Q344 -156 339 -164L281 -270H189L229 -179Q214 -169 205 -153Q196 -137 196 -117ZM433 514Q401 546 361.5 566Q322 586 285 586Q250 586 223.5 569Q197 552 197 520Q197 496 214 476.5Q231 457 273 437L331 410Q373 390 406 369Q439 348 462 322.5Q485 297 497 265.5Q509 234 509 195Q509 156 492.5 118.5Q476 81 445 52Q414 23 369 5.5Q324 -12 266 -12Q186 -12 125.5 16.5Q65 45 15 93L92 197Q131 157 177 135.5Q223 114 263 114Q308 114 334 136Q360 158 360 190Q360 226 330.5 249.5Q301 273 250 296L201 319Q130 352 89 400.5Q48 449 48 515Q48 561 67 597.5Q86 634 118.5 659.5Q151 685 193 698.5Q235 712 282 712Q343 712 402.5 685Q462 658 513 614Z" glyph-name="Scommaaccent" horiz-adv-x="544" unicode="&#536;" /><glyph d="M161 -113Q161 -83 182.5 -61.5Q204 -40 233 -40Q268 -40 288 -62Q308 -84 308 -113Q308 -127 302 -140.5Q296 -154 289 -165L237 -245H155L188 -168Q161 -146 161 -113ZM371 398Q342 429 307 442Q272 455 244 455Q212 455 198.5 441.5Q185 428 185 413Q185 398 194 385Q203 372 232 359L297 330Q376 295 407.5 255Q439 215 439 160Q439 128 426 97.5Q413 67 387 43Q361 19 322.5 4.5Q284 -10 234 -10Q194 -10 160.5 -2Q127 6 100 18Q73 30 52.5 44Q32 58 20 70L93 170Q105 158 121 146Q137 134 156 125Q175 116 195.5 110.5Q216 105 236 105Q266 105 282.5 119.5Q299 134 299 154Q299 172 282.5 185.5Q266 199 232 214L167 242Q102 270 73.5 311.5Q45 353 45 404Q45 440 61 470Q77 500 104 522.5Q131 545 167.5 557.5Q204 570 245 570Q298 570 350.5 549.5Q403 529 443 487Z" glyph-name="Scommaaccent.smcp" horiz-adv-x="475" unicode="&#62469;" /><glyph d="M570 700V576H361V0H223V576H14V700Z" glyph-name="T" horiz-adv-x="584" unicode="T" /><glyph d="M475 560V443H311V0H181V443H16V560Z" glyph-name="T.smcp" horiz-adv-x="491" unicode="&#62288;" /><glyph d="M573 700V576H364V416H485V298H364V0H226V298H105V416H226V576H17V700Z" glyph-name="Tbar" horiz-adv-x="590" unicode="&#358;" /><glyph d="M478 560V443H314V341H404V230H314V0H184V230H94V341H184V443H19V560Z" glyph-name="Tbar.smcp" horiz-adv-x="497" unicode="&#62470;" /><glyph d="M117 941H253L291 864L331 941H467L365 768H218ZM570 700V576H361V0H223V576H14V700Z" glyph-name="Tcaron" horiz-adv-x="584" unicode="&#356;" /><glyph d="M282 730H392L316 605H178L102 730H211L247 675ZM475 560V443H311V0H181V443H16V560Z" glyph-name="Tcaron.smcp" horiz-adv-x="491" unicode="&#62471;" /><glyph d="M214 -117Q214 -85 236.5 -63Q259 -41 291 -41Q324 -41 347 -63Q370 -85 370 -117Q370 -126 366 -141Q362 -156 357 -164L299 -270H207L247 -179Q232 -169 223 -153Q214 -137 214 -117ZM570 700V576H361V0H223V576H14V700Z" glyph-name="Tcommaaccent" horiz-adv-x="584" unicode="&#354;" /><glyph d="M173 -113Q173 -83 194.5 -61.5Q216 -40 245 -40Q280 -40 300 -62Q320 -84 320 -113Q320 -127 314 -140.5Q308 -154 301 -165L249 -245H167L200 -168Q173 -146 173 -113ZM475 560V443H311V0H181V443H16V560Z" glyph-name="Tcommaaccent.smcp" horiz-adv-x="491" unicode="&#62308;" /><glyph d="M211 466V243H289Q346 243 383 270Q420 297 420 357Q420 415 383 440.5Q346 466 289 466ZM211 0H73V700H211V585H310Q372 585 419 567Q466 549 498 518Q530 487 546 445.5Q562 404 562 357Q562 309 546 266.5Q530 224 498 192Q466 160 419 141.5Q372 123 310 123H211Z" glyph-name="Thorn" horiz-adv-x="584" unicode="&#222;" /><glyph d="M195 206H240Q284 206 312 224Q340 242 340 287Q340 331 312 347.5Q284 364 240 364H195ZM473 287Q473 248 460 213Q447 178 420.5 151.5Q394 125 355 109.5Q316 94 265 94H195V0H66V560H195V477H265Q316 477 355 462Q394 447 420.5 421.5Q447 396 460 361Q473 326 473 287Z" glyph-name="Thorn.smcp" horiz-adv-x="499" unicode="&#62472;" /><glyph d="M330 116Q392 116 423 152Q454 188 454 245V700H590V232Q590 181 573.5 136.5Q557 92 524 59Q491 26 442 7Q393 -12 328 -12Q263 -12 214 7Q165 26 132.5 59Q100 92 83.5 136.5Q67 181 67 232V700H206V245Q206 188 237 152Q268 116 330 116Z" glyph-name="U" horiz-adv-x="657" unicode="U" /><glyph d="M278 -10Q224 -10 183.5 5.5Q143 21 116 47.5Q89 74 75 110Q61 146 61 187V560H191V205Q191 161 212.5 133Q234 105 279 105Q325 105 346 133Q367 161 367 205V560H494V187Q494 146 480 110Q466 74 439 47.5Q412 21 371.5 5.5Q331 -10 278 -10Z" glyph-name="U.smcp" horiz-adv-x="555" unicode="&#62289;" /><glyph d="M312 942H478L386 769H262ZM330 116Q392 116 423 152Q454 188 454 245V700H590V232Q590 181 573.5 136.5Q557 92 524 59Q491 26 442 7Q393 -12 328 -12Q263 -12 214 7Q165 26 132.5 59Q100 92 83.5 136.5Q67 181 67 232V700H206V245Q206 188 237 152Q268 116 330 116Z" glyph-name="Uacute" horiz-adv-x="657" unicode="&#218;" /><glyph d="M258 730H409L329 605H222ZM278 -10Q224 -10 183.5 5.5Q143 21 116 47.5Q89 74 75 110Q61 146 61 187V560H191V205Q191 161 212.5 133Q234 105 279 105Q325 105 346 133Q367 161 367 205V560H494V187Q494 146 480 110Q466 74 439 47.5Q412 21 371.5 5.5Q331 -10 278 -10Z" glyph-name="Uacute.smcp" horiz-adv-x="555" unicode="&#62473;" /><glyph d="M369 947H474V896Q474 862 462.5 836.5Q451 811 431.5 794.5Q412 778 386 769.5Q360 761 330 761Q300 761 274 769.5Q248 778 228.5 794.5Q209 811 197.5 836.5Q186 862 186 896V947H290V895Q290 878 300 867Q310 856 330 856Q350 856 359.5 867Q369 878 369 895ZM330 116Q392 116 423 152Q454 188 454 245V700H590V232Q590 181 573.5 136.5Q557 92 524 59Q491 26 442 7Q393 -12 328 -12Q263 -12 214 7Q165 26 132.5 59Q100 92 83.5 136.5Q67 181 67 232V700H206V245Q206 188 237 152Q268 116 330 116Z" glyph-name="Ubreve" horiz-adv-x="657" unicode="&#364;" /><glyph d="M282 698Q297 698 305 703Q313 708 313 725V733H406V717Q406 660 372.5 633.5Q339 607 282 607Q225 607 191.5 633.5Q158 660 158 717V733H251V725Q251 708 259 703Q267 698 282 698ZM278 -10Q224 -10 183.5 5.5Q143 21 116 47.5Q89 74 75 110Q61 146 61 187V560H191V205Q191 161 212.5 133Q234 105 279 105Q325 105 346 133Q367 161 367 205V560H494V187Q494 146 480 110Q466 74 439 47.5Q412 21 371.5 5.5Q331 -10 278 -10Z" glyph-name="Ubreve.smcp" horiz-adv-x="555" unicode="&#62480;" /><glyph d="M254 942H401L503 769H367L327 846L289 769H153ZM330 116Q392 116 423 152Q454 188 454 245V700H590V232Q590 181 573.5 136.5Q557 92 524 59Q491 26 442 7Q393 -12 328 -12Q263 -12 214 7Q165 26 132.5 59Q100 92 83.5 136.5Q67 181 67 232V700H206V245Q206 188 237 152Q268 116 330 116Z" glyph-name="Ucircumflex" horiz-adv-x="657" unicode="&#219;" /><glyph d="M279 660 243 605H134L210 730H348L424 605H314ZM278 -10Q224 -10 183.5 5.5Q143 21 116 47.5Q89 74 75 110Q61 146 61 187V560H191V205Q191 161 212.5 133Q234 105 279 105Q325 105 346 133Q367 161 367 205V560H494V187Q494 146 480 110Q466 74 439 47.5Q412 21 371.5 5.5Q331 -10 278 -10Z" glyph-name="Ucircumflex.smcp" horiz-adv-x="555" unicode="&#62481;" /><glyph d="M345 826Q345 858 368 881Q391 904 423 904Q455 904 478.5 881Q502 858 502 826Q502 794 478.5 771Q455 748 423 748Q391 748 368 771Q345 794 345 826ZM154 826Q154 842 160 856Q166 870 176.5 880.5Q187 891 201.5 897.5Q216 904 232 904Q264 904 287.5 881Q311 858 311 826Q311 794 287.5 771Q264 748 232 748Q216 748 201.5 754.5Q187 761 176.5 771.5Q166 782 160 796Q154 810 154 826ZM330 116Q392 116 423 152Q454 188 454 245V700H590V232Q590 181 573.5 136.5Q557 92 524 59Q491 26 442 7Q393 -12 328 -12Q263 -12 214 7Q165 26 132.5 59Q100 92 83.5 136.5Q67 181 67 232V700H206V245Q206 188 237 152Q268 116 330 116Z" glyph-name="Udieresis" horiz-adv-x="657" unicode="&#220;" /><glyph d="M291 679Q291 706 312 726.5Q333 747 361 747Q374 747 386.5 741.5Q399 736 408.5 726.5Q418 717 423.5 704.5Q429 692 429 679Q429 652 408 632Q387 612 361 612Q333 612 312 632Q291 652 291 679ZM132 679Q132 692 138 704.5Q144 717 153.5 726.5Q163 736 175.5 741.5Q188 747 201 747Q228 747 249 726.5Q270 706 270 679Q270 652 249 632Q228 612 201 612Q188 612 175.5 617.5Q163 623 153.5 632Q144 641 138 653Q132 665 132 679ZM278 -10Q224 -10 183.5 5.5Q143 21 116 47.5Q89 74 75 110Q61 146 61 187V560H191V205Q191 161 212.5 133Q234 105 279 105Q325 105 346 133Q367 161 367 205V560H494V187Q494 146 480 110Q466 74 439 47.5Q412 21 371.5 5.5Q331 -10 278 -10Z" glyph-name="Udieresis.smcp" horiz-adv-x="555" unicode="&#62529;" /><glyph d="M385 769H261L169 942H335ZM330 116Q392 116 423 152Q454 188 454 245V700H590V232Q590 181 573.5 136.5Q557 92 524 59Q491 26 442 7Q393 -12 328 -12Q263 -12 214 7Q165 26 132.5 59Q100 92 83.5 136.5Q67 181 67 232V700H206V245Q206 188 237 152Q268 116 330 116Z" glyph-name="Ugrave" horiz-adv-x="657" unicode="&#217;" /><glyph d="M335 605H228L148 730H299ZM278 -10Q224 -10 183.5 5.5Q143 21 116 47.5Q89 74 75 110Q61 146 61 187V560H191V205Q191 161 212.5 133Q234 105 279 105Q325 105 346 133Q367 161 367 205V560H494V187Q494 146 480 110Q466 74 439 47.5Q412 21 371.5 5.5Q331 -10 278 -10Z" glyph-name="Ugrave.smcp" horiz-adv-x="555" unicode="&#62530;" /><glyph d="M401 941H567L476 768H351ZM200 941H367L274 768H150ZM330 116Q392 116 423 152Q454 188 454 245V700H590V232Q590 181 573.5 136.5Q557 92 524 59Q491 26 442 7Q393 -12 328 -12Q263 -12 214 7Q165 26 132.5 59Q100 92 83.5 136.5Q67 181 67 232V700H206V245Q206 188 237 152Q268 116 330 116Z" glyph-name="Uhungarumlaut" horiz-adv-x="657" unicode="&#368;" /><glyph d="M332 730H483L403 605H296ZM152 730H303L223 605H116ZM278 -10Q224 -10 183.5 5.5Q143 21 116 47.5Q89 74 75 110Q61 146 61 187V560H191V205Q191 161 212.5 133Q234 105 279 105Q325 105 346 133Q367 161 367 205V560H494V187Q494 146 480 110Q466 74 439 47.5Q412 21 371.5 5.5Q331 -10 278 -10Z" glyph-name="Uhungarumlaut.smcp" horiz-adv-x="555" unicode="&#62486;" /><glyph d="M171 885H485V774H171ZM330 116Q392 116 423 152Q454 188 454 245V700H590V232Q590 181 573.5 136.5Q557 92 524 59Q491 26 442 7Q393 -12 328 -12Q263 -12 214 7Q165 26 132.5 59Q100 92 83.5 136.5Q67 181 67 232V700H206V245Q206 188 237 152Q268 116 330 116Z" glyph-name="Umacron" horiz-adv-x="657" unicode="&#362;" /><glyph d="M147 716H412V621H147ZM278 -10Q224 -10 183.5 5.5Q143 21 116 47.5Q89 74 75 110Q61 146 61 187V560H191V205Q191 161 212.5 133Q234 105 279 105Q325 105 346 133Q367 161 367 205V560H494V187Q494 146 480 110Q466 74 439 47.5Q412 21 371.5 5.5Q331 -10 278 -10Z" glyph-name="Umacron.smcp" horiz-adv-x="555" unicode="&#62531;" /><glyph d="M330 116Q392 116 423 152Q454 188 454 245V700H590V232Q590 187 577 147Q564 107 538.5 75.5Q513 44 475.5 22.5Q438 1 388 -7Q369 -24 356.5 -45Q344 -66 344 -81Q344 -95 356.5 -104Q369 -113 386 -113Q405 -113 425 -108Q445 -103 459 -98L446 -175Q422 -185 397 -192Q372 -199 335 -199Q284 -199 252.5 -176.5Q221 -154 221 -110Q221 -78 243 -53Q265 -28 298 -10Q240 -6 197 14.5Q154 35 125 67Q96 99 81.5 141.5Q67 184 67 232V700H206V245Q206 188 237 152Q268 116 330 116Z" glyph-name="Uogonek" horiz-adv-x="657" unicode="&#370;" /><glyph d="M338 5Q337 4 337 3Q337 2 336 1Q287 -26 287 -56Q287 -72 299.5 -79Q312 -86 325 -86Q340 -86 352.5 -83.5Q365 -81 372 -79L370 -147Q367 -148 343.5 -154.5Q320 -161 285 -161Q237 -161 206 -140Q175 -119 175 -84Q175 -60 189.5 -40Q204 -20 235 -7Q192 -1 159.5 16Q127 33 105 59Q83 85 72 117.5Q61 150 61 187V560H191V205Q191 161 212.5 133Q234 105 279 105Q325 105 346 133Q367 161 367 205V560H494V187Q494 146 480 110Q466 74 439 47.5Q412 21 371.5 5.5Q331 -10 278 -10Q256 -10 235 -7Q260 3 299 8Z" glyph-name="Uogonek.smcp" horiz-adv-x="555" unicode="&#62532;" /><glyph d="M331 831Q351 831 365 845.5Q379 860 379 881Q379 903 365 917.5Q351 932 331 932Q311 932 297 917.5Q283 903 283 881Q283 860 297 845.5Q311 831 331 831ZM331 761Q305 761 282 770Q259 779 242 795.5Q225 812 215 833.5Q205 855 205 881Q205 908 215 930Q225 952 242 968Q259 984 282 993Q305 1002 331 1002Q357 1002 380 993Q403 984 420 968Q437 952 447 930Q457 908 457 881Q457 855 447 833.5Q437 812 420 795.5Q403 779 380 770Q357 761 331 761ZM330 116Q392 116 423 152Q454 188 454 245V700H590V232Q590 181 573.5 136.5Q557 92 524 59Q491 26 442 7Q393 -12 328 -12Q263 -12 214 7Q165 26 132.5 59Q100 92 83.5 136.5Q67 181 67 232V700H206V245Q206 188 237 152Q268 116 330 116Z" glyph-name="Uring" horiz-adv-x="657" unicode="&#366;" /><glyph d="M283 655Q299 655 309.5 666.5Q320 678 320 695Q320 712 309.5 724Q299 736 283 736Q266 736 255.5 724Q245 712 245 695Q245 678 255.5 666.5Q266 655 283 655ZM283 596Q261 596 242 603.5Q223 611 208.5 624.5Q194 638 186 656Q178 674 178 695Q178 739 208 767Q238 795 283 795Q328 795 357.5 767Q387 739 387 695Q387 674 379 656Q371 638 357 624.5Q343 611 324 603.5Q305 596 283 596ZM278 -10Q224 -10 183.5 5.5Q143 21 116 47.5Q89 74 75 110Q61 146 61 187V560H191V205Q191 161 212.5 133Q234 105 279 105Q325 105 346 133Q367 161 367 205V560H494V187Q494 146 480 110Q466 74 439 47.5Q412 21 371.5 5.5Q331 -10 278 -10Z" glyph-name="Uring.smcp" horiz-adv-x="555" unicode="&#62533;" /><glyph d="M155 765Q155 779 157 803Q159 827 169 850Q179 873 200.5 890Q222 907 261 907Q279 907 296.5 901Q314 895 329 888Q344 881 356 875Q368 869 375 869Q397 869 397 898V904H498V897Q498 883 496 859.5Q494 836 484 813Q474 790 452.5 773Q431 756 392 756Q374 756 356.5 762Q339 768 324 775Q309 782 297 788Q285 794 278 794Q256 794 256 765V758H155ZM330 116Q392 116 423 152Q454 188 454 245V700H590V232Q590 181 573.5 136.5Q557 92 524 59Q491 26 442 7Q393 -12 328 -12Q263 -12 214 7Q165 26 132.5 59Q100 92 83.5 136.5Q67 181 67 232V700H206V245Q206 188 237 152Q268 116 330 116Z" glyph-name="Utilde" horiz-adv-x="657" unicode="&#360;" /><glyph d="M227 732Q239 732 252.5 728Q266 724 278 719Q290 714 300.5 710Q311 706 317 706Q330 706 330 723V728H418V709Q418 698 417 681.5Q416 665 408 648.5Q400 632 383 620.5Q366 609 334 609Q322 609 309 613Q296 617 283.5 622Q271 627 260.5 631Q250 635 244 635Q231 635 231 618V613H143V627Q143 638 144 655.5Q145 673 153 690Q161 707 178 719.5Q195 732 227 732ZM278 -10Q224 -10 183.5 5.5Q143 21 116 47.5Q89 74 75 110Q61 146 61 187V560H191V205Q191 161 212.5 133Q234 105 279 105Q325 105 346 133Q367 161 367 205V560H494V187Q494 146 480 110Q466 74 439 47.5Q412 21 371.5 5.5Q331 -10 278 -10Z" glyph-name="Utilde.smcp" horiz-adv-x="555" unicode="&#62544;" /><glyph d="M6 700H160L319 181H320L487 700H632L395 0H244Z" glyph-name="V" horiz-adv-x="638" unicode="V" /><glyph d="M14 560H158L273 177H274L394 560H532L343 0H204Z" glyph-name="V.smcp" horiz-adv-x="546" unicode="&#62290;" /><glyph d="M556 700 690 199H691L803 700H945L774 0H613L481 503L352 0H191L18 700H168L276 199H277L411 700Z" glyph-name="W" horiz-adv-x="964" unicode="W" /><glyph d="M499 0 399 388 303 0H160L23 560H163L238 198H239L336 560H468L564 198H565L643 560H777L641 0Z" glyph-name="W.smcp" horiz-adv-x="800" unicode="&#62291;" /><glyph d="M479 941H645L553 768H429ZM556 700 690 199H691L803 700H945L774 0H613L481 503L352 0H191L18 700H168L276 199H277L411 700Z" glyph-name="Wacute" horiz-adv-x="964" unicode="&#7810;" /><glyph d="M385 730H536L456 605H349ZM499 0 399 388 303 0H160L23 560H163L238 198H239L336 560H468L564 198H565L643 560H777L641 0Z" glyph-name="Wacute.smcp" horiz-adv-x="800" unicode="&#62297;" /><glyph d="M407 941H554L656 768H520L480 845L442 768H306ZM556 700 690 199H691L803 700H945L774 0H613L481 503L352 0H191L18 700H168L276 199H277L411 700Z" glyph-name="Wcircumflex" horiz-adv-x="964" unicode="&#372;" /><glyph d="M400 660 364 605H255L331 730H469L545 605H435ZM499 0 399 388 303 0H160L23 560H163L238 198H239L336 560H468L564 198H565L643 560H777L641 0Z" glyph-name="Wcircumflex.smcp" horiz-adv-x="800" unicode="&#62545;" /><glyph d="M498 826Q498 858 521 881Q544 904 576 904Q608 904 631.5 881Q655 858 655 826Q655 794 631.5 771Q608 748 576 748Q544 748 521 771Q498 794 498 826ZM307 826Q307 842 313 856Q319 870 329.5 880.5Q340 891 354.5 897.5Q369 904 385 904Q417 904 440.5 881Q464 858 464 826Q464 794 440.5 771Q417 748 385 748Q369 748 354.5 754.5Q340 761 329.5 771.5Q319 782 313 796Q307 810 307 826ZM556 700 690 199H691L803 700H945L774 0H613L481 503L352 0H191L18 700H168L276 199H277L411 700Z" glyph-name="Wdieresis" horiz-adv-x="964" unicode="&#7812;" /><glyph d="M409 679Q409 706 430 726.5Q451 747 479 747Q492 747 504.5 741.5Q517 736 526.5 726.5Q536 717 541.5 704.5Q547 692 547 679Q547 652 526 632Q505 612 479 612Q451 612 430 632Q409 652 409 679ZM250 679Q250 692 256 704.5Q262 717 271.5 726.5Q281 736 293.5 741.5Q306 747 319 747Q346 747 367 726.5Q388 706 388 679Q388 652 367 632Q346 612 319 612Q306 612 293.5 617.5Q281 623 271.5 632Q262 641 256 653Q250 665 250 679ZM499 0 399 388 303 0H160L23 560H163L238 198H239L336 560H468L564 198H565L643 560H777L641 0Z" glyph-name="Wdieresis.smcp" horiz-adv-x="800" unicode="&#62304;" /><glyph d="M534 768H410L318 941H484ZM556 700 690 199H691L803 700H945L774 0H613L481 503L352 0H191L18 700H168L276 199H277L411 700Z" glyph-name="Wgrave" horiz-adv-x="964" unicode="&#7808;" /><glyph d="M452 605H345L265 730H416ZM499 0 399 388 303 0H160L23 560H163L238 198H239L336 560H468L564 198H565L643 560H777L641 0Z" glyph-name="Wgrave.smcp" horiz-adv-x="800" unicode="&#62305;" /><glyph d="M396 348 627 0H464L309 248L159 0H-1L227 354L9 700H171L317 455L463 700H621Z" glyph-name="X" horiz-adv-x="627" unicode="X" /><glyph d="M345 278 525 0H373L263 182L158 0H8L187 284L16 560H168L270 381L371 560H521Z" glyph-name="X.smcp" horiz-adv-x="534" unicode="&#62292;" /><glyph d="M-1 700H165L336 434H341L510 700H670L405 307V0H267V304Z" glyph-name="Y" horiz-adv-x="671" unicode="Y" /><glyph d="M11 560H169L288 365H293L410 560H563L353 233V0H224V230Z" glyph-name="Y.smcp" horiz-adv-x="576" unicode="&#62293;" /><glyph d="M320 942H486L394 769H270ZM-1 700H165L336 434H341L510 700H670L405 307V0H267V304Z" glyph-name="Yacute" horiz-adv-x="671" unicode="&#221;" /><glyph d="M272 730H423L343 605H236ZM11 560H169L288 365H293L410 560H563L353 233V0H224V230Z" glyph-name="Yacute.smcp" horiz-adv-x="576" unicode="&#62482;" /><glyph d="M265 941H412L514 768H378L338 845L300 768H164ZM-1 700H165L336 434H341L510 700H670L405 307V0H267V304Z" glyph-name="Ycircumflex" horiz-adv-x="671" unicode="&#374;" /><glyph d="M290 660 254 605H145L221 730H359L435 605H325ZM11 560H169L288 365H293L410 560H563L353 233V0H224V230Z" glyph-name="Ycircumflex.smcp" horiz-adv-x="576" unicode="&#62546;" /><glyph d="M356 826Q356 858 379 881Q402 904 434 904Q466 904 489.5 881Q513 858 513 826Q513 794 489.5 771Q466 748 434 748Q402 748 379 771Q356 794 356 826ZM165 826Q165 842 171 856Q177 870 187.5 880.5Q198 891 212.5 897.5Q227 904 243 904Q275 904 298.5 881Q322 858 322 826Q322 794 298.5 771Q275 748 243 748Q227 748 212.5 754.5Q198 761 187.5 771.5Q177 782 171 796Q165 810 165 826ZM-1 700H165L336 434H341L510 700H670L405 307V0H267V304Z" glyph-name="Ydieresis" horiz-adv-x="671" unicode="&#376;" /><glyph d="M301 679Q301 706 322 726.5Q343 747 371 747Q384 747 396.5 741.5Q409 736 418.5 726.5Q428 717 433.5 704.5Q439 692 439 679Q439 652 418 632Q397 612 371 612Q343 612 322 632Q301 652 301 679ZM142 679Q142 692 148 704.5Q154 717 163.5 726.5Q173 736 185.5 741.5Q198 747 211 747Q238 747 259 726.5Q280 706 280 679Q280 652 259 632Q238 612 211 612Q198 612 185.5 617.5Q173 623 163.5 632Q154 641 148 653Q142 665 142 679ZM11 560H169L288 365H293L410 560H563L353 233V0H224V230Z" glyph-name="Ydieresis.smcp" horiz-adv-x="576" unicode="&#62547;" /><glyph d="M404 768H280L188 941H354ZM-1 700H165L336 434H341L510 700H670L405 307V0H267V304Z" glyph-name="Ygrave" horiz-adv-x="671" unicode="&#7922;" /><glyph d="M341 605H234L154 730H305ZM11 560H169L288 365H293L410 560H563L353 233V0H224V230Z" glyph-name="Ygrave.smcp" horiz-adv-x="576" unicode="&#62306;" /><glyph d="M41 576V700H596V581L212 123H596V0H33V114L421 576Z" glyph-name="Z" horiz-adv-x="633" unicode="Z" /><glyph d="M43 443V560H500V448L209 117H500V0H36V107L334 443Z" glyph-name="Z.smcp" horiz-adv-x="540" unicode="&#62294;" /><glyph d="M303 941H469L377 768H253ZM41 576V700H596V581L212 123H596V0H33V114L421 576Z" glyph-name="Zacute" horiz-adv-x="633" unicode="&#377;" /><glyph d="M243 730H394L314 605H207ZM43 443V560H500V448L209 117H500V0H36V107L334 443Z" glyph-name="Zacute.smcp" horiz-adv-x="540" unicode="&#62483;" /><glyph d="M142 941H278L316 864L356 941H492L390 768H243ZM41 576V700H596V581L212 123H596V0H33V114L421 576Z" glyph-name="Zcaron" horiz-adv-x="633" unicode="&#381;" /><glyph d="M306 730H416L340 605H202L126 730H235L271 675ZM43 443V560H500V448L209 117H500V0H36V107L334 443Z" glyph-name="Zcaron.smcp" horiz-adv-x="540" unicode="&#62549;" /><glyph d="M230 856Q230 893 255.5 918.5Q281 944 317 944Q354 944 379.5 918.5Q405 893 405 856Q405 820 379.5 794.5Q354 769 317 769Q281 769 255.5 794.5Q230 820 230 856ZM41 576V700H596V581L212 123H596V0H33V114L421 576Z" glyph-name="Zdotaccent" horiz-adv-x="633" unicode="&#379;" /><glyph d="M201 679Q201 706 222 726.5Q243 747 270 747Q297 747 317.5 726.5Q338 706 338 679Q338 652 317.5 632Q297 612 270 612Q243 612 222 632Q201 652 201 679ZM43 443V560H500V448L209 117H500V0H36V107L334 443Z" glyph-name="Zdotaccent.smcp" horiz-adv-x="540" unicode="&#62548;" /><glyph d="M310 305Q310 330 291 344.5Q272 359 234 359Q199 359 160.5 345Q122 331 96 316L45 414Q70 430 101 442Q127 453 163 461.5Q199 470 241 470Q280 470 316 460.5Q352 451 379.5 431Q407 411 423.5 378.5Q440 346 440 301V0H310V43Q292 16 256.5 2Q221 -12 182 -12Q146 -12 116.5 0Q87 12 66 32Q45 52 33.5 78Q22 104 22 132Q22 198 66.5 235.5Q111 273 188 273H278Q310 273 310 300ZM221 83Q256 83 283 102Q310 121 310 164V197Q304 191 294 189Q284 187 270 187H221Q190 187 173 174Q156 161 156 137Q156 114 173.5 98.5Q191 83 221 83Z" glyph-name="a" horiz-adv-x="491" unicode="a" /><glyph d="M225 700H391L299 527H175ZM310 305Q310 330 291 344.5Q272 359 234 359Q199 359 160.5 345Q122 331 96 316L45 414Q70 430 101 442Q127 453 163 461.5Q199 470 241 470Q280 470 316 460.5Q352 451 379.5 431Q407 411 423.5 378.5Q440 346 440 301V0H310V43Q292 16 256.5 2Q221 -12 182 -12Q146 -12 116.5 0Q87 12 66 32Q45 52 33.5 78Q22 104 22 132Q22 198 66.5 235.5Q111 273 188 273H278Q310 273 310 300ZM221 83Q256 83 283 102Q310 121 310 164V197Q304 191 294 189Q284 187 270 187H221Q190 187 173 174Q156 161 156 137Q156 114 173.5 98.5Q191 83 221 83Z" glyph-name="aacute" horiz-adv-x="491" unicode="&#225;" /><glyph d="M284 681H389V630Q389 596 377.5 570.5Q366 545 346.5 528.5Q327 512 301 503.5Q275 495 245 495Q215 495 189 503.5Q163 512 143.5 528.5Q124 545 112.5 570.5Q101 596 101 630V681H205V629Q205 612 215 601Q225 590 245 590Q265 590 274.5 601Q284 612 284 629ZM310 305Q310 330 291 344.5Q272 359 234 359Q199 359 160.5 345Q122 331 96 316L45 414Q70 430 101 442Q127 453 163 461.5Q199 470 241 470Q280 470 316 460.5Q352 451 379.5 431Q407 411 423.5 378.5Q440 346 440 301V0H310V43Q292 16 256.5 2Q221 -12 182 -12Q146 -12 116.5 0Q87 12 66 32Q45 52 33.5 78Q22 104 22 132Q22 198 66.5 235.5Q111 273 188 273H278Q310 273 310 300ZM221 83Q256 83 283 102Q310 121 310 164V197Q304 191 294 189Q284 187 270 187H221Q190 187 173 174Q156 161 156 137Q156 114 173.5 98.5Q191 83 221 83Z" glyph-name="abreve" horiz-adv-x="491" unicode="&#259;" /><glyph d="M171 700H318L420 527H284L244 604L206 527H70ZM310 305Q310 330 291 344.5Q272 359 234 359Q199 359 160.5 345Q122 331 96 316L45 414Q70 430 101 442Q127 453 163 461.5Q199 470 241 470Q280 470 316 460.5Q352 451 379.5 431Q407 411 423.5 378.5Q440 346 440 301V0H310V43Q292 16 256.5 2Q221 -12 182 -12Q146 -12 116.5 0Q87 12 66 32Q45 52 33.5 78Q22 104 22 132Q22 198 66.5 235.5Q111 273 188 273H278Q310 273 310 300ZM221 83Q256 83 283 102Q310 121 310 164V197Q304 191 294 189Q284 187 270 187H221Q190 187 173 174Q156 161 156 137Q156 114 173.5 98.5Q191 83 221 83Z" glyph-name="acircumflex" horiz-adv-x="491" unicode="&#226;" /><glyph d="M74 700H240L148 527H24Z" glyph-name="acute" horiz-adv-x="265" unicode="&#180;" /><glyph d="M117 730H268L188 605H81Z" glyph-name="acute.smcp" horiz-adv-x="350" unicode="&#63412;" /><glyph d="M262 584Q262 616 285 639Q308 662 340 662Q372 662 395.5 639Q419 616 419 584Q419 552 395.5 529Q372 506 340 506Q308 506 285 529Q262 552 262 584ZM71 584Q71 600 77 614Q83 628 93.5 638.5Q104 649 118.5 655.5Q133 662 149 662Q181 662 204.5 639Q228 616 228 584Q228 552 204.5 529Q181 506 149 506Q133 506 118.5 512.5Q104 519 93.5 529.5Q83 540 77 554Q71 568 71 584ZM310 305Q310 330 291 344.5Q272 359 234 359Q199 359 160.5 345Q122 331 96 316L45 414Q70 430 101 442Q127 453 163 461.5Q199 470 241 470Q280 470 316 460.5Q352 451 379.5 431Q407 411 423.5 378.5Q440 346 440 301V0H310V43Q292 16 256.5 2Q221 -12 182 -12Q146 -12 116.5 0Q87 12 66 32Q45 52 33.5 78Q22 104 22 132Q22 198 66.5 235.5Q111 273 188 273H278Q310 273 310 300ZM221 83Q256 83 283 102Q310 121 310 164V197Q304 191 294 189Q284 187 270 187H221Q190 187 173 174Q156 161 156 137Q156 114 173.5 98.5Q191 83 221 83Z" glyph-name="adieresis" horiz-adv-x="491" unicode="&#228;" /><glyph d="M231 360Q196 360 158.5 345.5Q121 331 95 314L44 412Q75 436 126 453Q177 470 241 470Q292 470 331 455Q370 440 393 415Q422 441 460.5 455.5Q499 470 546 470Q592 470 634 454.5Q676 439 708.5 406Q741 373 760.5 321Q780 269 780 196V191H448Q450 172 458.5 155.5Q467 139 481 126.5Q495 114 512.5 106.5Q530 99 550 99Q577 99 601 111Q625 123 638 146L771 132Q741 58 682 23Q623 -12 548 -12Q485 -12 440 12Q395 36 369 71Q361 56 348 41.5Q335 27 315.5 15Q296 3 269 -4.5Q242 -12 207 -12Q165 -12 130.5 0Q96 12 72 32Q48 52 35 78.5Q22 105 22 135Q22 203 66.5 240.5Q111 278 187 278H279Q296 278 303.5 286Q311 294 311 308V310Q311 334 290 347Q269 360 231 360ZM223 82Q261 82 285.5 106Q310 130 310 176V204Q305 196 294.5 193.5Q284 191 273 191H220Q189 191 172 177Q155 163 155 139Q155 114 174 98Q193 82 223 82ZM545 362Q506 362 479.5 338.5Q453 315 445 278H643Q638 314 611.5 338Q585 362 545 362Z" glyph-name="ae" horiz-adv-x="801" unicode="&#230;" /><glyph d="M189 360Q243 414 272.5 472.5Q302 531 302 594Q302 609 299 626Q296 643 288.5 657.5Q281 672 269 681Q257 690 240 690Q221 690 205 675Q189 660 189 620ZM328 588Q328 548 316.5 512.5Q305 477 286.5 445Q268 413 243 384.5Q218 356 191 330V99Q191 77 197 61.5Q203 46 212.5 36.5Q222 27 234.5 22.5Q247 18 260 18Q321 18 332 91H352Q348 59 334 39Q320 19 302.5 8Q285 -3 266.5 -7Q248 -11 235 -11Q208 -11 183 -3Q158 5 138.5 25Q119 45 107 79Q95 113 95 164V250Q86 242 76 235Q68 229 59 222Q50 215 43 210L26 229Q39 238 51 247Q63 256 73 264Q83 272 89 276.5Q95 281 95 281V541Q95 620 128 666.5Q161 713 226 713Q277 713 302.5 680Q328 647 328 588Z" glyph-name="afii61289" horiz-adv-x="378" unicode="&#8467;" /><glyph d="M297 527H173L81 700H247ZM310 305Q310 330 291 344.5Q272 359 234 359Q199 359 160.5 345Q122 331 96 316L45 414Q70 430 101 442Q127 453 163 461.5Q199 470 241 470Q280 470 316 460.5Q352 451 379.5 431Q407 411 423.5 378.5Q440 346 440 301V0H310V43Q292 16 256.5 2Q221 -12 182 -12Q146 -12 116.5 0Q87 12 66 32Q45 52 33.5 78Q22 104 22 132Q22 198 66.5 235.5Q111 273 188 273H278Q310 273 310 300ZM221 83Q256 83 283 102Q310 121 310 164V197Q304 191 294 189Q284 187 270 187H221Q190 187 173 174Q156 161 156 137Q156 114 173.5 98.5Q191 83 221 83Z" glyph-name="agrave" horiz-adv-x="491" unicode="&#224;" /><glyph d="M88 643H402V532H88ZM310 305Q310 330 291 344.5Q272 359 234 359Q199 359 160.5 345Q122 331 96 316L45 414Q70 430 101 442Q127 453 163 461.5Q199 470 241 470Q280 470 316 460.5Q352 451 379.5 431Q407 411 423.5 378.5Q440 346 440 301V0H310V43Q292 16 256.5 2Q221 -12 182 -12Q146 -12 116.5 0Q87 12 66 32Q45 52 33.5 78Q22 104 22 132Q22 198 66.5 235.5Q111 273 188 273H278Q310 273 310 300ZM221 83Q256 83 283 102Q310 121 310 164V197Q304 191 294 189Q284 187 270 187H221Q190 187 173 174Q156 161 156 137Q156 114 173.5 98.5Q191 83 221 83Z" glyph-name="amacron" horiz-adv-x="491" unicode="&#257;" /><glyph d="M349 164Q319 197 288.5 229.5Q258 262 227 294Q197 264 184.5 240.5Q172 217 172 189Q172 171 179.5 156Q187 141 199 130.5Q211 120 226 114Q241 108 256 108Q282 108 307 122.5Q332 137 349 164ZM673 0H508L437 75Q402 30 354 9Q306 -12 246 -12Q201 -12 162.5 2.5Q124 17 95 43Q66 69 49.5 105Q33 141 33 184Q33 244 64.5 295.5Q96 347 154 389Q124 424 110.5 458.5Q97 493 97 531Q97 561 109 593Q121 625 146 651.5Q171 678 210.5 695Q250 712 306 712Q346 712 380.5 699Q415 686 439.5 664.5Q464 643 478 614Q492 585 492 553Q492 535 487.5 511.5Q483 488 468 465L353 477Q367 507 367 528Q367 557 347.5 575.5Q328 594 302 594Q267 594 249 573Q231 552 231 525Q231 478 285 420Q304 399 325 376.5Q346 354 365.5 333.5Q385 313 401.5 296Q418 279 428 269Q444 298 457.5 329.5Q471 361 479 385H630Q605 322 577 267.5Q549 213 523 175L673 20Z" glyph-name="ampersand" horiz-adv-x="685" unicode="&amp;" /><glyph d="M224 103Q241 103 257.5 112Q274 121 284 138Q281 142 269.5 154Q258 166 244.5 179.5Q231 193 219.5 205Q208 217 204 221Q170 187 170 156Q170 132 187 117.5Q204 103 224 103ZM367 55Q338 20 300 5Q262 -10 217 -10Q181 -10 148.5 2Q116 14 91.5 35.5Q67 57 53 87Q39 117 39 153Q39 201 64.5 240.5Q90 280 137 312Q114 338 104 365Q94 392 94 421Q94 443 103.5 469Q113 495 134 517.5Q155 540 188.5 555Q222 570 271 570Q305 570 334 559.5Q363 549 384 531.5Q405 514 417 490.5Q429 467 429 441Q429 427 426 408Q423 389 410 370L302 378Q311 397 311 414Q311 436 299.5 448.5Q288 461 268 461Q245 461 233 445.5Q221 430 221 412Q221 377 260 338Q264 333 279.5 317.5Q295 302 312.5 284Q330 266 344.5 251Q359 236 361 234Q371 253 379.5 274.5Q388 296 393 314H536Q515 261 492.5 218Q470 175 451 147L571 25V0H422Z" glyph-name="ampersand.smcp" horiz-adv-x="581" unicode="&#58369;" /><glyph d="M221 83Q256 83 283 102Q310 121 310 164V197Q304 191 294 189Q284 187 270 187H221Q190 187 173 174Q156 161 156 137Q156 114 173.5 98.5Q191 83 221 83ZM310 305Q310 330 291 344.5Q272 359 234 359Q199 359 160.5 345Q122 331 96 316L45 414Q70 430 101 442Q127 453 163 461.5Q199 470 241 470Q280 470 316 460.5Q352 451 379.5 431Q407 411 423.5 378.5Q440 346 440 301V0H423Q403 -18 387.5 -41Q372 -64 372 -81Q372 -95 384.5 -104Q397 -113 414 -113Q433 -113 453 -108Q473 -103 487 -98L474 -175Q450 -185 425 -192Q400 -199 363 -199Q312 -199 280.5 -176.5Q249 -154 249 -110Q249 -73 278.5 -45Q308 -17 348 0H310V43Q292 16 256.5 2Q221 -12 182 -12Q146 -12 116.5 0Q87 12 66 32Q45 52 33.5 78Q22 104 22 132Q22 198 66.5 235.5Q111 273 188 273H278Q310 273 310 300Z" glyph-name="aogonek" horiz-adv-x="491" unicode="&#261;" /><glyph d="M195 664Q195 696 217.5 718Q240 740 272 740Q305 740 328 718Q351 696 351 664Q351 655 347 640Q343 625 338 617L280 511H188L228 602Q213 612 204 628Q195 644 195 664Z" glyph-name="apostrophe" horiz-adv-x="524" unicode="&#700;" /><glyph d="M421 655Q421 641 430 631.5Q439 622 453 622Q467 622 476 632Q485 642 485 654Q485 668 476 677.5Q467 687 453 687Q439 687 430 677.5Q421 668 421 655ZM566 3Q566 -11 575 -20.5Q584 -30 598 -30Q612 -30 621 -20Q630 -10 630 2Q630 16 621 25.5Q612 35 598 35Q584 35 575 25.5Q566 16 566 3ZM823 613 882 645 907 595Q913 583 907 571Q901 559 890 553Q879 548 867 549Q855 550 849 561ZM226 412 340 372Q348 369 354.5 372Q361 375 363 383Q366 390 363 397Q360 404 352 406L237 447L252 494Q254 502 251 508.5Q248 515 240 517Q233 519 226 516Q219 513 217 505L174 373Q172 366 175 359Q178 352 186 350Q194 348 200.5 351Q207 354 209 362ZM254 575Q246 573 242 567Q238 561 240 553Q242 545 248 541Q254 537 262 539L366 562L375 540Q368 531 368 522Q368 511 375.5 503.5Q383 496 394 496Q405 496 411 504Q419 511 418.5 520.5Q418 530 415 538L352 697Q349 704 342.5 707Q336 710 328 707Q321 704 318 697.5Q315 691 318 683L352 597ZM598 506Q550 506 506 520Q526 555 549.5 588.5Q573 622 600 650Q625 624 648 591Q671 558 693 521Q649 506 598 506ZM991 492Q988 499 981 502Q973 504 967 501L838 439Q831 435 828.5 428.5Q826 422 829 415L876 310Q883 294 899 301Q907 304 909.5 311Q912 318 909 324L869 414L902 429L917 396Q920 389 927 386.5Q934 384 941 387Q957 394 950 411L935 445L966 460L998 388Q1001 381 1008 378.5Q1015 376 1022 379Q1029 382 1031.5 389Q1034 396 1031 403ZM817 545Q828 523 852 515Q881 507 907 522Q933 536 942 562Q951 588 939 611L906 678Q903 686 895 687.5Q887 689 881 686L746 612Q739 608 737 601Q735 594 739 587Q743 580 750 578Q757 576 764 580L791 595ZM747 97Q747 105 742 110Q737 115 729 115H550Q575 128 605.5 146Q636 164 662 187.5Q688 211 705.5 240Q723 269 723 304Q723 327 715 349Q707 371 691.5 388.5Q676 406 653 417Q630 428 600 428Q573 428 549 419.5Q525 411 507 396Q489 381 479 359.5Q469 338 469 312Q469 295 475 278.5Q481 262 492.5 248.5Q504 235 520 227Q536 219 556 219Q569 219 583 223Q597 227 608 236Q619 245 626.5 259Q634 273 634 292Q634 318 621 327Q608 336 598 336Q584 336 574.5 326.5Q565 317 565 304Q565 287 580 277Q581 275 577 265Q573 255 554 255Q531 255 519 274.5Q507 294 507 313Q507 349 532 371Q557 393 598 393Q641 393 662 365.5Q683 338 683 305Q683 282 673.5 262.5Q664 243 648 225.5Q632 208 612.5 193.5Q593 179 574 166Q536 142 506.5 127.5Q477 113 474 110Q466 100 470 90Q475 79 487 79H728Q747 79 747 97ZM818 751Q921 751 990 682Q1030 643 1051.5 588Q1073 533 1073 473Q1073 402 1048.5 339Q1024 276 989 223Q927 134 825 53Q787 23 750 -1.5Q713 -26 682.5 -44Q652 -62 629.5 -74Q607 -86 598 -90Q589 -86 566.5 -74Q544 -62 513.5 -44Q483 -26 446.5 -1Q410 24 372 54Q269 136 209 226Q170 283 148 346.5Q126 410 126 474Q126 535 148 590Q170 645 210 684Q281 752 382 752Q439 752 487.5 729.5Q536 707 574 675Q548 647 523 614Q498 581 475 540Q449 495 429 449.5Q409 404 394 361.5Q379 319 368.5 282.5Q358 246 352 221L302 231Q295 233 289 229Q283 225 281 218Q279 211 283 205.5Q287 200 295 198L430 169Q437 167 442.5 171Q448 175 450 182Q453 199 437 203L389 213Q394 234 402.5 264.5Q411 295 423.5 331Q436 367 452 407Q468 447 489 487Q541 468 598 468Q658 468 710 488Q730 449 746 409Q762 369 774 333Q786 297 794.5 265.5Q803 234 808 212L760 202Q744 198 746 182Q748 174 754 170Q760 166 767 168L902 196Q909 198 913 203.5Q917 209 915 216Q914 224 908 228Q902 232 895 230L846 220Q846 221 845.5 221.5Q845 222 845 223Q839 248 828.5 284.5Q818 321 803 363.5Q788 406 767.5 452Q747 498 722 543Q679 621 627 674Q669 710 717 730.5Q765 751 818 751ZM1110 474Q1110 541 1085.5 602Q1061 663 1016 708Q934 787 818 787Q752 787 697.5 762.5Q643 738 600 700Q550 743 495 765.5Q440 788 379 788Q265 788 184 710Q139 665 114 603.5Q89 542 89 473Q89 400 114 331.5Q139 263 179 205Q211 157 253.5 112Q296 67 350 25Q395 -11 437 -38.5Q479 -66 512 -85Q545 -104 566 -113.5Q587 -123 589 -124Q598 -128 607 -124Q609 -123 630 -113.5Q651 -104 684.5 -85Q718 -66 760.5 -39Q803 -12 848 24Q954 107 1019 203Q1062 266 1086 334.5Q1110 403 1110 474ZM1053 734Q1101 684 1127.5 615.5Q1154 547 1154 473Q1154 400 1131.5 332Q1109 264 1070.5 202Q1032 140 980.5 85.5Q929 31 871 -15Q813 -61 750.5 -98Q688 -135 629 -162Q611 -170 598 -170Q585 -170 567 -162Q505 -134 442 -96Q379 -58 321 -11Q263 36 212.5 91Q162 146 125 207.5Q88 269 66.5 336.5Q45 404 45 475Q45 550 72 618.5Q99 687 147 737Q193 784 253.5 807Q314 830 382 830Q449 830 504.5 806Q560 782 604 744Q652 787 706.5 807.5Q761 828 821 828Q888 828 948 804.5Q1008 781 1053 734Z" glyph-name="apple" horiz-adv-x="1199" unicode="&#63743;" /><glyph d="M381 172Q364 172 333 178.5Q302 185 270.5 193.5Q239 202 213 208.5Q187 215 179 215Q165 215 159.5 208Q154 201 154 190V174H37V222Q37 234 38.5 254Q40 274 49.5 293.5Q59 313 80 327.5Q101 342 140 342Q157 342 188 335.5Q219 329 250.5 320.5Q282 312 308 305.5Q334 299 342 299Q356 299 361 306Q366 313 366 324V340H484V292Q484 280 482.5 259.5Q481 239 471.5 219.5Q462 200 441 186Q420 172 381 172ZM381 377Q364 377 333 383.5Q302 390 270.5 398.5Q239 407 213 413.5Q187 420 179 420Q165 420 159.5 413Q154 406 154 395V379H37V427Q37 439 38.5 459Q40 479 49.5 498.5Q59 518 80 532.5Q101 547 140 547Q157 547 188 540.5Q219 534 250.5 525.5Q282 517 308 510.5Q334 504 342 504Q356 504 361 511Q366 518 366 529V545H484V497Q484 485 482.5 464.5Q481 444 471.5 424.5Q462 405 441 391Q420 377 381 377Z" glyph-name="approxequal" horiz-adv-x="520" unicode="&#8776;" /><glyph d="M136 275Q149 275 171 270Q193 265 214.5 259Q236 253 254 248Q272 243 278 243Q297 243 297 260V274H407V219Q407 208 406 191.5Q405 175 397 160Q389 145 371.5 134Q354 123 322 123Q308 123 286.5 128Q265 133 243 139Q221 145 203 150Q185 155 179 155Q160 155 160 139V125H50V179Q50 190 51.5 206.5Q53 223 61 238Q69 253 86.5 264Q104 275 136 275ZM136 448Q149 448 171 443Q193 438 214.5 432Q236 426 254 421Q272 416 278 416Q297 416 297 433V447H407V392Q407 381 406 364.5Q405 348 397 333Q389 318 371.5 307Q354 296 322 296Q308 296 286.5 301Q265 306 243 312.5Q221 319 203 324Q185 329 179 329Q160 329 160 312V298H50V352Q50 363 51.5 379.5Q53 396 61 411Q69 426 86.5 437Q104 448 136 448Z" glyph-name="approxequal.smcp" horiz-adv-x="456" unicode="&#62005;" /><glyph d="M245 565Q265 565 279 579.5Q293 594 293 615Q293 637 279 651.5Q265 666 245 666Q225 666 211 651.5Q197 637 197 615Q197 594 211 579.5Q225 565 245 565ZM245 495Q219 495 196 504Q173 513 156 529.5Q139 546 129 567.5Q119 589 119 615Q119 642 129 664Q139 686 156 702Q173 718 196 727Q219 736 245 736Q271 736 294 727Q317 718 334 702Q351 686 361 664Q371 642 371 615Q371 589 361 567.5Q351 546 334 529.5Q317 513 294 504Q271 495 245 495ZM310 305Q310 330 291 344.5Q272 359 234 359Q199 359 160.5 345Q122 331 96 316L45 414Q70 430 101 442Q127 453 163 461.5Q199 470 241 470Q280 470 316 460.5Q352 451 379.5 431Q407 411 423.5 378.5Q440 346 440 301V0H310V43Q292 16 256.5 2Q221 -12 182 -12Q146 -12 116.5 0Q87 12 66 32Q45 52 33.5 78Q22 104 22 132Q22 198 66.5 235.5Q111 273 188 273H278Q310 273 310 300ZM221 83Q256 83 283 102Q310 121 310 164V197Q304 191 294 189Q284 187 270 187H221Q190 187 173 174Q156 161 156 137Q156 114 173.5 98.5Q191 83 221 83Z" glyph-name="aring" horiz-adv-x="491" unicode="&#229;" /><glyph d="M393 293 542 428 625 343 332 66 38 343 121 428 270 293V653H393Z" glyph-name="arrow.down" horiz-adv-x="664" unicode="&#62245;" /><glyph d="M393 66H270V426L121 291L38 376L332 653L625 376L542 291L393 426Z" glyph-name="arrow.up" horiz-adv-x="664" unicode="&#62244;" /><glyph d="M312 237 513 227 511 108 108 120 96 523 215 525 225 324 480 579 567 492Z" glyph-name="arrowdown.left" horiz-adv-x="664" unicode="&#62248;" /><glyph d="M96 492 183 579 438 324 448 525 567 523 555 120 152 108 150 227 351 237Z" glyph-name="arrowdown.right" horiz-adv-x="664" unicode="&#62249;" /><glyph d="M567 195 480 108 225 363 215 162 96 164 108 567 511 579 513 460 312 450Z" glyph-name="arrowup.left" horiz-adv-x="664" unicode="&#62246;" /><glyph d="M351 450 150 460 152 579 555 567 567 164 448 162 438 363 183 108 96 195Z" glyph-name="arrowup.right" horiz-adv-x="664" unicode="&#62247;" /><glyph d="M190 700H351L494 225H361L269 563L172 225H38Z" glyph-name="asciicircum" horiz-adv-x="532" unicode="^" /><glyph d="M383 271Q366 271 335 277.5Q304 284 272.5 292.5Q241 301 215 307.5Q189 314 181 314Q167 314 161.5 307Q156 300 156 289V273H39V321Q39 333 40.5 353Q42 373 51.5 392.5Q61 412 82 426.5Q103 441 142 441Q159 441 190 434.5Q221 428 252.5 419.5Q284 411 310 404.5Q336 398 344 398Q358 398 363 405Q368 412 368 423V439H486V391Q486 379 484.5 358.5Q483 338 473.5 318.5Q464 299 443 285Q422 271 383 271Z" glyph-name="asciitilde" horiz-adv-x="520" unicode="~" /><glyph d="M205 483Q205 462 220 447Q235 432 256 432Q278 432 293 447Q308 462 308 483Q308 504 293 519Q278 534 256 534Q235 534 220 519Q205 504 205 483ZM336 483Q357 478 380 472.5Q403 467 422.5 458.5Q442 450 455 437Q468 424 468 404Q468 378 450.5 361.5Q433 345 411 345Q399 345 385 352Q371 359 355 370Q339 381 323.5 394.5Q308 408 293 421Q296 412 300.5 398.5Q305 385 309 371Q313 357 315.5 344.5Q318 332 318 323Q318 295 303.5 275.5Q289 256 257 256Q224 256 209.5 275.5Q195 295 195 323Q195 332 197.5 344.5Q200 357 204 371Q208 385 212.5 398.5Q217 412 220 421Q205 408 189.5 394.5Q174 381 158 370Q142 359 128 352Q114 345 102 345Q80 345 62.5 361.5Q45 378 45 404Q45 424 58 437Q71 450 90.5 458.5Q110 467 133 472.5Q156 478 177 483Q156 488 133 493.5Q110 499 90.5 507.5Q71 516 58 529Q45 542 45 562Q45 588 62.5 604.5Q80 621 102 621Q114 621 128 614Q142 607 158 596Q174 585 189.5 571.5Q205 558 220 545Q217 554 212.5 567.5Q208 581 204 595Q200 609 197.5 621.5Q195 634 195 643Q195 671 209.5 690.5Q224 710 257 710Q289 710 303.5 690.5Q318 671 318 643Q318 634 315.5 621.5Q313 609 309 595Q305 581 300.5 567.5Q296 554 293 545Q308 558 323.5 571.5Q339 585 355 596Q371 607 385 614Q399 621 411 621Q433 621 450.5 604.5Q468 588 468 562Q468 542 455 529Q442 516 422.5 507.5Q403 499 380 493.5Q357 488 336 483Z" glyph-name="asterisk" horiz-adv-x="513" unicode="*" /><glyph d="M416 -12Q380 -12 350.5 0Q321 12 300 32Q279 52 267.5 78Q256 104 256 132Q256 198 300.5 235.5Q345 273 422 273H512Q544 273 544 300V305Q544 330 525 344.5Q506 359 468 359Q433 359 394.5 345Q356 331 330 316L279 414Q304 430 335 442Q361 453 397 461.5Q433 470 475 470Q514 470 550 460.5Q586 451 613.5 431Q641 411 657.5 378.5Q674 346 674 301V107Q674 70 704 70Q728 70 746.5 88.5Q765 107 777.5 135Q790 163 797 197Q804 231 804 262Q804 335 778 393Q752 451 707 491Q662 531 601.5 552.5Q541 574 472 574Q403 574 342 549.5Q281 525 235 479.5Q189 434 162 370Q135 306 135 228Q135 150 161.5 86.5Q188 23 234.5 -22Q281 -67 344 -92Q407 -117 481 -117Q535 -117 585 -105Q635 -93 673 -66L799 -78Q741 -136 657.5 -166Q574 -196 481 -196Q386 -196 305.5 -165Q225 -134 166 -78.5Q107 -23 74 55Q41 133 41 228Q41 322 74.5 400.5Q108 479 168 535Q228 591 309.5 622.5Q391 654 487 654Q566 654 639.5 627Q713 600 769 550Q825 500 858.5 427Q892 354 892 263Q892 203 878.5 152.5Q865 102 838.5 65.5Q812 29 772.5 8.5Q733 -12 681 -12Q630 -12 602 7.5Q574 27 563 51Q538 19 499.5 3.5Q461 -12 416 -12ZM455 187Q424 187 407 174Q390 161 390 137Q390 114 407.5 98.5Q425 83 455 83Q490 83 517 102Q544 121 544 164V197Q538 191 527.5 189Q517 187 504 187Z" glyph-name="at" horiz-adv-x="926" unicode="@" /><glyph d="M408 119Q372 119 342.5 131Q313 143 292 163Q271 183 259.5 209Q248 235 248 263Q248 329 292.5 366.5Q337 404 414 404H504Q536 404 536 431V436Q536 461 517 475.5Q498 490 460 490Q425 490 386.5 476Q348 462 322 447L271 545Q296 561 327 573Q353 584 389 592.5Q425 601 467 601Q506 601 542 591.5Q578 582 605.5 562Q633 542 649.5 509.5Q666 477 666 432V238Q666 201 696 201Q720 201 738.5 219.5Q757 238 769.5 266Q782 294 789 328Q796 362 796 393Q796 466 770 524Q744 582 699 622Q654 662 593.5 683.5Q533 705 464 705Q395 705 334 680.5Q273 656 227 610.5Q181 565 154 501Q127 437 127 359Q127 281 153.5 217.5Q180 154 226.5 109Q273 64 336 39Q399 14 473 14Q527 14 577 26Q627 38 665 65L791 53Q733 -5 649.5 -35Q566 -65 473 -65Q378 -65 297.5 -34Q217 -3 158 52.5Q99 108 66 186Q33 264 33 359Q33 453 66.5 531.5Q100 610 160 666Q220 722 301.5 753.5Q383 785 479 785Q558 785 631.5 758Q705 731 761 681Q817 631 850.5 558Q884 485 884 394Q884 334 870.5 283.5Q857 233 830.5 196.5Q804 160 764.5 139.5Q725 119 673 119Q622 119 594 138.5Q566 158 555 182Q530 150 491.5 134.5Q453 119 408 119ZM447 318Q416 318 399 305Q382 292 382 268Q382 245 399.5 229.5Q417 214 447 214Q482 214 509 233Q536 252 536 295V328Q530 322 519.5 320Q509 318 496 318Z" glyph-name="at.alt" horiz-adv-x="908" unicode="&#62208;" /><glyph d="M73 523Q73 537 75 561Q77 585 87 608Q97 631 118.5 648Q140 665 179 665Q197 665 214.5 659Q232 653 247 646Q262 639 274 633Q286 627 293 627Q315 627 315 656V662H416V655Q416 641 414 617.5Q412 594 402 571Q392 548 370.5 531Q349 514 310 514Q292 514 274.5 520Q257 526 242 533Q227 540 215 546Q203 552 196 552Q174 552 174 523V516H73ZM310 305Q310 330 291 344.5Q272 359 234 359Q199 359 160.5 345Q122 331 96 316L45 414Q70 430 101 442Q127 453 163 461.5Q199 470 241 470Q280 470 316 460.5Q352 451 379.5 431Q407 411 423.5 378.5Q440 346 440 301V0H310V43Q292 16 256.5 2Q221 -12 182 -12Q146 -12 116.5 0Q87 12 66 32Q45 52 33.5 78Q22 104 22 132Q22 198 66.5 235.5Q111 273 188 273H278Q310 273 310 300ZM221 83Q256 83 283 102Q310 121 310 164V197Q304 191 294 189Q284 187 270 187H221Q190 187 173 174Q156 161 156 137Q156 114 173.5 98.5Q191 83 221 83Z" glyph-name="atilde" horiz-adv-x="491" unicode="&#227;" /><glyph d="M186 0H56V700H186V474Q186 451 185 430Q184 409 184 399Q201 428 239 449Q277 470 329 470Q376 470 416.5 452Q457 434 487 402Q517 370 534 325.5Q551 281 551 229Q551 176 534 132Q517 88 487 56Q457 24 416 6Q375 -12 328 -12Q279 -12 241 8.5Q203 29 186 58ZM300 354Q274 354 252.5 344.5Q231 335 215.5 318Q200 301 191.5 278.5Q183 256 183 229Q183 203 191.5 180Q200 157 215.5 140Q231 123 252.5 113Q274 103 300 103Q326 103 347.5 113Q369 123 384.5 140Q400 157 408.5 180Q417 203 417 229Q417 256 408.5 278.5Q400 301 384.5 318Q369 335 347.5 344.5Q326 354 300 354Z" glyph-name="b" horiz-adv-x="579" unicode="b" /><glyph d="M386 0H266L29 700H149Z" glyph-name="backslash" horiz-adv-x="416" unicode="\" /><glyph d="M333 0H221L31 560H143Z" glyph-name="backslash.smcp" horiz-adv-x="364" unicode="&#58472;" /><glyph d="M70 -93V760H174V-93Z" glyph-name="bar" horiz-adv-x="244" unicode="|" /><glyph d="M70 608H161V-74H70Z" glyph-name="bar.smcp" horiz-adv-x="231" unicode="&#58473;" /><glyph d="M242 393Q242 381 240.5 367Q239 353 233.5 339Q228 325 216.5 313Q205 301 186 293Q205 285 216.5 273Q228 261 233.5 247Q239 233 240.5 219Q242 205 242 193V-36H358V-153H106V232H31V351H106V700H358V583H242Z" glyph-name="braceleft" horiz-adv-x="394" unicode="{" /><glyph d="M241 468Q241 456 239.5 442Q238 428 232.5 414Q227 400 215.5 388Q204 376 185 368Q204 360 215.5 348Q227 336 232.5 322Q238 308 239.5 294Q241 280 241 268V39H357V-78H105V307H30V426H105V775H357V658H241Z" glyph-name="braceleft.cap" horiz-adv-x="396" unicode="&#58517;" /><glyph d="M218 365Q218 357 216.5 346.5Q215 336 210 326Q205 316 195.5 307Q186 298 171 292Q186 286 195.5 277Q205 268 210 258Q215 248 216.5 237.5Q218 227 218 219V45H302V-64H91V235H32V346H91V618H302V508H218Z" glyph-name="braceleft.smcp" horiz-adv-x="343" unicode="&#58525;" /><glyph d="M152 583H36V700H288V351H363V232H288V-153H36V-36H152V193Q152 205 153.5 219Q155 233 160.5 247Q166 261 177 273Q188 285 208 293Q188 301 177 313Q166 325 160.5 339Q155 353 153.5 367Q152 381 152 393Z" glyph-name="braceright" horiz-adv-x="394" unicode="}" /><glyph d="M155 658H39V775H291V426H366V307H291V-78H39V39H155V268Q155 280 156.5 294Q158 308 163.5 322Q169 336 180 348Q191 360 211 368Q191 376 180 388Q169 400 163.5 414Q158 428 156.5 442Q155 456 155 468Z" glyph-name="braceright.cap" horiz-adv-x="396" unicode="&#58518;" /><glyph d="M125 508H41V618H252V346H311V235H252V-64H41V45H125V219Q125 227 126.5 237.5Q128 248 133 258Q138 268 147.5 277Q157 286 172 292Q157 298 147.5 307Q138 316 133 326Q128 336 126.5 346.5Q125 357 125 365Z" glyph-name="braceright.smcp" horiz-adv-x="343" unicode="&#58526;" /><glyph d="M206 583V-37H339V-153H70V700H339V583Z" glyph-name="bracketleft" horiz-adv-x="375" unicode="[" /><glyph d="M211 658V38H344V-78H75V775H344V658Z" glyph-name="bracketleft.cap" horiz-adv-x="383" unicode="&#58515;" /><glyph d="M197 508V45H301V-64H70V618H301V508Z" glyph-name="bracketleft.smcp" horiz-adv-x="340" unicode="&#58523;" /><glyph d="M36 583V700H305V-153H36V-36H169V583Z" glyph-name="bracketright" horiz-adv-x="375" unicode="]" /><glyph d="M39 658V775H308V-78H39V39H172V658Z" glyph-name="bracketright.cap" horiz-adv-x="383" unicode="&#58516;" /><glyph d="M39 508V618H270V-64H39V45H143V508Z" glyph-name="bracketright.smcp" horiz-adv-x="340" unicode="&#58524;" /><glyph d="M213 681H318V630Q318 596 306.5 570.5Q295 545 275.5 528.5Q256 512 230 503.5Q204 495 174 495Q144 495 118 503.5Q92 512 72.5 528.5Q53 545 41.5 570.5Q30 596 30 630V681H134V629Q134 612 144 601Q154 590 174 590Q194 590 203.5 601Q213 612 213 629Z" glyph-name="breve" horiz-adv-x="348" unicode="&#728;" /><glyph d="M175 698Q190 698 198 703Q206 708 206 725V733H299V717Q299 660 265.5 633.5Q232 607 175 607Q118 607 84.5 633.5Q51 660 51 717V733H144V725Q144 708 152 703Q160 698 175 698Z" glyph-name="breve.smcp" horiz-adv-x="350" unicode="&#63220;" /><glyph d="M70 -93V275H174V-93ZM70 391V760H174V391Z" glyph-name="brokenbar" horiz-adv-x="244" unicode="&#166;" /><glyph d="M70 -74V224H161V-74ZM70 309V608H161V309Z" glyph-name="brokenbar.smcp" horiz-adv-x="231" unicode="&#58475;" /><glyph d="M68 359Q68 384 77.5 406Q87 428 103.5 444.5Q120 461 142 470.5Q164 480 189 480Q214 480 236 470.5Q258 461 274.5 444.5Q291 428 300.5 406Q310 384 310 359Q310 334 300.5 312Q291 290 274.5 273.5Q258 257 236 247.5Q214 238 189 238Q164 238 142 247.5Q120 257 103.5 273.5Q87 290 77.5 312Q68 334 68 359Z" glyph-name="bullet" horiz-adv-x="378" unicode="&#8226;" /><glyph d="M272 354Q221 354 189 318.5Q157 283 157 229Q157 175 189 139.5Q221 104 272 104Q308 104 334 123Q360 142 373 174L495 136Q484 102 462 74.5Q440 47 410.5 28Q381 9 345.5 -1.5Q310 -12 271 -12Q220 -12 175.5 6Q131 24 98 56Q65 88 46 132Q27 176 27 229Q27 281 46 325.5Q65 370 98 402Q131 434 175.5 452Q220 470 271 470Q310 470 345.5 459.5Q381 449 410.5 429.5Q440 410 462 382.5Q484 355 495 321L373 284Q360 316 334 335Q308 354 272 354Z" glyph-name="c" horiz-adv-x="516" unicode="c" /><glyph d="M249 700H415L323 527H199ZM272 354Q221 354 189 318.5Q157 283 157 229Q157 175 189 139.5Q221 104 272 104Q308 104 334 123Q360 142 373 174L495 136Q484 102 462 74.5Q440 47 410.5 28Q381 9 345.5 -1.5Q310 -12 271 -12Q220 -12 175.5 6Q131 24 98 56Q65 88 46 132Q27 176 27 229Q27 281 46 325.5Q65 370 98 402Q131 434 175.5 452Q220 470 271 470Q310 470 345.5 459.5Q381 449 410.5 429.5Q440 410 462 382.5Q484 355 495 321L373 284Q360 316 334 335Q308 354 272 354Z" glyph-name="cacute" horiz-adv-x="516" unicode="&#263;" /><glyph d="M28 700H164L202 623L242 700H378L276 527H129Z" glyph-name="caron" horiz-adv-x="407" unicode="&#711;" /><glyph d="M210 730H320L244 605H106L30 730H139L175 675Z" glyph-name="caron.smcp" horiz-adv-x="350" unicode="&#63221;" /><glyph d="M82 700H218L256 623L296 700H432L330 527H183ZM272 354Q221 354 189 318.5Q157 283 157 229Q157 175 189 139.5Q221 104 272 104Q308 104 334 123Q360 142 373 174L495 136Q484 102 462 74.5Q440 47 410.5 28Q381 9 345.5 -1.5Q310 -12 271 -12Q220 -12 175.5 6Q131 24 98 56Q65 88 46 132Q27 176 27 229Q27 281 46 325.5Q65 370 98 402Q131 434 175.5 452Q220 470 271 470Q310 470 345.5 459.5Q381 449 410.5 429.5Q440 410 462 382.5Q484 355 495 321L373 284Q360 316 334 335Q308 354 272 354Z" glyph-name="ccaron" horiz-adv-x="516" unicode="&#269;" /><glyph d="M187 2Q152 14 123 35.5Q94 57 73 86Q52 115 40 151.5Q28 188 28 229Q28 281 47 325.5Q66 370 99 402Q132 434 176.5 452Q221 470 272 470Q311 470 346.5 459.5Q382 449 411.5 429.5Q441 410 463 382.5Q485 355 496 321L374 284Q361 316 335 335Q309 354 273 354Q222 354 190 318.5Q158 283 158 229Q158 175 190 139.5Q222 104 273 104Q309 104 335 123Q361 142 374 174L496 136Q478 81 434 44.5Q390 8 331 -5L248 -174H115Z" glyph-name="ccedilla" horiz-adv-x="518" unicode="&#231;" /><glyph d="M183 700H330L432 527H296L256 604L218 527H82ZM272 354Q221 354 189 318.5Q157 283 157 229Q157 175 189 139.5Q221 104 272 104Q308 104 334 123Q360 142 373 174L495 136Q484 102 462 74.5Q440 47 410.5 28Q381 9 345.5 -1.5Q310 -12 271 -12Q220 -12 175.5 6Q131 24 98 56Q65 88 46 132Q27 176 27 229Q27 281 46 325.5Q65 370 98 402Q131 434 175.5 452Q220 470 271 470Q310 470 345.5 459.5Q381 449 410.5 429.5Q440 410 462 382.5Q484 355 495 321L373 284Q360 316 334 335Q308 354 272 354Z" glyph-name="ccircumflex" horiz-adv-x="516" unicode="&#265;" /><glyph d="M170 614Q170 651 195.5 676.5Q221 702 257 702Q294 702 319.5 676.5Q345 651 345 614Q345 578 319.5 552.5Q294 527 257 527Q221 527 195.5 552.5Q170 578 170 614ZM272 354Q221 354 189 318.5Q157 283 157 229Q157 175 189 139.5Q221 104 272 104Q308 104 334 123Q360 142 373 174L495 136Q484 102 462 74.5Q440 47 410.5 28Q381 9 345.5 -1.5Q310 -12 271 -12Q220 -12 175.5 6Q131 24 98 56Q65 88 46 132Q27 176 27 229Q27 281 46 325.5Q65 370 98 402Q131 434 175.5 452Q220 470 271 470Q310 470 345.5 459.5Q381 449 410.5 429.5Q440 410 462 382.5Q484 355 495 321L373 284Q360 316 334 335Q308 354 272 354Z" glyph-name="cdotaccent" horiz-adv-x="516" unicode="&#267;" /><glyph d="M108 13H257L164 -174H31Z" glyph-name="cedilla" horiz-adv-x="289" unicode="&#184;" /><glyph d="M125 12H261L196 -132H89Z" glyph-name="cedilla.smcp" horiz-adv-x="350" unicode="&#63416;" /><glyph d="M165 352Q165 316 179 288Q193 260 218 244L254 474Q213 465 189 432Q165 399 165 352ZM200 123Q164 135 133.5 156.5Q103 178 81 207.5Q59 237 47 273.5Q35 310 35 352Q35 403 53.5 447Q72 491 104 523Q136 555 179 573.5Q222 592 272 593L289 700H367L349 584Q404 569 445 532.5Q486 496 503 444L381 407Q373 426 360 441Q347 456 330 465L294 227Q325 231 347 249.5Q369 268 381 297L503 259Q492 225 470 197.5Q448 170 418.5 151Q389 132 353.5 121.5Q318 111 279 111H276L259 0H181Z" glyph-name="cent" horiz-adv-x="541" unicode="&#162;" /><glyph d="M156 282Q156 240 182 216L211 364Q186 356 171 334Q156 312 156 282ZM231 87 214 0H140L159 100Q104 120 69.5 168Q35 216 35 282Q35 324 50.5 360Q66 396 92.5 421.5Q119 447 155 461.5Q191 476 233 476L250 560H324L305 464Q350 449 382 416Q414 383 425 335L307 309Q299 335 282 349L253 198Q273 203 287 217.5Q301 232 307 254L425 228Q417 195 399.5 169Q382 143 357 125Q332 107 300.5 97Q269 87 234 87Z" glyph-name="cent.smcp" horiz-adv-x="458" unicode="&#63109;" /><glyph d="M129 700H276L378 527H242L202 604L164 527H28Z" glyph-name="circumflex" horiz-adv-x="407" unicode="&#710;" /><glyph d="M175 660 139 605H30L106 730H244L320 605H210Z" glyph-name="circumflex.smcp" horiz-adv-x="350" unicode="&#63222;" /><glyph d="M58 370Q58 407 83.5 432.5Q109 458 145 458Q182 458 207.5 432.5Q233 407 233 370Q233 334 207.5 308.5Q182 283 145 283Q109 283 83.5 308.5Q58 334 58 370ZM58 75Q58 111 83.5 136.5Q109 162 145 162Q182 162 207.5 136.5Q233 111 233 75Q233 38 207.5 13Q182 -12 145 -12Q109 -12 83.5 13Q58 38 58 75Z" glyph-name="colon" horiz-adv-x="291" unicode=":" /><glyph d="M48 74Q48 111 73 136Q98 161 135 161Q173 161 199 136Q225 111 225 74Q225 63 221 48.5Q217 34 212 24L133 -123H28L85 3Q68 14 58 32.5Q48 51 48 74Z" glyph-name="comma" horiz-adv-x="273" unicode="," /><glyph d="M60 -117Q60 -85 82.5 -63Q105 -41 137 -41Q170 -41 193 -63Q216 -85 216 -117Q216 -126 212 -141Q208 -156 203 -164L145 -270H53L93 -179Q78 -169 69 -153Q60 -137 60 -117Z" glyph-name="commaaccent" horiz-adv-x="273" unicode="&#58388;" /><glyph d="M104 -113Q104 -83 125.5 -61.5Q147 -40 176 -40Q211 -40 231 -62Q251 -84 251 -113Q251 -127 245 -140.5Q239 -154 232 -165L180 -245H98L131 -168Q104 -146 104 -113Z" glyph-name="commaaccent.smcp" horiz-adv-x="350" unicode="&#63080;" /><glyph d="M415 52Q478 52 531 74Q584 96 621.5 135.5Q659 175 680 229.5Q701 284 701 348Q701 412 680 466Q659 520 621.5 559.5Q584 599 531 621Q478 643 415 643Q352 643 299.5 621Q247 599 209.5 559.5Q172 520 151 466Q130 412 130 348Q130 284 151 229.5Q172 175 209.5 135.5Q247 96 299.5 74Q352 52 415 52ZM415 723Q494 723 562.5 695Q631 667 682 617Q733 567 762.5 498.5Q792 430 792 348Q792 266 762.5 197.5Q733 129 682 79.5Q631 30 562.5 2Q494 -26 415 -26Q336 -26 267.5 2Q199 30 148 79.5Q97 129 67.5 197.5Q38 266 38 348Q38 430 67.5 498.5Q97 567 148 617Q199 667 267.5 695Q336 723 415 723ZM420 563Q455 563 487 551.5Q519 540 545.5 519Q572 498 591 468Q610 438 619 401L515 398Q504 433 479.5 453Q455 473 420 473Q367 473 336 438Q305 403 305 350Q305 296 336 261Q367 226 420 226Q455 226 479.5 246Q504 266 515 301L619 298Q610 261 591 231Q572 201 545.5 180Q519 159 487 148Q455 137 420 137Q375 137 336 153Q297 169 267.5 197Q238 225 221 264Q204 303 204 350Q204 396 220.5 435.5Q237 475 266 503Q295 531 334.5 547Q374 563 420 563Z" glyph-name="copyright" horiz-adv-x="830" unicode="&#169;" /><glyph d="M273 354Q222 354 190 318.5Q158 283 158 229Q158 175 190 139.5Q222 104 273 104Q309 104 335 123Q361 142 374 174L496 136Q485 102 463 74.5Q441 47 411.5 28Q382 9 346.5 -1.5Q311 -12 272 -12Q221 -12 176.5 6Q132 24 99 56Q66 88 47 132Q28 176 28 229Q28 277 44 317.5Q60 358 87.5 389.5Q115 421 153 441Q191 461 236 467Q222 487 216 509Q210 531 210 553Q210 574 217.5 596.5Q225 619 244 638Q263 657 294.5 669Q326 681 373 681H736V458H835V348H736V141Q736 119 750 113.5Q764 108 779 108Q791 108 802 108Q813 108 821 109Q831 110 839 111V0Q821 -2 803 -3Q787 -5 769.5 -5.5Q752 -6 738 -6Q714 -6 690 -3Q666 0 647.5 11Q629 22 617.5 42Q606 62 606 97V348H534V458H606V571H394Q353 571 337 551Q321 531 321 508Q321 481 336 462Q393 448 435.5 411.5Q478 375 496 321L374 284Q361 316 335 335Q309 354 273 354Z" glyph-name="ct" horiz-adv-x="869" unicode="&#62211;" /><glyph d="M574 349Q574 391 560 427.5Q546 464 520.5 491.5Q495 519 459.5 535Q424 551 382 551Q340 551 304.5 535Q269 519 244 491.5Q219 464 205 427.5Q191 391 191 349Q191 307 205 270.5Q219 234 244 206.5Q269 179 304.5 163Q340 147 382 147Q424 147 459.5 163Q495 179 520.5 206.5Q546 234 560 270.5Q574 307 574 349ZM79 349Q79 394 93 440Q107 486 135 524L42 613L119 691L211 602Q249 628 292.5 642Q336 656 382 656Q428 656 472 642Q516 628 554 602L645 691L722 613L629 524Q657 486 671 440Q685 394 685 349Q685 304 671 258Q657 212 629 174L722 85L645 7L554 96Q516 70 472 55.5Q428 41 382 41Q336 41 292 55.5Q248 70 210 96L119 7L42 85L135 174Q107 212 93 258Q79 304 79 349Z" glyph-name="currency" horiz-adv-x="764" unicode="&#164;" /><glyph d="M393 58Q376 29 338 8.5Q300 -12 250 -12Q203 -12 162.5 6Q122 24 92 56Q62 88 45 132Q28 176 28 229Q28 281 45 325.5Q62 370 91.5 402Q121 434 161.5 452Q202 470 249 470Q302 470 340 449Q378 428 395 399Q395 410 394 435Q393 460 393 486V700H523V0H393ZM279 354Q253 354 231.5 344.5Q210 335 194.5 318Q179 301 170.5 278.5Q162 256 162 229Q162 203 170.5 180Q179 157 194.5 140Q210 123 231.5 113Q253 103 279 103Q305 103 326.5 113Q348 123 363.5 140Q379 157 387.5 180Q396 203 396 229Q396 256 387.5 278.5Q379 301 363.5 318Q348 335 326.5 344.5Q305 354 279 354Z" glyph-name="d" horiz-adv-x="579" unicode="d" /><glyph d="M36 516H195V700H323V516H483V397H323V0H195V397H36Z" glyph-name="dagger" horiz-adv-x="520" unicode="&#8224;" /><glyph d="M36 516H195V700H323V516H483V397H323V316H483V197H323V0H195V197H36V316H195V397H36Z" glyph-name="daggerdbl" horiz-adv-x="520" unicode="&#8225;" /><glyph d="M575 636Q575 668 597.5 690Q620 712 652 712Q685 712 708 690Q731 668 731 636Q731 627 727 612Q723 597 718 589L660 483H568L608 574Q593 584 584 600Q575 616 575 636ZM393 58Q376 29 338 8.5Q300 -12 250 -12Q203 -12 162.5 6Q122 24 92 56Q62 88 45 132Q28 176 28 229Q28 281 45 325.5Q62 370 91.5 402Q121 434 161.5 452Q202 470 249 470Q302 470 340 449Q378 428 395 399Q395 410 394 435Q393 460 393 486V700H523V0H393ZM279 354Q253 354 231.5 344.5Q210 335 194.5 318Q179 301 170.5 278.5Q162 256 162 229Q162 203 170.5 180Q179 157 194.5 140Q210 123 231.5 113Q253 103 279 103Q305 103 326.5 113Q348 123 363.5 140Q379 157 387.5 180Q396 203 396 229Q396 256 387.5 278.5Q379 301 363.5 318Q348 335 326.5 344.5Q305 354 279 354Z" glyph-name="dcaron" horiz-adv-x="579" unicode="&#271;" /><glyph d="M279 354Q253 354 231.5 344.5Q210 335 194.5 318Q179 301 170.5 278.5Q162 256 162 229Q162 203 170.5 180Q179 157 194.5 140Q210 123 231.5 113Q253 103 279 103Q305 103 326.5 113Q348 123 363.5 140Q379 157 387.5 180Q396 203 396 229Q396 256 387.5 278.5Q379 301 363.5 318Q348 335 326.5 344.5Q305 354 279 354ZM263 646H393V700H523V646H580V536H523V0H393V58Q376 29 338 8.5Q300 -12 250 -12Q203 -12 162.5 6Q122 24 92 56Q62 88 45 132Q28 176 28 229Q28 281 45 325.5Q62 370 91.5 402Q121 434 161.5 452Q202 470 249 470Q302 470 340 449Q378 428 395 399Q395 410 394 435Q393 460 393 486V536H263Z" glyph-name="dcroat" horiz-adv-x="579" unicode="&#273;" /><glyph d="M131 543Q131 509 153 485.5Q175 462 207 462Q238 462 260 485.5Q282 509 282 543Q282 559 276 573.5Q270 588 260 599Q250 610 236 616.5Q222 623 207 623Q191 623 177.5 616.5Q164 610 153.5 599Q143 588 137 573.5Q131 559 131 543ZM38 543Q38 578 51 608.5Q64 639 87 662Q110 685 141 698.5Q172 712 207 712Q242 712 272.5 698.5Q303 685 326 662Q349 639 362.5 608.5Q376 578 376 543Q376 508 362.5 477Q349 446 326 423Q303 400 272.5 387Q242 374 207 374Q172 374 141 387Q110 400 87 423Q64 446 51 477Q38 508 38 543Z" glyph-name="degree" horiz-adv-x="414" unicode="&#176;" /><glyph d="M215 584Q215 616 238 639Q261 662 293 662Q325 662 348.5 639Q372 616 372 584Q372 552 348.5 529Q325 506 293 506Q261 506 238 529Q215 552 215 584ZM24 584Q24 600 30 614Q36 628 46.5 638.5Q57 649 71.5 655.5Q86 662 102 662Q134 662 157.5 639Q181 616 181 584Q181 552 157.5 529Q134 506 102 506Q86 506 71.5 512.5Q57 519 46.5 529.5Q36 540 30 554Q24 568 24 584Z" glyph-name="dieresis" horiz-adv-x="396" unicode="&#168;" /><glyph d="M185 679Q185 706 206 726.5Q227 747 255 747Q268 747 280.5 741.5Q293 736 302.5 726.5Q312 717 317.5 704.5Q323 692 323 679Q323 652 302 632Q281 612 255 612Q227 612 206 632Q185 652 185 679ZM26 679Q26 692 32 704.5Q38 717 47.5 726.5Q57 736 69.5 741.5Q82 747 95 747Q122 747 143 726.5Q164 706 164 679Q164 652 143 632Q122 612 95 612Q82 612 69.5 617.5Q57 623 47.5 632Q38 641 32 653Q26 665 26 679Z" glyph-name="dieresis.smcp" horiz-adv-x="350" unicode="&#63400;" /><glyph d="M483 297H36V416H483ZM173 535Q173 572 198.5 597.5Q224 623 260 623Q296 623 321.5 597.5Q347 572 347 535Q347 499 321.5 473.5Q296 448 260 448Q224 448 198.5 473.5Q173 499 173 535ZM173 178Q173 215 198.5 240Q224 265 260 265Q296 265 321.5 240Q347 215 347 178Q347 142 321.5 116.5Q296 91 260 91Q224 91 198.5 116.5Q173 142 173 178Z" glyph-name="divide" horiz-adv-x="520" unicode="&#247;" /><glyph d="M150 437Q150 453 156 467.5Q162 482 172.5 492.5Q183 503 197 509Q211 515 227 515Q259 515 282 492Q305 469 305 437Q305 421 299 407Q293 393 282.5 382.5Q272 372 257.5 366Q243 360 227 360Q195 360 172.5 382.5Q150 405 150 437ZM150 133Q150 165 172.5 187.5Q195 210 227 210Q259 210 282 187.5Q305 165 305 133Q305 101 282 78.5Q259 56 227 56Q195 56 172.5 78.5Q150 101 150 133ZM406 230H49V341H406Z" glyph-name="divide.smcp" horiz-adv-x="456" unicode="&#62003;" /><glyph d="M215 520Q215 499 227.5 481Q240 463 272 446L293 586Q261 584 238 566.5Q215 549 215 520ZM378 190Q378 215 363 233Q348 251 322 268L299 115Q336 120 357 140.5Q378 161 378 190ZM451 514Q413 550 369 570L344 412L349 410Q391 390 424 369Q457 348 480 322.5Q503 297 515 265.5Q527 234 527 195Q527 156 510.5 118.5Q494 81 463 52Q432 23 387 5.5Q342 -12 284 -12H279L267 -93H189L203 -3Q152 8 110.5 33Q69 58 33 93L110 197Q136 171 164.5 152.5Q193 134 222 124L250 304L219 319Q148 352 107 400.5Q66 449 66 515Q66 561 85 597.5Q104 634 136.5 659.5Q169 685 211 698.5Q253 712 300 712Q303 712 306 711.5Q309 711 312 711L323 780H401L388 697Q426 685 462.5 663.5Q499 642 531 614Z" glyph-name="dollar" horiz-adv-x="570" unicode="$" /><glyph d="M196 413Q196 399 203 387Q210 375 232 364L250 455Q221 453 208.5 440Q196 427 196 413ZM310 154Q310 178 274 199L255 105Q281 107 295.5 121Q310 135 310 154ZM382 398Q368 412 352.5 422.5Q337 433 321 440L300 333L308 330Q387 295 418.5 255Q450 215 450 160Q450 128 437 97.5Q424 67 398 43Q372 19 333.5 4.5Q295 -10 245 -10Q242 -10 239 -9.5Q236 -9 233 -9L221 -70H147L161 0Q114 12 81 32.5Q48 53 31 70L104 170Q118 155 139 141Q160 127 184 118L206 230L178 242Q113 270 84.5 311.5Q56 353 56 404Q56 440 72 470Q88 500 115 522.5Q142 545 178.5 557.5Q215 570 256 570Q260 570 264 570Q268 570 272 569L283 624H357L343 556Q374 545 402.5 528.5Q431 512 454 487Z" glyph-name="dollar.smcp" horiz-adv-x="493" unicode="&#63110;" /><glyph d="M24 614Q24 651 49.5 676.5Q75 702 111 702Q148 702 173.5 676.5Q199 651 199 614Q199 578 173.5 552.5Q148 527 111 527Q75 527 49.5 552.5Q24 578 24 614Z" glyph-name="dotaccent" horiz-adv-x="223" unicode="&#729;" /><glyph d="M106 679Q106 706 127 726.5Q148 747 175 747Q202 747 222.5 726.5Q243 706 243 679Q243 652 222.5 632Q202 612 175 612Q148 612 127 632Q106 652 106 679Z" glyph-name="dotaccent.smcp" horiz-adv-x="350" unicode="&#63223;" /><glyph d="M213 0H83V348H19V458H213Z" glyph-name="dotlessi" horiz-adv-x="269" unicode="&#305;" /><glyph d="M83 348H19V458H213V-65Q213 -103 199.5 -125Q186 -147 165 -158Q144 -169 118 -172.5Q92 -176 68 -176H-1V-66H44Q64 -66 73.5 -60Q83 -54 83 -37Z" glyph-name="dotlessj" horiz-adv-x="269" unicode="&#567;" /><glyph d="M265 362Q223 362 196 338.5Q169 315 161 278H366Q361 313 334 337.5Q307 362 265 362ZM505 191H164Q169 153 197 126Q225 99 269 99Q298 99 322.5 111Q347 123 361 146L496 132Q465 58 404.5 23Q344 -12 267 -12Q216 -12 172 6Q128 24 95.5 56Q63 88 45 132Q27 176 27 229Q27 281 45 325.5Q63 370 94.5 402Q126 434 170 452Q214 470 265 470Q312 470 355.5 454Q399 438 432 405Q465 372 485 320Q505 268 505 196Z" glyph-name="e" horiz-adv-x="526" unicode="e" /><glyph d="M259 700H425L333 527H209ZM265 362Q223 362 196 338.5Q169 315 161 278H366Q361 313 334 337.5Q307 362 265 362ZM505 191H164Q169 153 197 126Q225 99 269 99Q298 99 322.5 111Q347 123 361 146L496 132Q465 58 404.5 23Q344 -12 267 -12Q216 -12 172 6Q128 24 95.5 56Q63 88 45 132Q27 176 27 229Q27 281 45 325.5Q63 370 94.5 402Q126 434 170 452Q214 470 265 470Q312 470 355.5 454Q399 438 432 405Q465 372 485 320Q505 268 505 196Z" glyph-name="eacute" horiz-adv-x="526" unicode="&#233;" /><glyph d="M302 681H407V630Q407 596 395.5 570.5Q384 545 364.5 528.5Q345 512 319 503.5Q293 495 263 495Q233 495 207 503.5Q181 512 161.5 528.5Q142 545 130.5 570.5Q119 596 119 630V681H223V629Q223 612 233 601Q243 590 263 590Q283 590 292.5 601Q302 612 302 629ZM265 362Q223 362 196 338.5Q169 315 161 278H366Q361 313 334 337.5Q307 362 265 362ZM505 191H164Q169 153 197 126Q225 99 269 99Q298 99 322.5 111Q347 123 361 146L496 132Q465 58 404.5 23Q344 -12 267 -12Q216 -12 172 6Q128 24 95.5 56Q63 88 45 132Q27 176 27 229Q27 281 45 325.5Q63 370 94.5 402Q126 434 170 452Q214 470 265 470Q312 470 355.5 454Q399 438 432 405Q465 372 485 320Q505 268 505 196Z" glyph-name="ebreve" horiz-adv-x="526" unicode="&#277;" /><glyph d="M88 700H224L262 623L302 700H438L336 527H189ZM265 362Q223 362 196 338.5Q169 315 161 278H366Q361 313 334 337.5Q307 362 265 362ZM505 191H164Q169 153 197 126Q225 99 269 99Q298 99 322.5 111Q347 123 361 146L496 132Q465 58 404.5 23Q344 -12 267 -12Q216 -12 172 6Q128 24 95.5 56Q63 88 45 132Q27 176 27 229Q27 281 45 325.5Q63 370 94.5 402Q126 434 170 452Q214 470 265 470Q312 470 355.5 454Q399 438 432 405Q465 372 485 320Q505 268 505 196Z" glyph-name="ecaron" horiz-adv-x="526" unicode="&#283;" /><glyph d="M189 700H336L438 527H302L262 604L224 527H88ZM265 362Q223 362 196 338.5Q169 315 161 278H366Q361 313 334 337.5Q307 362 265 362ZM505 191H164Q169 153 197 126Q225 99 269 99Q298 99 322.5 111Q347 123 361 146L496 132Q465 58 404.5 23Q344 -12 267 -12Q216 -12 172 6Q128 24 95.5 56Q63 88 45 132Q27 176 27 229Q27 281 45 325.5Q63 370 94.5 402Q126 434 170 452Q214 470 265 470Q312 470 355.5 454Q399 438 432 405Q465 372 485 320Q505 268 505 196Z" glyph-name="ecircumflex" horiz-adv-x="526" unicode="&#234;" /><glyph d="M280 584Q280 616 303 639Q326 662 358 662Q390 662 413.5 639Q437 616 437 584Q437 552 413.5 529Q390 506 358 506Q326 506 303 529Q280 552 280 584ZM89 584Q89 600 95 614Q101 628 111.5 638.5Q122 649 136.5 655.5Q151 662 167 662Q199 662 222.5 639Q246 616 246 584Q246 552 222.5 529Q199 506 167 506Q151 506 136.5 512.5Q122 519 111.5 529.5Q101 540 95 554Q89 568 89 584ZM265 362Q223 362 196 338.5Q169 315 161 278H366Q361 313 334 337.5Q307 362 265 362ZM505 191H164Q169 153 197 126Q225 99 269 99Q298 99 322.5 111Q347 123 361 146L496 132Q465 58 404.5 23Q344 -12 267 -12Q216 -12 172 6Q128 24 95.5 56Q63 88 45 132Q27 176 27 229Q27 281 45 325.5Q63 370 94.5 402Q126 434 170 452Q214 470 265 470Q312 470 355.5 454Q399 438 432 405Q465 372 485 320Q505 268 505 196Z" glyph-name="edieresis" horiz-adv-x="526" unicode="&#235;" /><glyph d="M175 614Q175 651 200.5 676.5Q226 702 262 702Q299 702 324.5 676.5Q350 651 350 614Q350 578 324.5 552.5Q299 527 262 527Q226 527 200.5 552.5Q175 578 175 614ZM265 362Q223 362 196 338.5Q169 315 161 278H366Q361 313 334 337.5Q307 362 265 362ZM505 191H164Q169 153 197 126Q225 99 269 99Q298 99 322.5 111Q347 123 361 146L496 132Q465 58 404.5 23Q344 -12 267 -12Q216 -12 172 6Q128 24 95.5 56Q63 88 45 132Q27 176 27 229Q27 281 45 325.5Q63 370 94.5 402Q126 434 170 452Q214 470 265 470Q312 470 355.5 454Q399 438 432 405Q465 372 485 320Q505 268 505 196Z" glyph-name="edotaccent" horiz-adv-x="526" unicode="&#279;" /><glyph d="M331 527H207L115 700H281ZM265 362Q223 362 196 338.5Q169 315 161 278H366Q361 313 334 337.5Q307 362 265 362ZM505 191H164Q169 153 197 126Q225 99 269 99Q298 99 322.5 111Q347 123 361 146L496 132Q465 58 404.5 23Q344 -12 267 -12Q216 -12 172 6Q128 24 95.5 56Q63 88 45 132Q27 176 27 229Q27 281 45 325.5Q63 370 94.5 402Q126 434 170 452Q214 470 265 470Q312 470 355.5 454Q399 438 432 405Q465 372 485 320Q505 268 505 196Z" glyph-name="egrave" horiz-adv-x="526" unicode="&#232;" /><glyph d="M270 103Q321 103 346.5 133Q372 163 372 202Q372 221 365.5 239Q359 257 346 270.5Q333 284 314 292.5Q295 301 270 301Q244 301 225 292.5Q206 284 193 270.5Q180 257 173.5 239Q167 221 167 202Q167 163 193 133Q219 103 270 103ZM270 412Q317 412 338.5 439.5Q360 467 360 505Q360 524 355 540.5Q350 557 339 569.5Q328 582 311 589.5Q294 597 270 597Q222 597 200.5 570Q179 543 179 505Q179 467 200.5 439.5Q222 412 270 412ZM270 712Q322 712 364 697Q406 682 435.5 656Q465 630 481 594Q497 558 497 515Q497 468 471 426Q445 384 397 363Q423 353 444 335.5Q465 318 480 296Q495 274 503.5 248Q512 222 512 195Q512 147 494.5 108.5Q477 70 445 43.5Q413 17 368.5 2.5Q324 -12 270 -12Q216 -12 171.5 2.5Q127 17 95 43.5Q63 70 45.5 108.5Q28 147 28 195Q28 250 59.5 296.5Q91 343 143 363Q94 384 68 426Q42 468 42 515Q42 558 58 594Q74 630 104 656Q134 682 176 697Q218 712 270 712Z" glyph-name="eight" horiz-adv-x="539" unicode="8" /><glyph d="M286 103Q337 103 362.5 133Q388 163 388 202Q388 221 381.5 239Q375 257 362 270.5Q349 284 330 292.5Q311 301 286 301Q260 301 241 292.5Q222 284 209 270.5Q196 257 189.5 239Q183 221 183 202Q183 163 209 133Q235 103 286 103ZM286 412Q333 412 354.5 439.5Q376 467 376 505Q376 524 371 540.5Q366 557 355 569.5Q344 582 327 589.5Q310 597 286 597Q238 597 216.5 570Q195 543 195 505Q195 467 216.5 439.5Q238 412 286 412ZM286 712Q338 712 380 697Q422 682 451.5 656Q481 630 497 594Q513 558 513 515Q513 468 487 426Q461 384 413 363Q439 353 460 335.5Q481 318 496 296Q511 274 519.5 248Q528 222 528 195Q528 147 510.5 108.5Q493 70 461 43.5Q429 17 384.5 2.5Q340 -12 286 -12Q232 -12 187.5 2.5Q143 17 111 43.5Q79 70 61.5 108.5Q44 147 44 195Q44 250 75.5 296.5Q107 343 159 363Q110 384 84 426Q58 468 58 515Q58 558 74 594Q90 630 120 656Q150 682 192 697Q234 712 286 712Z" glyph-name="eight.alt" horiz-adv-x="571" unicode="&#62032;" /><glyph d="M275 97Q322 97 346 124Q370 151 370 186Q370 203 364 219Q358 235 346 247.5Q334 260 316.5 267.5Q299 275 275 275Q251 275 233.5 267.5Q216 260 204 247.5Q192 235 186 219Q180 203 180 186Q180 151 204 124Q228 97 275 97ZM275 382Q320 382 339 406Q358 430 358 465Q358 499 339 523.5Q320 548 275 548Q230 548 211 523.5Q192 499 192 465Q192 430 211 406Q230 382 275 382ZM275 656Q324 656 364 642.5Q404 629 432 605Q460 581 475 547.5Q490 514 490 475Q490 433 466.5 393.5Q443 354 400 334Q448 314 476 272Q504 230 504 180Q504 135 487.5 99.5Q471 64 440.5 39.5Q410 15 368 1.5Q326 -12 275 -12Q224 -12 181.5 1.5Q139 15 109 39.5Q79 64 62 99.5Q45 135 45 180Q45 230 73.5 272Q102 314 150 334Q107 354 83.5 393.5Q60 433 60 475Q60 514 75 547.5Q90 581 118 605Q146 629 185.5 642.5Q225 656 275 656Z" glyph-name="eight.posf" horiz-adv-x="550" unicode="&#62048;" /><glyph d="M215 68Q237 68 247.5 81.5Q258 95 258 112Q258 129 247.5 142.5Q237 156 215 156Q192 156 181 142.5Q170 129 170 112Q170 95 181 81.5Q192 68 215 68ZM215 244Q284 244 324 209Q364 174 364 123Q364 95 348.5 69Q333 43 301 30Q335 17 353.5 -11.5Q372 -40 372 -72Q372 -130 329.5 -165.5Q287 -201 215 -201Q143 -201 99.5 -165.5Q56 -130 56 -72Q56 -40 75 -11.5Q94 17 128 30Q96 43 80.5 69Q65 95 65 123Q65 174 105 209Q145 244 215 244ZM215 -111Q239 -111 251.5 -97Q264 -83 264 -64Q264 -46 251.5 -31.5Q239 -17 215 -17Q189 -17 177 -31.5Q165 -46 165 -64Q165 -83 177 -97Q189 -111 215 -111Z" glyph-name="eight.sinf" horiz-adv-x="430" unicode="&#62080;" /><glyph d="M242 337Q274 337 288.5 355.5Q303 374 303 400Q303 426 288.5 444.5Q274 463 242 463Q209 463 194.5 444.5Q180 426 180 400Q180 374 194.5 355.5Q209 337 242 337ZM242 570Q285 570 320 558Q355 546 380 524.5Q405 503 418 474Q431 445 431 412Q431 376 410.5 342Q390 308 350 291Q394 274 418 237.5Q442 201 442 158Q442 119 427.5 88Q413 57 387 35Q361 13 324 1.5Q287 -10 242 -10Q197 -10 159.5 1.5Q122 13 96 35Q70 57 55.5 88Q41 119 41 158Q41 201 65.5 238Q90 275 133 291Q93 308 72.5 342Q52 376 52 412Q52 445 65 474Q78 503 103 524.5Q128 546 163 558Q198 570 242 570ZM242 99Q277 99 294.5 119.5Q312 140 312 166Q312 192 294.5 212.5Q277 233 242 233Q207 233 189 212.5Q171 192 171 166Q171 140 189 119.5Q207 99 242 99Z" glyph-name="eight.smcp" horiz-adv-x="484" unicode="&#58881;" /><glyph d="M215 667Q237 667 247.5 680.5Q258 694 258 711Q258 728 247.5 741.5Q237 755 215 755Q192 755 181 741.5Q170 728 170 711Q170 694 181 680.5Q192 667 215 667ZM215 843Q284 843 324 808Q364 773 364 722Q364 694 348.5 668Q333 642 301 629Q335 616 353.5 587.5Q372 559 372 527Q372 469 329.5 433.5Q287 398 215 398Q143 398 99.5 433.5Q56 469 56 527Q56 559 75 587.5Q94 616 128 629Q96 642 80.5 668Q65 694 65 722Q65 773 105 808Q145 843 215 843ZM215 488Q239 488 251.5 502Q264 516 264 535Q264 553 251.5 567.5Q239 582 215 582Q189 582 177 567.5Q165 553 165 535Q165 516 177 502Q189 488 215 488Z" glyph-name="eight.sups" horiz-adv-x="430" unicode="&#62064;" /><glyph d="M215 260Q237 260 247.5 273.5Q258 287 258 304Q258 321 247.5 334.5Q237 348 215 348Q192 348 181 334.5Q170 321 170 304Q170 287 181 273.5Q192 260 215 260ZM215 436Q284 436 324 401Q364 366 364 315Q364 287 348.5 261Q333 235 301 222Q335 209 353.5 180.5Q372 152 372 120Q372 62 329.5 26.5Q287 -9 215 -9Q143 -9 99.5 26.5Q56 62 56 120Q56 152 75 180.5Q94 209 128 222Q96 235 80.5 261Q65 287 65 315Q65 366 105 401Q145 436 215 436ZM215 81Q239 81 251.5 95Q264 109 264 128Q264 146 251.5 160.5Q239 175 215 175Q189 175 177 160.5Q165 146 165 128Q165 109 177 95Q189 81 215 81Z" glyph-name="eightinferior" horiz-adv-x="430" unicode="&#8328;" /><glyph d="M891 296Q891 318 878.5 334.5Q866 351 840 351Q814 351 801.5 334.5Q789 318 789 296Q789 273 801.5 256Q814 239 840 239Q866 239 878.5 256Q891 273 891 296ZM705 0 714 8Q726 18 746 36.5Q766 55 788.5 77Q811 99 832.5 123Q854 147 869 168L866 170Q858 165 844.5 160.5Q831 156 813 156Q787 156 763 165.5Q739 175 721 192Q703 209 692.5 234Q682 259 682 290Q682 323 693.5 350Q705 377 725 396.5Q745 416 773.5 427Q802 438 836 438Q873 438 903.5 425.5Q934 413 955 391.5Q976 370 987.5 340.5Q999 311 999 277Q999 229 983.5 188Q968 147 946 114Q924 81 899.5 55.5Q875 30 857 13L844 0ZM914 686 241 -37 183 18 856 741ZM236 531Q258 531 268.5 544.5Q279 558 279 575Q279 592 268.5 605.5Q258 619 236 619Q213 619 202 605.5Q191 592 191 575Q191 558 202 544.5Q213 531 236 531ZM236 707Q305 707 345 672Q385 637 385 586Q385 558 369.5 532Q354 506 322 493Q356 480 374.5 451.5Q393 423 393 391Q393 333 350.5 297.5Q308 262 236 262Q164 262 120.5 297.5Q77 333 77 391Q77 423 96 451.5Q115 480 149 493Q117 506 101.5 532Q86 558 86 586Q86 637 126 672Q166 707 236 707ZM236 352Q260 352 272.5 366Q285 380 285 399Q285 417 272.5 431.5Q260 446 236 446Q210 446 198 431.5Q186 417 186 399Q186 380 198 366Q210 352 236 352Z" glyph-name="eightninths" horiz-adv-x="1080" unicode="&#62105;" /><glyph d="M215 531Q237 531 247.5 544.5Q258 558 258 575Q258 592 247.5 605.5Q237 619 215 619Q192 619 181 605.5Q170 592 170 575Q170 558 181 544.5Q192 531 215 531ZM215 707Q284 707 324 672Q364 637 364 586Q364 558 348.5 532Q333 506 301 493Q335 480 353.5 451.5Q372 423 372 391Q372 333 329.5 297.5Q287 262 215 262Q143 262 99.5 297.5Q56 333 56 391Q56 423 75 451.5Q94 480 128 493Q96 506 80.5 532Q65 558 65 586Q65 637 105 672Q145 707 215 707ZM215 352Q239 352 251.5 366Q264 380 264 399Q264 417 251.5 431.5Q239 446 215 446Q189 446 177 431.5Q165 417 165 399Q165 380 177 366Q189 352 215 352Z" glyph-name="eightsuperior" horiz-adv-x="430" unicode="&#8312;" /><glyph d="M709 75Q709 111 734.5 136.5Q760 162 796 162Q833 162 858 136.5Q883 111 883 75Q883 39 858 13.5Q833 -12 796 -12Q760 -12 734.5 13.5Q709 39 709 75ZM378 75Q378 111 403.5 136.5Q429 162 465 162Q502 162 527.5 136.5Q553 111 553 75Q553 39 527.5 13.5Q502 -12 465 -12Q429 -12 403.5 13.5Q378 39 378 75ZM48 75Q48 111 73 136.5Q98 162 134 162Q171 162 196.5 136.5Q222 111 222 75Q222 39 196.5 13.5Q171 -12 134 -12Q98 -12 73 13.5Q48 39 48 75Z" glyph-name="ellipsis" horiz-adv-x="930" unicode="&#8230;" /><glyph d="M106 643H420V532H106ZM265 362Q223 362 196 338.5Q169 315 161 278H366Q361 313 334 337.5Q307 362 265 362ZM505 191H164Q169 153 197 126Q225 99 269 99Q298 99 322.5 111Q347 123 361 146L496 132Q465 58 404.5 23Q344 -12 267 -12Q216 -12 172 6Q128 24 95.5 56Q63 88 45 132Q27 176 27 229Q27 281 45 325.5Q63 370 94.5 402Q126 434 170 452Q214 470 265 470Q312 470 355.5 454Q399 438 432 405Q465 372 485 320Q505 268 505 196Z" glyph-name="emacron" horiz-adv-x="526" unicode="&#275;" /><glyph d="M40 323H960V213H40Z" glyph-name="emdash" horiz-adv-x="1000" unicode="&#8212;" /><glyph d="M40 416H960V297H40Z" glyph-name="emdash.alt" horiz-adv-x="1000" unicode="&#62217;" /><glyph d="M40 323H460V213H40Z" glyph-name="endash" horiz-adv-x="500" unicode="&#8211;" /><glyph d="M40 416H460V297H40Z" glyph-name="endash.alt" horiz-adv-x="500" unicode="&#62216;" /><glyph d="M181 404Q207 436 244 453Q281 470 321 470Q358 470 389.5 458.5Q421 447 443.5 425Q466 403 478.5 371.5Q491 340 491 300V-65Q491 -103 477.5 -125Q464 -147 443 -158Q422 -169 396 -172.5Q370 -176 346 -176H277V-66H322Q342 -66 351.5 -60Q361 -54 361 -37V267Q361 311 337.5 330Q314 349 283 349Q254 349 229.5 334.5Q205 320 186 297V0H56V458H183V440Q183 434 182.5 427.5Q182 421 182 416Q181 410 181 404Z" glyph-name="eng" horiz-adv-x="542" unicode="&#331;" /><glyph d="M266 362Q224 362 197 338.5Q170 315 162 278H367Q362 313 335 337.5Q308 362 266 362ZM506 191H165Q170 153 198 126Q226 99 270 99Q299 99 323.5 111Q348 123 362 146L497 132Q471 69 422 34Q373 -1 310 -9Q293 -26 281 -46.5Q269 -67 269 -81Q269 -95 281.5 -104Q294 -113 311 -113Q330 -113 350 -108Q370 -103 384 -98L371 -175Q347 -185 322 -192Q297 -199 260 -199Q209 -199 177.5 -176.5Q146 -154 146 -110Q146 -78 169.5 -52Q193 -26 227 -9Q183 -2 146.5 18Q110 38 84 69.5Q58 101 43 141.5Q28 182 28 229Q28 281 46 325.5Q64 370 95.5 402Q127 434 171 452Q215 470 266 470Q313 470 356.5 454Q400 438 433 405Q466 372 486 320Q506 268 506 196Z" glyph-name="eogonek" horiz-adv-x="528" unicode="&#281;" /><glyph d="M483 197H36V316H483ZM483 397H36V516H483Z" glyph-name="equal" horiz-adv-x="520" unicode="=" /><glyph d="M49 424H406V312H49ZM49 258H406V147H49Z" glyph-name="equal.smcp" horiz-adv-x="456" unicode="&#62999;" /><glyph d="M677 375Q686 375 686 384V552Q686 585 659.5 609.5Q633 634 595 650Q557 666 514 674Q471 682 438 682Q408 682 365.5 674Q323 666 284.5 650Q246 634 218.5 609.5Q191 585 191 552V384Q191 375 200 375ZM191 160Q191 128 218 102Q245 76 283.5 58Q322 40 364.5 30Q407 20 438 20Q516 20 585.5 48Q655 76 703 131H750Q696 63 616 26Q536 -11 438 -11Q357 -11 285 17.5Q213 46 159.5 95.5Q106 145 74.5 211Q43 277 43 353Q43 427 74 492.5Q105 558 158 606.5Q211 655 283 683.5Q355 712 438 712Q529 712 602 683Q675 654 727 604.5Q779 555 807 487.5Q835 420 835 344H200Q191 344 191 332Z" glyph-name="estimated" horiz-adv-x="869" unicode="&#8494;" /><glyph d="M274 350Q225 350 193.5 316Q162 282 162 229Q162 203 170.5 181Q179 159 194 142.5Q209 126 229.5 116.5Q250 107 274 107Q324 107 355 142Q386 177 386 229Q386 282 355 316Q324 350 274 350ZM286 700Q294 692 303.5 683.5Q313 675 324 664L391 705L426 648L371 614Q398 582 425.5 543.5Q453 505 474.5 459.5Q496 414 509.5 363Q523 312 523 256Q523 204 506.5 155.5Q490 107 458 70Q426 33 379.5 10.5Q333 -12 273 -12Q222 -12 177 6Q132 24 98.5 55.5Q65 87 46 131Q27 175 27 228Q27 280 44 323.5Q61 367 91 398.5Q121 430 162 447.5Q203 465 251 465Q281 465 308.5 455.5Q336 446 353 427L358 432Q340 461 316 490.5Q292 520 265 549L197 507L163 567L217 600Q182 634 153.5 660Q125 686 111 700Z" glyph-name="eth" horiz-adv-x="553" unicode="&#240;" /><glyph d="M52 75Q52 111 77.5 136.5Q103 162 139 162Q175 162 200.5 136.5Q226 111 226 75Q226 39 200.5 13.5Q175 -12 139 -12Q103 -12 77.5 13.5Q52 39 52 75ZM76 226 66 700H210L200 226Z" glyph-name="exclam" horiz-adv-x="276" unicode="!" /><glyph d="M56 67Q56 99 78.5 122Q101 145 133 145Q165 145 187.5 122Q210 99 210 67Q210 35 187.5 12.5Q165 -10 133 -10Q101 -10 78.5 12.5Q56 35 56 67ZM74 181 64 560H201L191 181Z" glyph-name="exclam.smcp" horiz-adv-x="266" unicode="&#58434;" /><glyph d="M43 383Q43 419 68.5 444.5Q94 470 130 470Q166 470 191.5 444.5Q217 419 217 383Q217 347 191.5 321.5Q166 296 130 296Q94 296 68.5 321.5Q43 347 43 383ZM191 232 201 -242H57L67 232Z" glyph-name="exclamdown" horiz-adv-x="258" unicode="&#161;" /><glyph d="M56 613Q56 649 81.5 674.5Q107 700 143 700Q179 700 204.5 674.5Q230 649 230 613Q230 577 204.5 551.5Q179 526 143 526Q107 526 81.5 551.5Q56 577 56 613ZM204 462 214 -12H70L80 462Z" glyph-name="exclamdown.alt" horiz-adv-x="285" unicode="&#62214;" /><glyph d="M191 379 201 0H64L74 379ZM56 493Q56 525 78.5 547.5Q101 570 133 570Q165 570 187.5 547.5Q210 525 210 493Q210 461 187.5 438Q165 415 133 415Q101 415 78.5 438Q56 461 56 493Z" glyph-name="exclamdown.smcp" horiz-adv-x="266" unicode="&#58435;" /><glyph d="M87 588Q87 622 97.5 645Q108 668 126 682Q144 696 167.5 702.5Q191 709 217 709Q230 709 247 708Q264 707 278 706Q295 704 312 703V584Q301 585 290 586Q281 587 272 588Q263 589 258 589Q239 589 228 582Q217 575 217 551V458H305V348H217V0H87V348H15V458H87Z" glyph-name="f" horiz-adv-x="322" unicode="f" /><glyph d="M380 588Q380 622 390.5 645Q401 668 419 682Q437 696 460.5 702.5Q484 709 510 709Q523 709 540 708Q557 707 571 706Q588 704 605 703V584Q594 585 583 586Q574 587 565 588Q556 589 551 589Q532 589 521 582Q510 575 510 551V458H598V348H510V0H380V348H217V0H87V348H15V458H87V588Q87 622 97.5 645Q108 668 126 682Q144 696 167.5 702.5Q191 709 217 709Q230 709 247 708Q264 707 278 706Q295 704 312 703V584Q301 585 290 586Q281 587 272 588Q263 589 258 589Q239 589 228 582Q217 575 217 551V458H380Z" glyph-name="f_f" horiz-adv-x="615" unicode="&#64256;" /><glyph d="M380 588Q380 622 390.5 645Q401 668 419 682Q437 696 460.5 702.5Q484 709 510 709Q523 709 540 708Q557 707 571 706Q588 704 605 703V584Q594 585 583 586Q574 587 565 588Q556 589 551 589Q532 589 521 582Q510 575 510 551V458H673V588Q673 622 683.5 645Q694 668 712 682Q730 696 753.5 702.5Q777 709 803 709Q816 709 833 708Q850 707 864 706Q881 704 898 703V584Q887 585 876 586Q867 587 858 588Q849 589 844 589Q825 589 814 582Q803 575 803 551V458H891V348H803V0H673V348H510V0H380V348H217V0H87V348H15V458H87V588Q87 622 97.5 645Q108 668 126 682Q144 696 167.5 702.5Q191 709 217 709Q230 709 247 708Q264 707 278 706Q295 704 312 703V584Q301 585 290 586Q281 587 272 588Q263 589 258 589Q239 589 228 582Q217 575 217 551V458H380Z" glyph-name="f_f_f" horiz-adv-x="908" unicode="&#62210;" /><glyph d="M356 616Q356 651 380 675.5Q404 700 439 700Q457 700 472 693.5Q487 687 498.5 675.5Q510 664 516.5 648.5Q523 633 523 616Q523 581 498.5 557Q474 533 439 533Q404 533 380 557Q356 581 356 616ZM510 0H380V348H217V0H87V348H15V458H87V588Q87 622 97.5 645Q108 668 126 682Q144 696 167.5 702.5Q191 709 217 709Q230 709 247 708Q264 707 278 706Q295 704 312 703V584Q301 585 290 586Q281 587 272 588Q263 589 258 589Q239 589 228 582Q217 575 217 551V458H510Z" glyph-name="f_i" horiz-adv-x="564" unicode="&#62209;" /><glyph d="M356 616Q356 651 380 675.5Q404 700 439 700Q457 700 472 693.5Q487 687 498.5 675.5Q510 664 516.5 648.5Q523 633 523 616Q523 581 498.5 557Q474 533 439 533Q404 533 380 557Q356 581 356 616ZM380 348H217V0H87V348H15V458H87V588Q87 622 97.5 645Q108 668 126 682Q144 696 167.5 702.5Q191 709 217 709Q230 709 247 708Q264 707 278 706Q295 704 312 703V584Q301 585 290 586Q281 587 272 588Q263 589 258 589Q239 589 228 582Q217 575 217 551V458H510V-65Q510 -103 496.5 -125Q483 -147 462 -158Q441 -169 415 -172.5Q389 -176 365 -176H296V-66H341Q361 -66 370.5 -60Q380 -54 380 -37Z" glyph-name="f_j" horiz-adv-x="564" unicode="&#58247;" /><glyph d="M380 588Q380 622 390.5 645Q401 668 419 682Q437 696 460.5 702.5Q484 709 510 709Q523 709 540 708Q557 707 571 706Q588 704 605 703V584Q594 585 583 586Q574 587 565 588Q556 589 551 589Q532 589 521 582Q510 575 510 551V458H598V348H510V0H380V348H217V0H87V348H15V458H87V588Q87 622 97.5 645Q108 668 126 682Q144 696 167.5 702.5Q191 709 217 709Q230 709 247 708Q264 707 278 706Q295 704 312 703V584Q301 585 290 586Q281 587 272 588Q263 589 258 589Q239 589 228 582Q217 575 217 551V458H380Z" glyph-name="ff" horiz-adv-x="615" unicode="&#58249;" /><glyph d="M649 616Q649 651 673 675.5Q697 700 732 700Q750 700 765 693.5Q780 687 791.5 675.5Q803 664 809.5 648.5Q816 633 816 616Q816 581 791.5 557Q767 533 732 533Q697 533 673 557Q649 581 649 616ZM803 0H673V348H510V0H380V348H217V0H87V348H15V458H87V588Q87 622 97.5 645Q108 668 126 682Q144 696 167.5 702.5Q191 709 217 709Q230 709 247 708Q264 707 278 706Q295 704 312 703V584Q301 585 290 586Q281 587 272 588Q263 589 258 589Q239 589 228 582Q217 575 217 551V458H380V588Q380 622 390.5 645Q401 668 419 682Q437 696 460.5 702.5Q484 709 510 709Q523 709 540 708Q557 707 571 706Q588 704 605 703V584Q594 585 583 586Q574 587 565 588Q556 589 551 589Q532 589 521 582Q510 575 510 551V458H803Z" glyph-name="ffi" horiz-adv-x="857" unicode="&#64259;" /><glyph d="M802 0H673V348H510V0H380V348H217V0H87V348H15V458H87V588Q87 622 97.5 645Q108 668 126 682Q144 696 167.5 702.5Q191 709 217 709Q230 709 247 708Q264 707 278 706Q295 704 312 703V584Q301 585 290 586Q281 587 272 588Q263 589 258 589Q239 589 228 582Q217 575 217 551V458H380V588Q380 622 390.5 645Q401 668 419 682Q437 696 460.5 702.5Q484 709 510 709Q523 709 540 708Q557 707 571 706Q588 704 605 703V584Q594 585 583 586Q574 587 565 588Q556 589 551 589Q532 589 521 582Q510 575 510 551V458H673V700H802Z" glyph-name="ffl" horiz-adv-x="858" unicode="&#58251;" /><glyph d="M356 616Q356 651 380 675.5Q404 700 439 700Q457 700 472 693.5Q487 687 498.5 675.5Q510 664 516.5 648.5Q523 633 523 616Q523 581 498.5 557Q474 533 439 533Q404 533 380 557Q356 581 356 616ZM510 0H380V348H217V0H87V348H15V458H87V588Q87 622 97.5 645Q108 668 126 682Q144 696 167.5 702.5Q191 709 217 709Q230 709 247 708Q264 707 278 706Q295 704 312 703V584Q301 585 290 586Q281 587 272 588Q263 589 258 589Q239 589 228 582Q217 575 217 551V458H510Z" glyph-name="fi" horiz-adv-x="564" unicode="&#64257;" /><glyph d="M179 201Q179 182 183.5 164.5Q188 147 198 133.5Q208 120 225 111.5Q242 103 266 103Q316 103 337 137.5Q358 172 358 224Q358 250 352.5 272.5Q347 295 336 311.5Q325 328 307 337Q289 346 264 346Q237 346 216.5 337Q196 328 184 316L67 329V700H478V580H189V435H194Q212 449 241.5 455Q271 461 294 461Q344 461 383 444Q422 427 448.5 396.5Q475 366 489 324Q503 282 503 232Q503 179 488 134Q473 89 443.5 56.5Q414 24 370.5 6Q327 -12 270 -12Q214 -12 170.5 4Q127 20 97.5 48Q68 76 52.5 115Q37 154 37 200V231H179Z" glyph-name="five" horiz-adv-x="539" unicode="5" /><glyph d="M183 201Q183 182 187.5 164.5Q192 147 202 133.5Q212 120 229 111.5Q246 103 270 103Q320 103 341 137.5Q362 172 362 224Q362 250 356.5 272.5Q351 295 340 311.5Q329 328 311 337Q293 346 268 346Q241 346 220.5 337Q200 328 188 316L71 329V700H482V580H193V435H198Q216 449 245.5 455Q275 461 298 461Q348 461 387 444Q426 427 452.5 396.5Q479 366 493 324Q507 282 507 232Q507 179 492 134Q477 89 447.5 56.5Q418 24 374.5 6Q331 -12 274 -12Q218 -12 174.5 4Q131 20 101.5 48Q72 76 56.5 115Q41 154 41 200V231H183Z" glyph-name="five.alt" horiz-adv-x="547" unicode="&#62023;" /><glyph d="M170 34Q170 17 174 1Q178 -15 187 -27.5Q196 -40 211 -47.5Q226 -55 249 -55Q295 -55 314.5 -23.5Q334 8 334 56Q334 103 313.5 134.5Q293 166 247 166Q221 166 202 157.5Q183 149 172 138L60 150V495H450V381H178V250Q197 264 225.5 270Q254 276 275 276Q322 276 359 260Q396 244 421.5 216Q447 188 460 148.5Q473 109 473 63Q473 14 458.5 -27.5Q444 -69 416.5 -99.5Q389 -130 348 -147Q307 -164 253 -164Q200 -164 159 -149.5Q118 -135 90 -108.5Q62 -82 47.5 -46Q33 -10 33 33V64H170Z" glyph-name="five.posf" horiz-adv-x="506" unicode="&#62039;" /><glyph d="M369 -48Q369 -114 332 -157.5Q295 -201 219 -201Q144 -201 106 -164.5Q68 -128 68 -68V-49H178V-65Q178 -81 185.5 -96.5Q193 -112 216 -112Q239 -112 247.5 -95.5Q256 -79 256 -54Q256 -28 246 -11.5Q236 5 213 5Q200 5 190.5 0Q181 -5 175 -11L83 -2V237H352V141H178V77L180 76Q190 84 206 88.5Q222 93 241 93Q301 93 335 54Q369 15 369 -48Z" glyph-name="five.sinf" horiz-adv-x="430" unicode="&#62071;" /><glyph d="M437 188Q437 145 424.5 109Q412 73 388 46.5Q364 20 328 5Q292 -10 244 -10Q149 -10 100.5 37.5Q52 85 52 162V187H185V165Q185 153 188 141Q191 129 197.5 119.5Q204 110 214.5 104Q225 98 241 98Q274 98 287.5 122Q301 146 301 181Q301 217 287 241Q273 265 238 265Q219 265 205 258.5Q191 252 183 244L73 254V560H416V447H187V353L189 351Q204 361 227 366.5Q250 372 270 372Q309 372 340 358.5Q371 345 392.5 320.5Q414 296 425.5 262Q437 228 437 188Z" glyph-name="five.smcp" horiz-adv-x="484" unicode="&#58432;" /><glyph d="M369 551Q369 485 332 441.5Q295 398 219 398Q144 398 106 434.5Q68 471 68 531V550H178V534Q178 518 185.5 502.5Q193 487 216 487Q239 487 247.5 503.5Q256 520 256 545Q256 571 246 587.5Q236 604 213 604Q200 604 190.5 599Q181 594 175 588L83 597V836H352V740H178V676L180 675Q190 683 206 687.5Q222 692 241 692Q301 692 335 653Q369 614 369 551Z" glyph-name="five.sups" horiz-adv-x="430" unicode="&#62055;" /><glyph d="M851 260Q873 260 883.5 273.5Q894 287 894 304Q894 321 883.5 334.5Q873 348 851 348Q828 348 817 334.5Q806 321 806 304Q806 287 817 273.5Q828 260 851 260ZM851 436Q920 436 960 401Q1000 366 1000 315Q1000 287 984.5 261Q969 235 937 222Q971 209 989.5 180.5Q1008 152 1008 120Q1008 62 965.5 26.5Q923 -9 851 -9Q779 -9 735.5 26.5Q692 62 692 120Q692 152 711 180.5Q730 209 764 222Q732 235 716.5 261Q701 287 701 315Q701 366 741 401Q781 436 851 436ZM851 81Q875 81 887.5 95Q900 109 900 128Q900 146 887.5 160.5Q875 175 851 175Q825 175 813 160.5Q801 146 801 128Q801 109 813 95Q825 81 851 81ZM914 686 241 -37 183 18 856 741ZM396 415Q396 349 359 305.5Q322 262 246 262Q171 262 133 298.5Q95 335 95 395V414H205V398Q205 382 212.5 366.5Q220 351 243 351Q266 351 274.5 367.5Q283 384 283 409Q283 435 273 451.5Q263 468 240 468Q227 468 217.5 463Q208 458 202 452L110 461V700H379V604H205V540L207 539Q217 547 233 551.5Q249 556 268 556Q328 556 362 517Q396 478 396 415Z" glyph-name="fiveeighths" horiz-adv-x="1080" unicode="&#8541;" /><glyph d="M369 144Q369 78 332 34.5Q295 -9 219 -9Q144 -9 106 27.5Q68 64 68 124V143H178V127Q178 111 185.5 95.5Q193 80 216 80Q239 80 247.5 96.5Q256 113 256 138Q256 164 246 180.5Q236 197 213 197Q200 197 190.5 192Q181 187 175 181L83 190V429H352V333H178V269L180 268Q190 276 206 280.5Q222 285 241 285Q301 285 335 246Q369 207 369 144Z" glyph-name="fiveinferior" horiz-adv-x="430" unicode="&#8325;" /><glyph d="M891 296Q891 318 878.5 334.5Q866 351 840 351Q814 351 801.5 334.5Q789 318 789 296Q789 273 801.5 256Q814 239 840 239Q866 239 878.5 256Q891 273 891 296ZM705 0 714 8Q726 18 746 36.5Q766 55 788.5 77Q811 99 832.5 123Q854 147 869 168L866 170Q858 165 844.5 160.5Q831 156 813 156Q787 156 763 165.5Q739 175 721 192Q703 209 692.5 234Q682 259 682 290Q682 323 693.5 350Q705 377 725 396.5Q745 416 773.5 427Q802 438 836 438Q873 438 903.5 425.5Q934 413 955 391.5Q976 370 987.5 340.5Q999 311 999 277Q999 229 983.5 188Q968 147 946 114Q924 81 899.5 55.5Q875 30 857 13L844 0ZM914 686 241 -37 183 18 856 741ZM396 415Q396 349 359 305.5Q322 262 246 262Q171 262 133 298.5Q95 335 95 395V414H205V398Q205 382 212.5 366.5Q220 351 243 351Q266 351 274.5 367.5Q283 384 283 409Q283 435 273 451.5Q263 468 240 468Q227 468 217.5 463Q208 458 202 452L110 461V700H379V604H205V540L207 539Q217 547 233 551.5Q249 556 268 556Q328 556 362 517Q396 478 396 415Z" glyph-name="fiveninths" horiz-adv-x="1080" unicode="&#62103;" /><glyph d="M757 0 907 333H720V431H1017V338L878 0ZM914 686 241 -37 183 18 856 741ZM396 415Q396 349 359 305.5Q322 262 246 262Q171 262 133 298.5Q95 335 95 395V414H205V398Q205 382 212.5 366.5Q220 351 243 351Q266 351 274.5 367.5Q283 384 283 409Q283 435 273 451.5Q263 468 240 468Q227 468 217.5 463Q208 458 202 452L110 461V700H379V604H205V540L207 539Q217 547 233 551.5Q249 556 268 556Q328 556 362 517Q396 478 396 415Z" glyph-name="fivesevenths" horiz-adv-x="1080" unicode="&#62098;" /><glyph d="M799 134Q799 111 812 95Q825 79 851 79Q877 79 889 95Q901 111 901 134Q901 157 889 173.5Q877 190 851 190Q825 190 812 173.5Q799 157 799 134ZM986 429 977 421Q965 411 945 392.5Q925 374 902.5 352Q880 330 858 306Q836 282 821 261L824 259Q832 264 846 268.5Q860 273 877 273Q904 273 928 263.5Q952 254 970 237Q988 220 998.5 195Q1009 170 1009 139Q1009 106 997.5 78.5Q986 51 965.5 31.5Q945 12 916.5 1.5Q888 -9 854 -9Q816 -9 786 3.5Q756 16 735 37.5Q714 59 703 88.5Q692 118 692 152Q692 200 707.5 241Q723 282 744.5 315.5Q766 349 790.5 374.5Q815 400 833 417L846 429ZM914 686 241 -37 183 18 856 741ZM396 415Q396 349 359 305.5Q322 262 246 262Q171 262 133 298.5Q95 335 95 395V414H205V398Q205 382 212.5 366.5Q220 351 243 351Q266 351 274.5 367.5Q283 384 283 409Q283 435 273 451.5Q263 468 240 468Q227 468 217.5 463Q208 458 202 452L110 461V700H379V604H205V540L207 539Q217 547 233 551.5Q249 556 268 556Q328 556 362 517Q396 478 396 415Z" glyph-name="fivesixths" horiz-adv-x="1080" unicode="&#62087;" /><glyph d="M369 415Q369 349 332 305.5Q295 262 219 262Q144 262 106 298.5Q68 335 68 395V414H178V398Q178 382 185.5 366.5Q193 351 216 351Q239 351 247.5 367.5Q256 384 256 409Q256 435 246 451.5Q236 468 213 468Q200 468 190.5 463Q181 458 175 452L83 461V700H352V604H178V540L180 539Q190 547 206 551.5Q222 556 241 556Q301 556 335 517Q369 478 369 415Z" glyph-name="fivesuperior" horiz-adv-x="430" unicode="&#8309;" /><glyph d="M509 0H380V348H217V0H87V348H15V458H87V588Q87 622 97.5 645Q108 668 126 682Q144 696 167.5 702.5Q191 709 217 709Q230 709 247 708Q264 707 278 706Q295 704 312 703V584Q301 585 290 586Q281 587 272 588Q263 589 258 589Q239 589 228 582Q217 575 217 551V458H380V700H509Z" glyph-name="fl" horiz-adv-x="565" unicode="&#64258;" /><glyph d="M256 329H341V213H256V-31Q256 -59 250 -85Q244 -111 228 -131.5Q212 -152 184.5 -164Q157 -176 114 -176H18V-54H53Q65 -54 77 -53Q89 -52 99 -47Q109 -42 115 -32Q121 -22 121 -4V213H37V329H121V565Q121 592 128 616Q135 640 151.5 659Q168 678 195 689Q222 700 263 700H359V578H324Q312 578 300 577Q288 576 278 571Q268 566 262 556Q256 546 256 528Z" glyph-name="florin" horiz-adv-x="384" unicode="&#402;" /><glyph d="M102 149H37V259H102V452Q102 473 107.5 492.5Q113 512 125.5 527Q138 542 159 551Q180 560 212 560H311V444H283Q274 444 264 443.5Q254 443 246.5 439Q239 435 234 427.5Q229 420 229 405V259H294V149H229V-30Q229 -51 224 -71Q219 -91 206 -106.5Q193 -122 172 -131.5Q151 -141 119 -141H19V-24H47Q57 -24 66.5 -23.5Q76 -23 84 -19.5Q92 -16 97 -8.5Q102 -1 102 14Z" glyph-name="florin.smcp" horiz-adv-x="353" unicode="&#61840;" /><glyph d="M137 294H296V560H291ZM17 295 253 700H431V294H519V179H431V0H296V179H17Z" glyph-name="four" horiz-adv-x="539" unicode="4" /><glyph d="M145 294H304V560H299ZM25 295 261 700H439V294H527V179H439V0H304V179H25Z" glyph-name="four.alt" horiz-adv-x="555" unicode="&#62022;" /><glyph d="M140 122H282V362H280ZM20 122 243 495H414V122H496V13H414V-152H282V13H20Z" glyph-name="four.posf" horiz-adv-x="519" unicode="&#62038;" /><glyph d="M134 -5H218V128H216ZM47 5 191 239H321V-5H372V-96H321V-192H218V-96H47Z" glyph-name="four.sinf" horiz-adv-x="430" unicode="&#62070;" /><glyph d="M140 240H251V428H249ZM30 241 216 560H376V240H438V131H376V0H251V131H30Z" glyph-name="four.smcp" horiz-adv-x="484" unicode="&#58431;" /><glyph d="M134 594H218V727H216ZM47 604 191 838H321V594H372V503H321V407H218V503H47Z" glyph-name="four.sups" horiz-adv-x="430" unicode="&#62054;" /><glyph d="M1015 144Q1015 78 978 34.5Q941 -9 865 -9Q790 -9 752 27.5Q714 64 714 124V143H824V127Q824 111 831.5 95.5Q839 80 862 80Q885 80 893.5 96.5Q902 113 902 138Q902 164 892 180.5Q882 197 859 197Q846 197 836.5 192Q827 187 821 181L729 190V429H998V333H824V269L826 268Q836 276 852 280.5Q868 285 887 285Q947 285 981 246Q1015 207 1015 144ZM914 686 241 -37 183 18 856 741ZM147 456H231V589H229ZM60 466 204 700H334V456H385V365H334V269H231V365H60Z" glyph-name="fourfifths" horiz-adv-x="1080" unicode="&#62085;" /><glyph d="M134 187H218V320H216ZM47 197 191 431H321V187H372V96H321V0H218V96H47Z" glyph-name="fourinferior" horiz-adv-x="430" unicode="&#8324;" /><glyph d="M147 456H231V589H229ZM60 466 204 700H334V456H385V365H334V269H231V365H60ZM891 296Q891 318 878.5 334.5Q866 351 840 351Q814 351 801.5 334.5Q789 318 789 296Q789 273 801.5 256Q814 239 840 239Q866 239 878.5 256Q891 273 891 296ZM705 0 714 8Q726 18 746 36.5Q766 55 788.5 77Q811 99 832.5 123Q854 147 869 168L866 170Q858 165 844.5 160.5Q831 156 813 156Q787 156 763 165.5Q739 175 721 192Q703 209 692.5 234Q682 259 682 290Q682 323 693.5 350Q705 377 725 396.5Q745 416 773.5 427Q802 438 836 438Q873 438 903.5 425.5Q934 413 955 391.5Q976 370 987.5 340.5Q999 311 999 277Q999 229 983.5 188Q968 147 946 114Q924 81 899.5 55.5Q875 30 857 13L844 0ZM914 686 241 -37 183 18 856 741Z" glyph-name="fourninths" horiz-adv-x="1080" unicode="&#62102;" /><glyph d="M757 0 907 333H720V431H1017V338L878 0ZM147 456H231V589H229ZM60 466 204 700H334V456H385V365H334V269H231V365H60ZM914 686 241 -37 183 18 856 741Z" glyph-name="foursevenths" horiz-adv-x="1080" unicode="&#62097;" /><glyph d="M134 456H218V589H216ZM47 466 191 700H321V456H372V365H321V269H218V365H47Z" glyph-name="foursuperior" horiz-adv-x="430" unicode="&#8308;" /><glyph d="M475 686 -198 -37 -256 18 417 741Z" glyph-name="fraction" horiz-adv-x="220" unicode="&#8260;" /><glyph d="M162 232Q162 176 194 141.5Q226 107 277 107Q329 107 361 141.5Q393 176 393 232Q393 289 361 323.5Q329 358 277 358Q226 358 194 323.5Q162 289 162 232ZM520 458V-34Q520 -61 512.5 -86.5Q505 -112 488 -131.5Q471 -151 443 -163Q415 -175 373 -175H174V-65H341Q358 -65 374 -57.5Q390 -50 390 -24V64Q373 36 335 15.5Q297 -5 248 -5Q201 -5 161 12Q121 29 91.5 60Q62 91 45 134.5Q28 178 28 232Q28 286 45 330Q62 374 91 405Q120 436 160 453Q200 470 247 470Q299 470 337 449Q375 428 392 399Q392 403 391 411Q390 419 390 437V458Z" glyph-name="g" horiz-adv-x="576" unicode="g" /><glyph d="M327 681H432V630Q432 596 420.5 570.5Q409 545 389.5 528.5Q370 512 344 503.5Q318 495 288 495Q258 495 232 503.5Q206 512 186.5 528.5Q167 545 155.5 570.5Q144 596 144 630V681H248V629Q248 612 258 601Q268 590 288 590Q308 590 317.5 601Q327 612 327 629ZM162 232Q162 176 194 141.5Q226 107 277 107Q329 107 361 141.5Q393 176 393 232Q393 289 361 323.5Q329 358 277 358Q226 358 194 323.5Q162 289 162 232ZM520 458V-34Q520 -61 512.5 -86.5Q505 -112 488 -131.5Q471 -151 443 -163Q415 -175 373 -175H174V-65H341Q358 -65 374 -57.5Q390 -50 390 -24V64Q373 36 335 15.5Q297 -5 248 -5Q201 -5 161 12Q121 29 91.5 60Q62 91 45 134.5Q28 178 28 232Q28 286 45 330Q62 374 91 405Q120 436 160 453Q200 470 247 470Q299 470 337 449Q375 428 392 399Q392 403 391 411Q390 419 390 437V458Z" glyph-name="gbreve" horiz-adv-x="576" unicode="&#287;" /><glyph d="M214 700H361L463 527H327L287 604L249 527H113ZM162 232Q162 176 194 141.5Q226 107 277 107Q329 107 361 141.5Q393 176 393 232Q393 289 361 323.5Q329 358 277 358Q226 358 194 323.5Q162 289 162 232ZM520 458V-34Q520 -61 512.5 -86.5Q505 -112 488 -131.5Q471 -151 443 -163Q415 -175 373 -175H174V-65H341Q358 -65 374 -57.5Q390 -50 390 -24V64Q373 36 335 15.5Q297 -5 248 -5Q201 -5 161 12Q121 29 91.5 60Q62 91 45 134.5Q28 178 28 232Q28 286 45 330Q62 374 91 405Q120 436 160 453Q200 470 247 470Q299 470 337 449Q375 428 392 399Q392 403 391 411Q390 419 390 437V458Z" glyph-name="gcircumflex" horiz-adv-x="576" unicode="&#285;" /><glyph d="M357 593Q357 561 334.5 539Q312 517 280 517Q247 517 224 539Q201 561 201 593Q201 602 205 617Q209 632 214 640L272 746H364L324 655Q339 645 348 629Q357 613 357 593ZM162 232Q162 176 194 141.5Q226 107 277 107Q329 107 361 141.5Q393 176 393 232Q393 289 361 323.5Q329 358 277 358Q226 358 194 323.5Q162 289 162 232ZM520 458V-34Q520 -61 512.5 -86.5Q505 -112 488 -131.5Q471 -151 443 -163Q415 -175 373 -175H174V-65H341Q358 -65 374 -57.5Q390 -50 390 -24V64Q373 36 335 15.5Q297 -5 248 -5Q201 -5 161 12Q121 29 91.5 60Q62 91 45 134.5Q28 178 28 232Q28 286 45 330Q62 374 91 405Q120 436 160 453Q200 470 247 470Q299 470 337 449Q375 428 392 399Q392 403 391 411Q390 419 390 437V458Z" glyph-name="gcommaaccent" horiz-adv-x="576" unicode="&#291;" /><glyph d="M200 614Q200 651 225.5 676.5Q251 702 287 702Q324 702 349.5 676.5Q375 651 375 614Q375 578 349.5 552.5Q324 527 287 527Q251 527 225.5 552.5Q200 578 200 614ZM162 232Q162 176 194 141.5Q226 107 277 107Q329 107 361 141.5Q393 176 393 232Q393 289 361 323.5Q329 358 277 358Q226 358 194 323.5Q162 289 162 232ZM520 458V-34Q520 -61 512.5 -86.5Q505 -112 488 -131.5Q471 -151 443 -163Q415 -175 373 -175H174V-65H341Q358 -65 374 -57.5Q390 -50 390 -24V64Q373 36 335 15.5Q297 -5 248 -5Q201 -5 161 12Q121 29 91.5 60Q62 91 45 134.5Q28 178 28 232Q28 286 45 330Q62 374 91 405Q120 436 160 453Q200 470 247 470Q299 470 337 449Q375 428 392 399Q392 403 391 411Q390 419 390 437V458Z" glyph-name="gdotaccent" horiz-adv-x="576" unicode="&#289;" /><glyph d="M265 709Q314 709 351 695.5Q388 682 413 658.5Q438 635 450.5 605Q463 575 463 542Q463 503 448.5 474.5Q434 446 416.5 423.5Q399 401 384.5 383.5Q370 366 370 350Q370 337 379.5 325.5Q389 314 403.5 301.5Q418 289 435 274.5Q452 260 466.5 241Q481 222 490.5 197.5Q500 173 500 141Q500 108 488 80Q476 52 454.5 31.5Q433 11 402 -0.5Q371 -12 333 -12Q316 -12 291 -9Q266 -6 240 3L263 100Q273 94 287 91Q301 88 311 88Q340 88 355 103Q370 118 370 141Q370 163 349.5 182.5Q329 202 304 223Q279 244 258.5 269.5Q238 295 238 331Q238 364 252.5 390Q267 416 285 439.5Q303 463 317.5 485Q332 507 332 533Q332 559 313.5 576Q295 593 267 593Q236 593 211.5 569.5Q187 546 187 498V0H56V497Q56 554 74.5 594.5Q93 635 123 660.5Q153 686 190 697.5Q227 709 265 709Z" glyph-name="germandbls" horiz-adv-x="517" unicode="&#223;" /><glyph d="M237 527H113L21 700H187Z" glyph-name="grave" horiz-adv-x="243" unicode="`" /><glyph d="M268 605H161L81 730H232Z" glyph-name="grave.smcp" horiz-adv-x="350" unicode="&#63328;" /><glyph d="M47 298V421H408L273 570L358 653L635 359L358 66L273 149L408 298Z" glyph-name="greater" horiz-adv-x="664" unicode="&gt;" /><glyph d="M64 248 384 350 64 451V583L511 424V275L64 116Z" glyph-name="greater.alt" horiz-adv-x="548" unicode="&#62550;" /><glyph d="M54 345H339L239 461L319 539L554 285L319 33L239 111L339 227H54Z" glyph-name="greater.smcp" horiz-adv-x="600" unicode="&#62007;" /><glyph d="M40 119H487V0H40ZM40 304 360 406 40 507V639L487 480V331L40 172Z" glyph-name="greaterequal" horiz-adv-x="520" unicode="&#8805;" /><glyph d="M57 267 309 348 57 428V549L414 421V274L57 146ZM57 0V111H414V0Z" glyph-name="greaterequal.smcp" horiz-adv-x="456" unicode="&#62009;" /><glyph d="M243 238 362 413H497L386 238L497 62H362ZM35 238 154 413H289L178 238L289 62H154Z" glyph-name="guillemotleft" horiz-adv-x="540" unicode="&#171;" /><glyph d="M266 357 385 532H520L409 357L520 181H385ZM58 357 177 532H312L201 357L312 181H177Z" glyph-name="guillemotleft.alt" horiz-adv-x="584" unicode="&#62224;" /><glyph d="M226 285 327 435H452L360 285L452 135H327ZM42 285 144 435H269L176 285L269 135H144Z" glyph-name="guillemotleft.smcp" horiz-adv-x="519" unicode="&#62993;" /><glyph d="M387 62H252L363 238L252 413H387L506 238ZM179 62H43L154 238L43 413H179L298 238Z" glyph-name="guillemotright" horiz-adv-x="541" unicode="&#187;" /><glyph d="M408 181H273L384 357L273 532H408L527 357ZM200 181H64L175 357L64 532H200L319 357Z" glyph-name="guillemotright.alt" horiz-adv-x="585" unicode="&#62225;" /><glyph d="M376 135H251L343 285L251 435H376L477 285ZM192 135H67L160 285L67 435H192L294 285Z" glyph-name="guillemotright.smcp" horiz-adv-x="519" unicode="&#62994;" /><glyph d="M35 238 154 413H289L178 238L289 62H154Z" glyph-name="guilsinglleft" horiz-adv-x="332" unicode="&#8249;" /><glyph d="M58 357 177 532H312L201 357L312 181H177Z" glyph-name="guilsinglleft.alt" horiz-adv-x="377" unicode="&#62226;" /><glyph d="M42 285 144 435H269L176 285L269 135H144Z" glyph-name="guilsinglleft.smcp" horiz-adv-x="336" unicode="&#62992;" /><glyph d="M179 62H43L154 238L43 413H179L298 238Z" glyph-name="guilsinglright" horiz-adv-x="333" unicode="&#8250;" /><glyph d="M201 181H65L176 357L65 532H201L320 357Z" glyph-name="guilsinglright.alt" horiz-adv-x="378" unicode="&#62227;" /><glyph d="M192 135H67L160 285L67 435H192L294 285Z" glyph-name="guilsinglright.smcp" horiz-adv-x="336" unicode="&#62995;" /><glyph d="M182 404Q208 436 245 453Q282 470 321 470Q358 470 389.5 458.5Q421 447 443.5 425Q466 403 478.5 371.5Q491 340 491 300V0H361V267Q361 311 337.5 330Q314 349 283 349Q254 349 229.5 334.5Q205 320 186 297V0H56V700H184V440Q184 434 183.5 427.5Q183 421 183 416Q182 410 182 404Z" glyph-name="h" horiz-adv-x="542" unicode="h" /><glyph d="M0 646H56V700H184V646H317V536H184V440Q184 434 183.5 427.5Q183 421 183 416Q182 410 182 404Q208 436 245 453Q282 470 321 470Q358 470 389.5 458.5Q421 447 443.5 425Q466 403 478.5 371.5Q491 340 491 300V0H361V267Q361 311 337.5 330Q314 349 283 349Q254 349 229.5 334.5Q205 320 186 297V0H56V536H0Z" glyph-name="hbar" horiz-adv-x="542" unicode="&#295;" /><glyph d="M198 942H345L447 769H311L271 846L233 769H97ZM182 404Q208 436 245 453Q282 470 321 470Q358 470 389.5 458.5Q421 447 443.5 425Q466 403 478.5 371.5Q491 340 491 300V0H361V267Q361 311 337.5 330Q314 349 283 349Q254 349 229.5 334.5Q205 320 186 297V0H56V700H184V440Q184 434 183.5 427.5Q183 421 183 416Q182 410 182 404Z" glyph-name="hcircumflex" horiz-adv-x="542" unicode="&#293;" /><glyph d="M276 700H442L351 527H226ZM75 700H242L149 527H25Z" glyph-name="hungarumlaut" horiz-adv-x="468" unicode="&#733;" /><glyph d="M208 730H359L279 605H172ZM28 730H179L99 605H-8Z" glyph-name="hungarumlaut.smcp" horiz-adv-x="350" unicode="&#63224;" /><glyph d="M20 323H230V213H20Z" glyph-name="hyphen" horiz-adv-x="250" unicode="-" /><glyph d="M20 416H230V297H20Z" glyph-name="hyphen.alt" horiz-adv-x="250" unicode="&#62215;" /><glyph d="M59 616Q59 651 83 675.5Q107 700 142 700Q160 700 175 693.5Q190 687 201.5 675.5Q213 664 219.5 648.5Q226 633 226 616Q226 581 201.5 557Q177 533 142 533Q107 533 83 557Q59 581 59 616ZM213 0H83V348H19V458H213Z" glyph-name="i" horiz-adv-x="269" unicode="i" /><glyph d="M59 616Q59 651 83 675.5Q107 700 142 700Q160 700 175 693.5Q190 687 201.5 675.5Q213 664 219.5 648.5Q226 633 226 616Q226 581 201.5 557Q177 533 142 533Q107 533 83 557Q59 581 59 616ZM213 0H83V348H19V458H213Z" glyph-name="i.locl" horiz-adv-x="269" unicode="&#62212;" /><glyph d="M132 700H298L206 527H82ZM213 0H83V348H19V458H213Z" glyph-name="iacute" horiz-adv-x="269" unicode="&#237;" /><glyph d="M172 681H277V630Q277 596 265.5 570.5Q254 545 234.5 528.5Q215 512 189 503.5Q163 495 133 495Q103 495 77 503.5Q51 512 31.5 528.5Q12 545 0.5 570.5Q-11 596 -11 630V681H93V629Q93 612 103 601Q113 590 133 590Q153 590 162.5 601Q172 612 172 629ZM213 0H83V348H19V458H213Z" glyph-name="ibreve" horiz-adv-x="269" unicode="&#301;" /><glyph d="M59 700H206L308 527H172L132 604L94 527H-42ZM213 0H83V348H19V458H213Z" glyph-name="icircumflex" horiz-adv-x="269" unicode="&#238;" /><glyph d="M150 584Q150 616 173 639Q196 662 228 662Q260 662 283.5 639Q307 616 307 584Q307 552 283.5 529Q260 506 228 506Q196 506 173 529Q150 552 150 584ZM-41 584Q-41 600 -35 614Q-29 628 -18.5 638.5Q-8 649 6.5 655.5Q21 662 37 662Q69 662 92.5 639Q116 616 116 584Q116 552 92.5 529Q69 506 37 506Q21 506 6.5 512.5Q-8 519 -18.5 529.5Q-29 540 -35 554Q-41 568 -41 584ZM213 0H83V348H19V458H213Z" glyph-name="idieresis" horiz-adv-x="269" unicode="&#239;" /><glyph d="M197 527H73L-19 700H147ZM213 0H83V348H19V458H213Z" glyph-name="igrave" horiz-adv-x="269" unicode="&#236;" /><glyph d="M328 616Q328 651 352 675.5Q376 700 411 700Q429 700 444 693.5Q459 687 470.5 675.5Q482 664 488.5 648.5Q495 633 495 616Q495 581 470.5 557Q446 533 411 533Q376 533 352 557Q328 581 328 616ZM352 348H288V458H482V-65Q482 -103 468.5 -125Q455 -147 434 -158Q413 -169 387 -172.5Q361 -176 337 -176H268V-66H313Q333 -66 342.5 -60Q352 -54 352 -37ZM59 616Q59 651 83 675.5Q107 700 142 700Q160 700 175 693.5Q190 687 201.5 675.5Q213 664 219.5 648.5Q226 633 226 616Q226 581 201.5 557Q177 533 142 533Q107 533 83 557Q59 581 59 616ZM213 0H83V348H19V458H213Z" glyph-name="ij" horiz-adv-x="538" unicode="&#307;" /><glyph d="M-24 643H290V532H-24ZM213 0H83V348H19V458H213Z" glyph-name="imacron" horiz-adv-x="269" unicode="&#299;" /><glyph d="M193 350Q193 318 202.5 297Q212 276 226.5 264Q241 252 257 247.5Q273 243 287 243Q304 243 320.5 247Q337 251 353.5 262.5Q370 274 386 295Q402 316 418 350Q402 384 386 405Q370 426 353.5 437.5Q337 449 320.5 453Q304 457 287 457Q273 457 257 452.5Q241 448 226.5 436Q212 424 202.5 403Q193 382 193 350ZM751 350Q751 382 741.5 403Q732 424 717.5 436Q703 448 686.5 452.5Q670 457 657 457Q640 457 623.5 453Q607 449 590.5 437.5Q574 426 558 405Q542 384 526 350Q542 316 558 295Q574 274 590.5 262.5Q607 251 623.5 247Q640 243 657 243Q670 243 686.5 247.5Q703 252 717.5 264Q732 276 741.5 297Q751 318 751 350ZM670 120Q606 120 555.5 149.5Q505 179 472 236Q439 179 388.5 149.5Q338 120 274 120Q232 120 192.5 134.5Q153 149 122.5 178Q92 207 73.5 250Q55 293 55 350Q55 407 73.5 450Q92 493 122.5 522Q153 551 192.5 565.5Q232 580 274 580Q405 580 472 464Q505 522 555 551Q605 580 670 580Q712 580 751.5 565.5Q791 551 821.5 522Q852 493 870.5 450Q889 407 889 350Q889 293 870.5 250Q852 207 821.5 178Q791 149 751.5 134.5Q712 120 670 120Z" glyph-name="infinity" horiz-adv-x="944" unicode="&#8734;" /><glyph d="M257 -41Q257 -67 250 -91.5Q243 -116 227.5 -134.5Q212 -153 186 -164.5Q160 -176 121 -176H18V-55H53Q65 -55 77 -54Q89 -53 99 -47.5Q109 -42 115 -32Q121 -22 121 -4V565Q121 591 128 615.5Q135 640 150.5 658.5Q166 677 192 688.5Q218 700 257 700H360V578H325Q313 578 301 577Q289 576 279 571Q269 566 263 556Q257 546 257 528Z" glyph-name="integral" horiz-adv-x="377" unicode="&#8747;" /><glyph d="M59 616Q59 651 83 675.5Q107 700 142 700Q160 700 175 693.5Q190 687 201.5 675.5Q213 664 219.5 648.5Q226 633 226 616Q226 581 201.5 557Q177 533 142 533Q107 533 83 557Q59 581 59 616ZM213 0H190Q170 -18 154.5 -41Q139 -64 139 -81Q139 -95 151.5 -104Q164 -113 181 -113Q200 -113 220 -108Q240 -103 254 -98L241 -175Q217 -185 192 -192Q167 -199 130 -199Q79 -199 47.5 -176.5Q16 -154 16 -110Q16 -73 45.5 -45Q75 -17 115 0H83V348H19V458H213Z" glyph-name="iogonek" horiz-adv-x="269" unicode="&#303;" /><glyph d="M-38 523Q-38 537 -36 561Q-34 585 -24 608Q-14 631 7.5 648Q29 665 68 665Q86 665 103.5 659Q121 653 136 646Q151 639 163 633Q175 627 182 627Q204 627 204 656V662H305V655Q305 641 303 617.5Q301 594 291 571Q281 548 259.5 531Q238 514 199 514Q181 514 163.5 520Q146 526 131 533Q116 540 104 546Q92 552 85 552Q63 552 63 523V516H-38ZM213 0H83V348H19V458H213Z" glyph-name="itilde" horiz-adv-x="269" unicode="&#297;" /><glyph d="M59 616Q59 651 83 675.5Q107 700 142 700Q160 700 175 693.5Q190 687 201.5 675.5Q213 664 219.5 648.5Q226 633 226 616Q226 581 201.5 557Q177 533 142 533Q107 533 83 557Q59 581 59 616ZM83 348H19V458H213V-65Q213 -103 199.5 -125Q186 -147 165 -158Q144 -169 118 -172.5Q92 -176 68 -176H-1V-66H44Q64 -66 73.5 -60Q83 -54 83 -37Z" glyph-name="j" horiz-adv-x="269" unicode="j" /><glyph d="M59 700H206L308 527H172L132 604L94 527H-42ZM83 348H19V458H213V-65Q213 -103 199.5 -125Q186 -147 165 -158Q144 -169 118 -172.5Q92 -176 68 -176H-1V-66H44Q64 -66 73.5 -60Q83 -54 83 -37Z" glyph-name="jcircumflex" horiz-adv-x="269" unicode="&#309;" /><glyph d="M185 299H216L342 458H499L322 248L504 0H348L216 189H185V0H56V700H185Z" glyph-name="k" horiz-adv-x="507" unicode="k" /><glyph d="M188 -117Q188 -85 210.5 -63Q233 -41 265 -41Q298 -41 321 -63Q344 -85 344 -117Q344 -126 340 -141Q336 -156 331 -164L273 -270H181L221 -179Q206 -169 197 -153Q188 -137 188 -117ZM185 299H216L342 458H499L322 248L504 0H348L216 189H185V0H56V700H185Z" glyph-name="kcommaaccent" horiz-adv-x="507" unicode="&#311;" /><glyph d="M185 289H226L358 458H509L332 238L514 0H353L226 179H185V0H56V458H185Z" glyph-name="kgreenlandic" horiz-adv-x="517" unicode="&#312;" /><glyph d="M185 0H56V700H185Z" glyph-name="l" horiz-adv-x="241" unicode="l" /><glyph d="M113 942H279L187 769H63ZM185 0H56V700H185Z" glyph-name="lacute" horiz-adv-x="241" unicode="&#314;" /><glyph d="M239 636Q239 668 261.5 690Q284 712 316 712Q349 712 372 690Q395 668 395 636Q395 627 391 612Q387 597 382 589L324 483H232L272 574Q257 584 248 600Q239 616 239 636ZM185 0H56V700H185Z" glyph-name="lcaron" horiz-adv-x="241" unicode="&#318;" /><glyph d="M55 -117Q55 -85 77.5 -63Q100 -41 132 -41Q165 -41 188 -63Q211 -85 211 -117Q211 -126 207 -141Q203 -156 198 -164L140 -270H48L88 -179Q73 -169 64 -153Q55 -137 55 -117ZM185 0H56V700H185Z" glyph-name="lcommaaccent" horiz-adv-x="241" unicode="&#316;" /><glyph d="M245 362Q245 399 270.5 424.5Q296 450 332 450Q369 450 394.5 424.5Q420 399 420 362Q420 326 394.5 300.5Q369 275 332 275Q296 275 270.5 300.5Q245 326 245 362ZM185 0H56V700H185Z" glyph-name="ldot" horiz-adv-x="424" unicode="&#320;" /><glyph d="M256 298 391 149 306 66 29 359 306 653 391 570 256 421H616V298Z" glyph-name="less" horiz-adv-x="664" unicode="&lt;" /><glyph d="M484 116 37 275V424L484 583V451L164 350L484 248Z" glyph-name="less.alt" horiz-adv-x="548" unicode="&#62551;" /><glyph d="M545 227H260L361 111L280 33L45 285L280 539L361 461L260 345H545Z" glyph-name="less.smcp" horiz-adv-x="600" unicode="&#62006;" /><glyph d="M479 172 32 331V480L479 639V507L159 406L479 304ZM479 0H32V119H479Z" glyph-name="lessequal" horiz-adv-x="520" unicode="&#8804;" /><glyph d="M42 0V111H399V0ZM399 146 42 274V421L399 549V428L147 348L399 267Z" glyph-name="lessequal.smcp" horiz-adv-x="456" unicode="&#62008;" /><glyph d="M22 516H469V197H341V397H22Z" glyph-name="logicalnot" horiz-adv-x="520" unicode="&#172;" /><glyph d="M217 0H87V348H15V458H87V588Q87 622 97.5 645Q108 668 126 682Q144 696 167.5 702.5Q191 709 217 709Q230 709 247 708Q264 707 278 706Q295 704 312 703V584Q301 585 290 586Q281 587 272 588Q263 589 258 589Q239 589 228 582Q217 575 217 551Z" glyph-name="longs" horiz-adv-x="293" unicode="&#383;" /><glyph d="M275 561 179 350 275 137 369 350ZM515 350 348 0H202L33 350L202 700H348Z" glyph-name="lozenge" horiz-adv-x="549" unicode="&#9674;" /><glyph d="M193 414 249 450V349L193 314V0H64V233L12 201V301L64 333V700H193Z" glyph-name="lslash" horiz-adv-x="264" unicode="&#322;" /><glyph d="M658 269Q658 311 635 330Q612 349 582 349Q554 349 530 334.5Q506 320 487 297V0H357V269Q357 311 334.5 330Q312 349 281 349Q253 349 229 334.5Q205 320 186 297V0H56V458H183V440Q183 434 182.5 427.5Q182 421 182 416Q181 410 181 404Q207 436 243 453Q279 470 318 470Q369 470 407 449Q445 428 465 387Q494 427 532.5 448.5Q571 470 619 470Q656 470 687 458.5Q718 447 740.5 425Q763 403 775.5 371.5Q788 340 788 300V0H658Z" glyph-name="m" horiz-adv-x="839" unicode="m" /><glyph d="M29 643H343V532H29Z" glyph-name="macron" horiz-adv-x="372" unicode="&#175;" /><glyph d="M42 716H307V621H42Z" glyph-name="macron.smcp" horiz-adv-x="350" unicode="&#63407;" /><glyph d="M483 297H36V416H483Z" glyph-name="minus" horiz-adv-x="520" unicode="&#8722;" /><glyph d="M406 230H49V341H406Z" glyph-name="minus.smcp" horiz-adv-x="456" unicode="&#62998;" /><glyph d="M289 -12Q259 -12 228.5 -2Q198 8 184 23V-175H66V458H196V192Q196 145 222.5 124.5Q249 104 284 104Q301 104 317 109Q333 114 345 124.5Q357 135 364 151.5Q371 168 371 192V458H501V168Q501 132 487.5 99.5Q474 67 447.5 42Q421 17 381.5 2.5Q342 -12 289 -12Z" glyph-name="mu" horiz-adv-x="532" unicode="&#181;" /><glyph d="M406 585 493 500 350 359 493 216 406 133 265 274 126 133 38 216 181 359 38 500 125 585 265 443Z" glyph-name="multiply" horiz-adv-x="532" unicode="&#215;" /><glyph d="M238 362 343 468 425 389 318 283 425 175 343 97 238 203 133 97 50 175 158 283 50 389 133 468Z" glyph-name="multiply.smcp" horiz-adv-x="476" unicode="&#62002;" /><glyph d="M181 404Q207 436 244 453Q281 470 321 470Q358 470 389.5 458.5Q421 447 443.5 425Q466 403 478.5 371.5Q491 340 491 300V0H361V267Q361 311 337.5 330Q314 349 283 349Q254 349 229.5 334.5Q205 320 186 297V0H56V458H183V440Q183 434 182.5 427.5Q182 421 182 416Q181 410 181 404Z" glyph-name="n" horiz-adv-x="542" unicode="n" /><glyph d="M273 700H439L347 527H223ZM181 404Q207 436 244 453Q281 470 321 470Q358 470 389.5 458.5Q421 447 443.5 425Q466 403 478.5 371.5Q491 340 491 300V0H361V267Q361 311 337.5 330Q314 349 283 349Q254 349 229.5 334.5Q205 320 186 297V0H56V458H183V440Q183 434 182.5 427.5Q182 421 182 416Q181 410 181 404Z" glyph-name="nacute" horiz-adv-x="542" unicode="&#324;" /><glyph d="M45 664Q45 696 67.5 718Q90 740 122 740Q155 740 178 718Q201 696 201 664Q201 655 197 640Q193 625 188 617L130 511H38L78 602Q63 612 54 628Q45 644 45 664ZM181 404Q207 436 244 453Q281 470 321 470Q358 470 389.5 458.5Q421 447 443.5 425Q466 403 478.5 371.5Q491 340 491 300V0H361V267Q361 311 337.5 330Q314 349 283 349Q254 349 229.5 334.5Q205 320 186 297V0H56V458H183V440Q183 434 182.5 427.5Q182 421 182 416Q181 410 181 404Z" glyph-name="napostrophe" horiz-adv-x="542" unicode="&#329;" /><glyph d="M100 700H236L274 623L314 700H450L348 527H201ZM181 404Q207 436 244 453Q281 470 321 470Q358 470 389.5 458.5Q421 447 443.5 425Q466 403 478.5 371.5Q491 340 491 300V0H361V267Q361 311 337.5 330Q314 349 283 349Q254 349 229.5 334.5Q205 320 186 297V0H56V458H183V440Q183 434 182.5 427.5Q182 421 182 416Q181 410 181 404Z" glyph-name="ncaron" horiz-adv-x="542" unicode="&#328;" /><glyph d="M188 -117Q188 -85 210.5 -63Q233 -41 265 -41Q298 -41 321 -63Q344 -85 344 -117Q344 -126 340 -141Q336 -156 331 -164L273 -270H181L221 -179Q206 -169 197 -153Q188 -137 188 -117ZM181 404Q207 436 244 453Q281 470 321 470Q358 470 389.5 458.5Q421 447 443.5 425Q466 403 478.5 371.5Q491 340 491 300V0H361V267Q361 311 337.5 330Q314 349 283 349Q254 349 229.5 334.5Q205 320 186 297V0H56V458H183V440Q183 434 182.5 427.5Q182 421 182 416Q181 410 181 404Z" glyph-name="ncommaaccent" horiz-adv-x="542" unicode="&#326;" /><glyph d="M368 486Q368 509 361.5 529.5Q355 550 342.5 565.5Q330 581 310.5 590Q291 599 265 599Q240 599 221 590Q202 581 189.5 565.5Q177 550 170.5 529.5Q164 509 164 486Q164 463 170.5 442Q177 421 189.5 405Q202 389 221 380Q240 371 265 371Q291 371 310.5 380Q330 389 342.5 405Q355 421 361.5 442Q368 463 368 486ZM327 290Q319 282 295.5 271.5Q272 261 234 261Q194 261 156 274.5Q118 288 88.5 315Q59 342 41 383Q23 424 23 480Q23 532 40.5 575Q58 618 89.5 648.5Q121 679 164.5 695.5Q208 712 261 712Q317 712 362.5 694Q408 676 440.5 643Q473 610 490.5 564.5Q508 519 508 464Q508 388 483 320.5Q458 253 422 196.5Q386 140 346 95.5Q306 51 275 21L253 0H69L83 12Q102 28 133 57Q164 86 199 123Q234 160 269.5 202Q305 244 332 288Z" glyph-name="nine" horiz-adv-x="539" unicode="9" /><glyph d="M375 486Q375 509 368.5 529.5Q362 550 349.5 565.5Q337 581 317.5 590Q298 599 272 599Q247 599 228 590Q209 581 196.5 565.5Q184 550 177.5 529.5Q171 509 171 486Q171 463 177.5 442Q184 421 196.5 405Q209 389 228 380Q247 371 272 371Q298 371 317.5 380Q337 389 349.5 405Q362 421 368.5 442Q375 463 375 486ZM334 290Q326 282 302.5 271.5Q279 261 241 261Q201 261 163 274.5Q125 288 95.5 315Q66 342 48 383Q30 424 30 480Q30 532 47.5 575Q65 618 96.5 648.5Q128 679 171.5 695.5Q215 712 268 712Q324 712 369.5 694Q415 676 447.5 643Q480 610 497.5 564.5Q515 519 515 464Q515 388 490 320.5Q465 253 429 196.5Q393 140 353 95.5Q313 51 282 21L260 0H76L90 12Q109 28 140 57Q171 86 206 123Q241 160 276.5 202Q312 244 339 288Z" glyph-name="nine.alt" horiz-adv-x="553" unicode="&#62033;" /><glyph d="M348 298Q348 339 324.5 369Q301 399 253 399Q207 399 183.5 369Q160 339 160 298Q160 255 183.5 224Q207 193 253 193Q301 193 324.5 224Q348 255 348 298ZM312 117Q303 109 280.5 100Q258 91 223 91Q185 91 149 103.5Q113 116 85.5 141Q58 166 41 204.5Q24 243 24 295Q24 343 40.5 383Q57 423 86.5 451Q116 479 157.5 494.5Q199 510 249 510Q302 510 345.5 493Q389 476 419.5 445.5Q450 415 466.5 372.5Q483 330 483 279Q483 209 459.5 146.5Q436 84 401.5 31.5Q367 -21 329 -62.5Q291 -104 261 -131L242 -149H64L82 -134Q100 -118 129 -91.5Q158 -65 191 -32Q224 1 256.5 39Q289 77 314 116Z" glyph-name="nine.posf" horiz-adv-x="511" unicode="&#62049;" /><glyph d="M263 102Q263 124 250.5 140.5Q238 157 212 157Q186 157 173.5 140.5Q161 124 161 102Q161 79 173.5 62Q186 45 212 45Q238 45 250.5 62Q263 79 263 102ZM77 -194 86 -186Q98 -176 118 -157.5Q138 -139 160.5 -117Q183 -95 204.5 -71Q226 -47 241 -26L238 -24Q230 -29 216.5 -33.5Q203 -38 185 -38Q159 -38 135 -28.5Q111 -19 93 -2Q75 15 64.5 40Q54 65 54 96Q54 129 65.5 156Q77 183 97 202.5Q117 222 145.5 233Q174 244 208 244Q245 244 275.5 231.5Q306 219 327 197.5Q348 176 359.5 146.5Q371 117 371 83Q371 35 355.5 -6Q340 -47 318 -80Q296 -113 271.5 -138.5Q247 -164 229 -181L216 -194Z" glyph-name="nine.sinf" horiz-adv-x="430" unicode="&#62081;" /><glyph d="M313 384Q313 416 295 439Q277 462 241 462Q206 462 188.5 439Q171 416 171 384Q171 352 188.5 328.5Q206 305 241 305Q277 305 295 328.5Q313 352 313 384ZM66 0 80 11Q95 24 121 46.5Q147 69 175.5 97Q204 125 232 157Q260 189 281 221L276 223Q268 218 252.5 212Q237 206 210 206Q178 206 147 216.5Q116 227 92 248.5Q68 270 53.5 303Q39 336 39 381Q39 423 53.5 458Q68 493 94 518Q120 543 156.5 556.5Q193 570 237 570Q284 570 322.5 554.5Q361 539 388 512Q415 485 429.5 447.5Q444 410 444 366Q444 304 423.5 250Q403 196 374 151Q345 106 312 72Q279 38 255 16L238 0Z" glyph-name="nine.smcp" horiz-adv-x="484" unicode="&#58436;" /><glyph d="M263 701Q263 723 250.5 739.5Q238 756 212 756Q186 756 173.5 739.5Q161 723 161 701Q161 678 173.5 661Q186 644 212 644Q238 644 250.5 661Q263 678 263 701ZM77 405 86 413Q98 423 118 441.5Q138 460 160.5 482Q183 504 204.5 528Q226 552 241 573L238 575Q230 570 216.5 565.5Q203 561 185 561Q159 561 135 570.5Q111 580 93 597Q75 614 64.5 639Q54 664 54 695Q54 728 65.5 755Q77 782 97 801.5Q117 821 145.5 832Q174 843 208 843Q245 843 275.5 830.5Q306 818 327 796.5Q348 775 359.5 745.5Q371 716 371 682Q371 634 355.5 593Q340 552 318 519Q296 486 271.5 460.5Q247 435 229 418L216 405Z" glyph-name="nine.sups" horiz-adv-x="430" unicode="&#62065;" /><glyph d="M263 296Q263 318 250.5 334.5Q238 351 212 351Q186 351 173.5 334.5Q161 318 161 296Q161 273 173.5 256Q186 239 212 239Q238 239 250.5 256Q263 273 263 296ZM77 0 86 8Q98 18 118 36.5Q138 55 160.5 77Q183 99 204.5 123Q226 147 241 168L238 170Q230 165 216.5 160.5Q203 156 185 156Q159 156 135 165.5Q111 175 93 192Q75 209 64.5 234Q54 259 54 290Q54 323 65.5 350Q77 377 97 396.5Q117 416 145.5 427Q174 438 208 438Q245 438 275.5 425.5Q306 413 327 391.5Q348 370 359.5 340.5Q371 311 371 277Q371 229 355.5 188Q340 147 318 114Q296 81 271.5 55.5Q247 30 229 13L216 0Z" glyph-name="nineinferior" horiz-adv-x="430" unicode="&#8329;" /><glyph d="M263 565Q263 587 250.5 603.5Q238 620 212 620Q186 620 173.5 603.5Q161 587 161 565Q161 542 173.5 525Q186 508 212 508Q238 508 250.5 525Q263 542 263 565ZM77 269 86 277Q98 287 118 305.5Q138 324 160.5 346Q183 368 204.5 392Q226 416 241 437L238 439Q230 434 216.5 429.5Q203 425 185 425Q159 425 135 434.5Q111 444 93 461Q75 478 64.5 503Q54 528 54 559Q54 592 65.5 619Q77 646 97 665.5Q117 685 145.5 696Q174 707 208 707Q245 707 275.5 694.5Q306 682 327 660.5Q348 639 359.5 609.5Q371 580 371 546Q371 498 355.5 457Q340 416 318 383Q296 350 271.5 324.5Q247 299 229 282L216 269Z" glyph-name="ninesuperior" horiz-adv-x="430" unicode="&#8313;" /><glyph d="M197 135V197H36V316H197V397H36V516H197V578H321V516H483V397H321V316H483V197H321V135Z" glyph-name="notequal" horiz-adv-x="520" unicode="&#8800;" /><glyph d="M49 424H169V464H286V424H406V312H286V258H406V147H286V107H169V147H49V258H169V312H49Z" glyph-name="notequal.smcp" horiz-adv-x="456" unicode="&#62004;" /><glyph d="M99 523Q99 537 101 561Q103 585 113 608Q123 631 144.5 648Q166 665 205 665Q223 665 240.5 659Q258 653 273 646Q288 639 300 633Q312 627 319 627Q341 627 341 656V662H442V655Q442 641 440 617.5Q438 594 428 571Q418 548 396.5 531Q375 514 336 514Q318 514 300.5 520Q283 526 268 533Q253 540 241 546Q229 552 222 552Q200 552 200 523V516H99ZM181 404Q207 436 244 453Q281 470 321 470Q358 470 389.5 458.5Q421 447 443.5 425Q466 403 478.5 371.5Q491 340 491 300V0H361V267Q361 311 337.5 330Q314 349 283 349Q254 349 229.5 334.5Q205 320 186 297V0H56V458H183V440Q183 434 182.5 427.5Q182 421 182 416Q181 410 181 404Z" glyph-name="ntilde" horiz-adv-x="542" unicode="&#241;" /><glyph d="M242 322H323V417H242ZM49 516H137V660H242V516H323V660H428V516H517V417H428V322H517V223H428V78H323V223H242V78H137V223H49V322H137V417H49Z" glyph-name="numbersign" horiz-adv-x="566" unicode="#" /><glyph d="M217 262H270V330H217ZM51 421H121V536H217V421H270V536H366V421H437V330H366V262H437V171H366V55H270V171H217V55H121V171H51V262H121V330H51Z" glyph-name="numbersign.smcp" horiz-adv-x="487" unicode="&#61842;" /><glyph d="M272 354Q221 354 189 318.5Q157 283 157 229Q157 202 165.5 179.5Q174 157 189 140Q204 123 225 113.5Q246 104 272 104Q323 104 354.5 139.5Q386 175 386 229Q386 256 377.5 279Q369 302 354 318.5Q339 335 318 344.5Q297 354 272 354ZM272 -12Q221 -12 176.5 6Q132 24 98.5 56Q65 88 46 132Q27 176 27 229Q27 281 46 325.5Q65 370 98.5 402Q132 434 176.5 452Q221 470 272 470Q323 470 367.5 452Q412 434 445.5 402Q479 370 498 325.5Q517 281 517 229Q517 176 498 132Q479 88 445.5 56Q412 24 367.5 6Q323 -12 272 -12Z" glyph-name="o" horiz-adv-x="544" unicode="o" /><glyph d="M263 700H429L337 527H213ZM272 354Q221 354 189 318.5Q157 283 157 229Q157 202 165.5 179.5Q174 157 189 140Q204 123 225 113.5Q246 104 272 104Q323 104 354.5 139.5Q386 175 386 229Q386 256 377.5 279Q369 302 354 318.5Q339 335 318 344.5Q297 354 272 354ZM272 -12Q221 -12 176.5 6Q132 24 98.5 56Q65 88 46 132Q27 176 27 229Q27 281 46 325.5Q65 370 98.5 402Q132 434 176.5 452Q221 470 272 470Q323 470 367.5 452Q412 434 445.5 402Q479 370 498 325.5Q517 281 517 229Q517 176 498 132Q479 88 445.5 56Q412 24 367.5 6Q323 -12 272 -12Z" glyph-name="oacute" horiz-adv-x="544" unicode="&#243;" /><glyph d="M310 681H415V630Q415 596 403.5 570.5Q392 545 372.5 528.5Q353 512 327 503.5Q301 495 271 495Q241 495 215 503.5Q189 512 169.5 528.5Q150 545 138.5 570.5Q127 596 127 630V681H231V629Q231 612 241 601Q251 590 271 590Q291 590 300.5 601Q310 612 310 629ZM272 354Q221 354 189 318.5Q157 283 157 229Q157 202 165.5 179.5Q174 157 189 140Q204 123 225 113.5Q246 104 272 104Q323 104 354.5 139.5Q386 175 386 229Q386 256 377.5 279Q369 302 354 318.5Q339 335 318 344.5Q297 354 272 354ZM272 -12Q221 -12 176.5 6Q132 24 98.5 56Q65 88 46 132Q27 176 27 229Q27 281 46 325.5Q65 370 98.5 402Q132 434 176.5 452Q221 470 272 470Q323 470 367.5 452Q412 434 445.5 402Q479 370 498 325.5Q517 281 517 229Q517 176 498 132Q479 88 445.5 56Q412 24 367.5 6Q323 -12 272 -12Z" glyph-name="obreve" horiz-adv-x="544" unicode="&#335;" /><glyph d="M198 700H345L447 527H311L271 604L233 527H97ZM272 354Q221 354 189 318.5Q157 283 157 229Q157 202 165.5 179.5Q174 157 189 140Q204 123 225 113.5Q246 104 272 104Q323 104 354.5 139.5Q386 175 386 229Q386 256 377.5 279Q369 302 354 318.5Q339 335 318 344.5Q297 354 272 354ZM272 -12Q221 -12 176.5 6Q132 24 98.5 56Q65 88 46 132Q27 176 27 229Q27 281 46 325.5Q65 370 98.5 402Q132 434 176.5 452Q221 470 272 470Q323 470 367.5 452Q412 434 445.5 402Q479 370 498 325.5Q517 281 517 229Q517 176 498 132Q479 88 445.5 56Q412 24 367.5 6Q323 -12 272 -12Z" glyph-name="ocircumflex" horiz-adv-x="544" unicode="&#244;" /></font>
</defs>
</svg>
